<svg width="103" height="100" viewBox="0 0 103 100" fill="none" xmlns="http://www.w3.org/2000/svg">
<circle cx="50" cy="50" r="50" fill="#34D399"/>
<g clip-path="url(#clip0)">
<mask id="mask0" style="mask-type:alpha" maskUnits="userSpaceOnUse" x="-1" y="0" width="101" height="100">
<circle cx="49.9387" cy="50" r="50" fill="#C4C4C4"/>
</mask>
<g mask="url(#mask0)">
<path d="M30.2818 24.0034C27.449 24.0034 28.6533 23.9505 24.6674 24.2616C20.4552 24.5903 16.591 26.5481 13.8451 29.6388C12.3541 31.3169 10.0377 31.9958 7.89939 31.3124L5.92966 30.6829C5.92966 30.6829 4.92341 51.7544 11.0037 54.4048H49.8814V43.5983C49.8816 32.7751 41.1052 24.0038 30.2818 24.0034Z" fill="#D77F4A"/>
<path d="M20.2705 77.9401V77.9341H14.3221C9.79648 77.9341 6.12793 81.6028 6.12793 86.1282V99.7526H49.8816V86.1282C49.8816 81.6026 46.2129 77.9341 41.6875 77.9341H35.7391V77.9401H20.2705Z" fill="#3C87D0"/>
<path d="M20.2419 71.7606V77.9401C20.2419 82.2116 23.7046 85.6743 27.9761 85.6743C32.2476 85.6743 35.7103 82.2116 35.7103 77.9401C35.7103 75.7741 35.7103 73.8532 35.7103 71.7606H20.2419Z" fill="#FFB09E"/>
<path d="M20.2419 77.9401C20.2419 78.2977 20.2683 78.6489 20.3152 78.9938C22.6615 80.0485 25.2679 80.6364 28.0134 80.6364C30.7281 80.6364 33.3066 80.0616 35.6322 79.0292C35.6824 78.6731 35.7099 78.3099 35.7099 77.9401C35.7099 75.7741 35.7099 73.853 35.7099 71.7606H20.2419V77.9401Z" fill="#FFA78F"/>
<path d="M18.8934 62.1323H9.33184C5.83496 62.1323 3 59.2976 3 55.8005C3 52.3034 5.83496 49.4687 9.33184 49.4687H18.8934V62.1323Z" fill="#FFB09E"/>
<path d="M37.1161 49.4687H46.6776C50.1747 49.4687 53.0094 52.3036 53.0094 55.8005C53.0094 59.2976 50.1745 62.1323 46.6776 62.1323H37.1161V49.4687Z" fill="#FFA78F"/>
<path d="M9.39417 52.3118V59.289C9.39417 69.4556 17.7303 77.6974 28.0137 77.6974C38.2969 77.6974 46.6332 69.4556 46.6332 59.289V52.3118C46.6332 42.1452 38.2971 33.9034 28.0137 33.9034C17.7303 33.9034 9.39417 42.1452 9.39417 52.3118Z" fill="#FFCEBF"/>
<path d="M17.1107 65.4553H13.876C12.9072 65.4553 12.1221 64.6702 12.1221 63.7014C12.1221 62.7327 12.9072 61.9475 13.876 61.9475H17.1109C18.0797 61.9475 18.8648 62.7327 18.8648 63.7014C18.8648 64.6702 18.0797 65.4553 17.1107 65.4553Z" fill="#FE8F83"/>
<path d="M28.6422 33.9165C27.9325 33.9366 27.2319 33.9925 26.5442 34.0892C35.5745 35.3591 42.5186 43.0331 42.5186 52.3118V59.289C42.5186 68.5677 35.5745 76.2417 26.5442 77.5116C27.2319 77.6083 27.9325 77.6643 28.6422 77.6843C38.6342 77.3563 46.6333 69.2473 46.6333 59.289V52.3118C46.6331 42.3534 38.6342 34.2444 28.6422 33.9165Z" fill="#FFB09E"/>
<path d="M31.0597 24.0227H27.7699C27.2347 24.0524 26.4998 24.1184 24.6675 24.2614C20.5947 24.5795 16.8476 26.4206 14.1218 29.3358V37.5153C14.1218 44.1168 19.4734 49.4682 26.0748 49.4682H49.8814V43.5979C49.8816 33.0354 41.5228 24.4292 31.0597 24.0227Z" fill="#D77F4A"/>
<path d="M31.0598 24.0229H27.77C27.3192 24.0479 26.7241 24.0989 25.4534 24.1999C34.9733 25.5364 42.2993 33.7098 42.2993 43.5983V49.4686H49.8819V43.5983C49.8817 33.0354 41.5229 24.4292 31.0598 24.0229Z" fill="#C86D36"/>
<path d="M41.6873 77.9343H35.7389V77.9403H35.458C39.8738 78.0657 43.4158 81.6823 43.4158 86.1286V99.753H49.8816V86.1286C49.8816 81.6028 46.2129 77.9343 41.6873 77.9343Z" fill="#0078C8"/>
<path d="M42.0761 65.4553H38.8412C37.8724 65.4553 37.0873 64.6702 37.0873 63.7014C37.0873 62.7327 37.8724 61.9475 38.8412 61.9475H42.0761C43.0449 61.9475 43.8301 62.7327 43.8301 63.7014C43.8301 64.6702 43.0449 65.4553 42.0761 65.4553Z" fill="#FE8F83"/>
<path d="M27.9762 70.2554C24.9326 70.2554 22.4567 67.7794 22.4567 64.736C22.4567 63.877 23.153 63.1807 24.0119 63.1807C24.8709 63.1807 25.5672 63.877 25.5672 64.736C25.5672 66.0641 26.6479 67.145 27.9764 67.145C29.3045 67.145 30.3854 66.0643 30.3854 64.736C30.3854 63.877 31.0817 63.1807 31.9407 63.1807C32.7996 63.1807 33.4959 63.877 33.4959 64.736C33.4955 67.7794 31.0196 70.2554 27.9762 70.2554Z" fill="#FFA799"/>
<path d="M37.0873 60.4563C36.2283 60.4563 35.532 59.7601 35.532 58.9011V55.4638C35.532 54.6048 36.2283 53.9085 37.0873 53.9085C37.9462 53.9085 38.6425 54.6048 38.6425 55.4638V58.9011C38.6425 59.7601 37.9464 60.4563 37.0873 60.4563Z" fill="#5A5A5A"/>
<path d="M18.8648 60.4563C18.0059 60.4563 17.3096 59.7601 17.3096 58.9011V55.4638C17.3096 54.6048 18.0059 53.9085 18.8648 53.9085C19.7238 53.9085 20.4201 54.6048 20.4201 55.4638V58.9011C20.4199 59.7601 19.7238 60.4563 18.8648 60.4563Z" fill="#5A5A5A"/>
<path d="M63.6091 79.1005H62.8048C58.4374 79.1005 54.897 82.6409 54.897 87.0083V99.9667H95.2265V87.0083C95.2265 82.6409 91.686 79.1005 87.3186 79.1005H63.6091Z" fill="#F07281"/>
<path d="M87.3189 79.1005H80.8422C85.2095 79.1005 88.75 82.6409 88.75 87.0083V99.9667H95.2267V87.0083C95.2267 82.6407 91.6863 79.1005 87.3189 79.1005Z" fill="#EB5569"/>
<path d="M75.0356 87.429C71.2317 87.429 68.1479 84.3452 68.1479 80.5413V63.9657H81.9233V80.5411C81.9231 84.3452 78.8395 87.429 75.0356 87.429Z" fill="#FFB09E"/>
<path d="M68.1479 79.5604C70.2452 80.5059 72.5743 81.0368 75.0302 81.0368C77.4903 81.0368 79.8231 80.504 81.9233 79.5556V63.9657H68.1479V79.5604Z" fill="#FFA78F"/>
<path d="M99.5578 81.2132H103V71.7352C103 66.1999 98.5127 61.7126 92.9773 61.7126H89.5352V71.1905C89.5352 76.7259 94.0225 81.2132 99.5578 81.2132Z" fill="#5A5A5A"/>
<path d="M92.9773 61.7126H89.5352V62.0009C93.9178 63.072 97.1709 67.0227 97.1709 71.7352V80.9249C97.9361 81.1118 98.735 81.2132 99.5578 81.2132H103V71.7352C103 66.1997 98.5127 61.7126 92.9773 61.7126Z" fill="#444444"/>
<path d="M50.4625 81.2132H47.0203V71.7352C47.0203 66.1999 51.5076 61.7126 57.0429 61.7126H60.4851V71.1905C60.4851 76.7259 55.9978 81.2132 50.4625 81.2132Z" fill="#5A5A5A"/>
<path d="M66.9222 63.9657H58.3853C55.2685 63.9657 52.7419 61.4392 52.7419 58.3224C52.7419 55.2056 55.2685 52.679 58.3853 52.679H66.9222V63.9657Z" fill="#FFB09E"/>
<path d="M83.098 52.679H91.6349C94.7517 52.679 97.2783 55.2056 97.2783 58.3224C97.2783 61.4392 94.7517 63.9657 91.6349 63.9657H83.098V52.679Z" fill="#FFA78F"/>
<path d="M75.0301 38.8308C65.863 38.8308 58.4315 46.1704 58.4315 55.2245V56.3327V61.4306C58.4315 70.4847 65.863 77.8243 75.0301 77.8243C84.1973 77.8243 91.6288 70.4847 91.6288 61.4306V55.2245C91.6288 46.1704 84.1973 38.8308 75.0301 38.8308Z" fill="#FFCEBF"/>
<path d="M75.0302 38.8308C74.156 38.8308 73.2978 38.8985 72.4601 39.0271C80.4068 40.2472 86.4886 47.0339 86.4886 55.2245V61.4306C86.4886 69.6212 80.4066 76.4079 72.4601 77.628C73.2978 77.7565 74.156 77.8243 75.0302 77.8243C84.1974 77.8243 91.6288 70.4847 91.6288 61.4306V55.2245C91.6288 46.1704 84.1974 38.8308 75.0302 38.8308Z" fill="#FFB09E"/>
<path d="M65.7309 67.5231H62.5714C61.6253 67.5231 60.8583 66.7563 60.8583 65.8101C60.8583 64.8638 61.6251 64.097 62.5714 64.097H65.7309C66.677 64.097 67.444 64.8638 67.444 65.8101C67.444 66.7563 66.677 67.5231 65.7309 67.5231Z" fill="#FE8F83"/>
<path d="M87.5525 67.5231H84.3929C83.4466 67.5231 82.6798 66.7563 82.6798 65.8101C82.6798 64.8638 83.4466 64.097 84.3929 64.097H87.5525C88.4985 64.097 89.2655 64.8638 89.2655 65.8101C89.2655 66.7563 88.4985 67.5231 87.5525 67.5231Z" fill="#FE8F83"/>
<path d="M76.7699 29.2587C75.798 29.2587 75.0103 30.0464 75.0101 31.0183C75.0101 30.0464 74.2222 29.2587 73.2503 29.2587C62.7626 29.2587 54.2609 37.7606 54.2609 48.2481V52.6788H65.3417C70.6814 52.6788 75.0099 48.3503 75.0101 43.0108C75.0103 48.3503 79.3388 52.6788 84.6785 52.6788H95.7595V48.2481C95.7593 37.7606 87.2576 29.2587 76.7699 29.2587Z" fill="#5A5A5A"/>
<path d="M76.7699 29.2589C76.2658 29.2589 75.8123 29.472 75.4916 29.8116C83.7808 31.8509 89.9304 39.3298 89.9304 48.2483V52.679H95.7595V48.2483C95.7593 37.7606 87.2576 29.2589 76.7699 29.2589Z" fill="#444444"/>
<path d="M75.0619 71.7362C72.2589 71.7362 69.9783 69.4556 69.9783 66.6526C69.9783 65.7136 70.7394 64.9526 71.6783 64.9526C72.6171 64.9526 73.3783 65.7136 73.3783 66.6526C73.3783 67.581 74.1335 68.3362 75.0619 68.3362C75.9902 68.3362 76.7454 67.581 76.7454 66.6526C76.7454 65.7136 77.5066 64.9526 78.4454 64.9526C79.3843 64.9526 80.1454 65.7136 80.1454 66.6526C80.1454 69.4558 77.865 71.7362 75.0619 71.7362Z" fill="#FFA799"/>
<path d="M82.8387 63.4167C81.8998 63.4167 81.1387 62.6558 81.1387 61.7167V58.6946C81.1387 57.7556 81.8998 56.9946 82.8387 56.9946H84.1379C85.0767 56.9946 85.8379 57.7556 85.8379 58.6946C85.8379 59.4954 85.2842 60.1669 84.5387 60.347V61.7167C84.5387 62.6558 83.7775 63.4167 82.8387 63.4167Z" fill="#5A5A5A"/>
<path d="M67.2853 63.4167C66.3465 63.4167 65.5854 62.6558 65.5854 61.7167V60.347C64.8398 60.1667 64.2861 59.4954 64.2861 58.6946C64.2861 57.7556 65.0473 56.9946 65.9861 56.9946H67.2853C68.2242 56.9946 68.9854 57.7556 68.9854 58.6946V61.7167C68.9854 62.6558 68.2242 63.4167 67.2853 63.4167Z" fill="#5A5A5A"/>
</g>
</g>
<defs>
<clipPath id="clip0">
<rect width="100" height="100" fill="white" transform="translate(3)"/>
</clipPath>
</defs>
</svg>
