<svg width="150" height="150" viewBox="0 0 150 150" fill="none" xmlns="http://www.w3.org/2000/svg">
<path d="M75.0007 149.999C116.422 149.999 150 116.421 150 74.9997C150 33.5785 116.422 0 75.0007 0C33.5795 0 0.000976562 33.5785 0.000976562 74.9997C0.000976562 116.421 33.5795 149.999 75.0007 149.999Z" fill="#34D399"/>
<mask id="mask0" style="mask-type:alpha" maskUnits="userSpaceOnUse" x="0" y="0" width="150" height="150">
<path d="M74.9997 149.999C116.421 149.999 149.999 116.421 149.999 74.9997C149.999 33.5785 116.421 0 74.9997 0C33.5785 0 0 33.5785 0 74.9997C0 116.421 33.5785 149.999 74.9997 149.999Z" fill="#34D399"/>
</mask>
<g mask="url(#mask0)">
<path fill-rule="evenodd" clip-rule="evenodd" d="M114.185 150C118.196 150 121.477 146.727 121.477 142.725V77.5067C118.933 77.9882 32.9409 77.9688 30.5212 77.5067V142.725C30.5212 146.727 33.8017 150 37.8064 150H114.185Z" fill="#F9F7F8"/>
<path fill-rule="evenodd" clip-rule="evenodd" d="M114.355 93.795V146.707C114.355 147.891 114.068 149.011 113.559 150H114.185C118.196 150 121.477 146.726 121.477 142.724V94.8814V77.5063C121.425 77.5128 121.346 77.5193 121.236 77.5324C120.427 77.5974 117.968 77.6559 114.355 77.7016V93.795H114.355Z" fill="#DDDAEC"/>
<path fill-rule="evenodd" clip-rule="evenodd" d="M34.9237 65.8259L58.7028 68.2011L55.7221 54.6069H41.2498C37.767 54.6069 34.9235 57.4442 34.9235 60.9192V65.8259H34.9237Z" fill="#FFD772"/>
<path fill-rule="evenodd" clip-rule="evenodd" d="M96.2759 54.6069L93.2888 68.2011L117.074 65.8259V60.9192C117.074 57.4442 114.224 54.6069 110.748 54.6069H96.2759Z" fill="#FFD772"/>
<path fill-rule="evenodd" clip-rule="evenodd" d="M86.8647 84.2291C86.8647 90.1964 91.7497 95.0706 97.7237 95.0706C103.704 95.0706 108.589 90.1964 108.589 84.2291C108.589 90.1964 113.481 95.0706 119.455 95.0706C120.146 95.0706 120.818 95.0056 121.477 94.8818C126.492 93.9318 130.321 89.5066 130.321 84.2291V73.8626C130.321 67.804 125.462 65.8259 121.477 65.8259H117.075H95.6695C91.7628 72.6328 84.4192 77.2141 75.9992 77.2141C67.5793 77.2141 60.2292 72.6328 56.3289 65.8259H34.9237H30.5213C26.5298 65.8259 21.6775 67.8043 21.6775 73.8626V84.2291C21.6775 89.5066 25.4994 93.9318 30.5213 94.8818C31.1735 95.0054 31.8518 95.0706 32.5365 95.0706C38.5172 95.0706 43.4022 90.1964 43.4022 84.2291C43.4022 90.1964 48.2936 95.0706 54.2678 95.0706C60.2421 95.0706 65.1335 90.1964 65.1335 84.2291C65.1335 90.1964 70.025 95.0706 75.9992 95.0706C81.9734 95.0706 86.8647 90.1964 86.8647 84.2291Z" fill="#EB5468"/>
<path fill-rule="evenodd" clip-rule="evenodd" d="M56.3222 65.8259C60.2289 72.6328 67.5792 77.2141 75.9989 77.2141C84.4186 77.2141 91.7625 72.6328 95.6692 65.8259C97.5671 62.5201 98.6563 58.6871 98.6563 54.6069C98.6563 42.1192 88.5081 32 75.9989 32C63.4833 32 53.3416 42.1192 53.3416 54.6069C53.3416 58.6871 54.4243 62.5201 56.3222 65.8259Z" fill="#F9F7F8"/>
<path fill-rule="evenodd" clip-rule="evenodd" d="M114.74 66.0601C118.066 66.737 121.235 68.9624 121.235 73.8626V80.6563V84.2288C121.235 88.5759 118.64 92.3501 114.916 94.0747C116.298 94.7124 117.838 95.0703 119.455 95.0703C120.147 95.0703 120.818 95.0053 121.477 94.8816C126.492 93.9316 130.321 89.5063 130.321 84.2288V73.8624C130.321 67.8038 125.462 65.8257 121.477 65.8257H117.075L114.74 66.0601Z" fill="#E5384F"/>
<path fill-rule="evenodd" clip-rule="evenodd" d="M75.3468 32.0065C85.1362 34.4987 92.3821 43.3621 92.3821 53.9107C92.3821 57.9973 91.2929 61.8303 89.395 65.1361C85.5927 71.7607 78.5229 76.277 70.377 76.5111C72.1705 76.9665 74.0552 77.2138 75.999 77.2138C83.4342 77.2138 90.0343 73.6346 94.1627 68.1163C94.7105 67.3876 95.2127 66.6196 95.6693 65.8257C97.5672 62.5198 98.6564 58.6869 98.6564 54.6067C98.6564 42.1192 88.5082 32 75.999 32C75.7773 32 75.562 32 75.3468 32.0065Z" fill="#DDDAEC"/>
<path fill-rule="evenodd" clip-rule="evenodd" d="M106.287 104.467H89.4016C86.7798 104.467 84.6342 106.608 84.6342 109.224V150H111.055V109.224C111.055 106.608 108.909 104.467 106.287 104.467Z" fill="#B1E4F9"/>
<path fill-rule="evenodd" clip-rule="evenodd" d="M73.6705 135.085V108.944C73.6705 106.322 71.5182 104.174 68.8899 104.174H44.4521C41.8239 104.174 39.678 106.322 39.678 108.944V135.085C39.678 137.707 41.8236 139.848 44.4521 139.848H68.8899C71.5184 139.848 73.6705 137.708 73.6705 135.085Z" fill="#B1E4F9"/>
<path fill-rule="evenodd" clip-rule="evenodd" d="M84.6406 108.944H96.5367H99.1585H100.822C103.443 108.944 105.589 111.085 105.589 113.701V130.933V150H111.054V109.224C111.054 106.608 108.909 104.467 106.287 104.467H89.4016C86.8711 104.467 84.7907 106.459 84.6406 108.944Z" fill="#75CEF8"/>
<path fill-rule="evenodd" clip-rule="evenodd" d="M51.9395 125.63L61.4095 118.4L57.5355 113.344C55.5399 110.741 51.7832 110.24 49.1743 112.231C46.5721 114.216 46.0699 117.97 48.0591 120.567L51.9395 125.63Z" fill="#EB5468"/>
<path fill-rule="evenodd" clip-rule="evenodd" d="M61.4094 118.4L51.9395 125.63L55.8134 130.686C57.8026 133.282 61.5657 133.783 64.1681 131.799C66.7768 129.814 67.279 126.059 65.2834 123.462L61.4094 118.4Z" fill="#F9F7F8"/>
<path fill-rule="evenodd" clip-rule="evenodd" d="M53.7394 115.751L57.62 120.807L57.8548 121.113L61.4094 118.4L57.5354 113.344C55.5398 110.741 51.7831 110.24 49.1742 112.231C48.985 112.374 48.8089 112.524 48.646 112.686C50.9219 112.055 52.2263 113.766 53.7394 115.751Z" fill="#E5384F"/>
<path fill-rule="evenodd" clip-rule="evenodd" d="M61.4094 118.4L57.8549 121.113L61.4942 125.864C63.34 128.278 64.2856 130.731 62.1529 132.801C62.8639 132.605 63.5486 132.274 64.1681 131.799C66.7768 129.814 67.279 126.059 65.2833 123.462L61.4094 118.4Z" fill="#DDDAEC"/>
<path fill-rule="evenodd" clip-rule="evenodd" d="M68.8899 113.714V139.848C71.5182 139.848 73.6705 137.707 73.6705 135.085V108.944C73.6705 106.322 71.5182 104.174 68.8899 104.174H44.4521C41.8239 104.174 39.678 106.322 39.678 108.944H63.2158C65.8442 108.944 68.8966 111.092 68.8899 113.714Z" fill="#75CEF8"/>
<path fill-rule="evenodd" clip-rule="evenodd" d="M71.6618 58.928V65.7283C71.6618 66.0797 71.9487 66.3724 72.3009 66.3724H79.6902C80.0423 66.3724 80.3359 66.0795 80.3359 65.7283V58.928H87.1449C87.4971 58.928 87.7907 58.6418 87.7907 58.2903V50.9172C87.7907 50.5657 87.4973 50.2795 87.1449 50.2795H80.3359V43.4793C80.3359 43.1278 80.0425 42.8416 79.6902 42.8416H72.3009C71.9487 42.8416 71.6618 43.1278 71.6618 43.4793V50.2795H64.8464C64.4942 50.2795 64.2073 50.5657 64.2073 50.9172V58.2901C64.2073 58.6416 64.4942 58.9278 64.8464 58.9278H71.6618V58.928Z" fill="#EB5468"/>
<path fill-rule="evenodd" clip-rule="evenodd" d="M87.1452 50.2795H80.3362V43.4793C80.3362 43.1278 80.0429 42.8416 79.6905 42.8416H74.0815C76.2991 46.3295 77.5838 50.4749 77.5838 54.9128C77.5838 58.9995 76.4946 62.8324 74.5966 66.1383C74.551 66.2164 74.5054 66.2945 74.4597 66.3726H79.6905C80.0426 66.3726 80.3362 66.0797 80.3362 65.7285V58.928H87.1452C87.4974 58.928 87.791 58.6418 87.791 58.2903V50.9172C87.7908 50.5659 87.4974 50.2795 87.1452 50.2795Z" fill="#E5384F"/>
<path d="M91.8214 128.595H91.7757C90.7923 128.595 89.9951 127.797 89.9951 126.814C89.9951 125.831 90.7923 125.033 91.7757 125.033H91.8214C92.8048 125.033 93.602 125.831 93.602 126.814C93.602 127.797 92.8048 128.595 91.8214 128.595Z" fill="#2B4D66"/>
<path fill-rule="evenodd" clip-rule="evenodd" d="M111.055 150H129.034C129.428 150 129.747 149.681 129.747 149.288V119.515C129.747 119.122 129.428 118.803 129.034 118.803H111.767C111.374 118.803 111.055 119.122 111.055 119.515V150Z" fill="#FFD772"/>
<path fill-rule="evenodd" clip-rule="evenodd" d="M34.0823 127.777C39.7889 127.777 44.4587 132.436 44.4587 138.13V150H24.4116C24.0182 150 23.6992 149.681 23.6992 149.288V138.13C23.6994 132.436 28.3757 127.777 34.0823 127.777Z" fill="#A7E9A6"/>
<path fill-rule="evenodd" clip-rule="evenodd" d="M37.826 137.987V149.85H23.6995V150H39.3718H44.4589V138.202V138.13C44.4589 135.299 43.311 132.729 41.4458 130.855C39.561 128.955 36.9521 127.777 34.0825 127.777C33.1107 127.777 32.1715 127.913 31.2782 128.161C31.1805 128.193 31.0825 128.219 30.9848 128.252C31.0825 128.284 31.1805 128.323 31.2782 128.362C35.1063 129.892 37.826 133.634 37.826 137.987Z" fill="#7FDBAE"/>
<path d="M122.201 128.595H118.6C117.617 128.595 116.82 127.797 116.82 126.814C116.82 125.831 117.617 125.033 118.6 125.033H122.201C123.184 125.033 123.981 125.831 123.981 126.814C123.981 127.797 123.184 128.595 122.201 128.595Z" fill="#2B4D66"/>
<path d="M122.201 136.416H118.6C117.617 136.416 116.82 135.619 116.82 134.636C116.82 133.652 117.617 132.855 118.6 132.855H122.201C123.184 132.855 123.981 133.652 123.981 134.636C123.981 135.619 123.184 136.416 122.201 136.416Z" fill="#2B4D66"/>
<path d="M122.201 144.245H118.6C117.617 144.245 116.82 143.448 116.82 142.464C116.82 141.481 117.617 140.684 118.6 140.684H122.201C123.184 140.684 123.981 141.481 123.981 142.464C123.981 143.448 123.184 144.245 122.201 144.245Z" fill="#2B4D66"/>
<path fill-rule="evenodd" clip-rule="evenodd" d="M125.083 118.803V150H129.034C129.428 150 129.747 149.681 129.747 149.288V119.515C129.747 119.122 129.428 118.803 129.034 118.803H125.083Z" fill="#FBBA58"/>
<path fill-rule="evenodd" clip-rule="evenodd" d="M100.665 54.6069C104.148 54.6069 106.992 57.4442 106.992 60.9192V65.8259H117.075V60.9192C117.075 57.4442 114.224 54.6069 110.748 54.6069H100.665Z" fill="#FBBA58"/>
</g>
</svg>
