<svg width="100" height="100" viewBox="0 0 100 100" fill="none" xmlns="http://www.w3.org/2000/svg">
<circle cx="50" cy="50" r="50" fill="#34D399"/>
<path d="M83.2015 49.928C84.4083 50.1657 85.1942 51.3352 84.958 52.5406L84.0776 57.0241C83.8343 58.2652 82.6032 59.0612 81.3606 58.7563C80.1968 58.4714 79.491 57.2818 79.7215 56.1065L79.7458 55.9862L73.9424 56.2511C73.7678 56.2582 73.616 56.3742 73.5616 56.5417C72.9948 58.2538 72.2489 59.8857 71.3456 61.4117C71.254 61.5663 71.2683 61.7625 71.3843 61.8999L73.951 64.949C74.4606 64.4638 75.1263 64.2118 75.7991 64.2118C76.366 64.2118 76.9386 64.3907 77.4239 64.7629C78.5992 65.6619 78.8225 67.344 77.9235 68.5207L77.1791 69.4927C76.3059 70.6351 74.6782 70.9414 73.4929 70.124C72.4722 69.4211 72.1029 68.1571 72.4722 67.0591L68.7746 65.4343C68.6071 65.3613 68.4139 65.4043 68.2922 65.5388C66.5801 67.4184 64.5874 69.036 62.38 70.3273C62.2282 70.416 62.1466 70.5878 62.1753 70.761L63.1215 76.533L63.9403 76.2051C65.1156 75.7356 66.4527 76.3368 66.8721 77.5465C67.2644 78.6788 66.6488 79.9171 65.5365 80.3609L61.3521 82.0357C60.1783 82.5053 58.8413 81.904 58.4218 80.6944C58.0296 79.5621 58.6451 78.3238 59.7574 77.8786L59.8705 77.8342L56.495 73.1044C56.3933 72.9613 56.2144 72.8983 56.044 72.9427C54.027 73.4652 51.9112 73.7458 49.7296 73.7458C48.0032 73.7458 46.3197 73.5697 44.692 73.2376C44.5203 73.2032 44.3442 73.2762 44.2497 73.4237L40.8727 78.7218L40.9915 78.7647C42.091 79.1655 42.7724 80.2034 42.7724 81.3085C42.7724 81.6177 42.7194 81.9312 42.6077 82.2376C42.6077 83.8223 41.3895 84.6755 39.9007 84.1315L35.7507 82.6184C34.3621 82.113 33.6378 80.5885 34.1174 79.1956C34.6098 77.7598 36.246 77.0354 37.6718 77.5551L37.7678 77.5894L38.4549 71.3809C38.4749 71.2062 38.3833 71.0402 38.2273 70.9586C35.599 69.6015 33.2413 67.7935 31.2557 65.6362C31.1355 65.5059 30.948 65.463 30.7848 65.5302L25.72 67.6074C26.2926 68.6782 25.9705 70.0353 24.9255 70.7224C23.8347 71.4396 22.3617 71.106 21.6173 70.0353L20.3203 68.1671C19.5945 67.1235 19.7634 65.6691 20.7626 64.8818C21.8277 64.0429 23.3466 64.2605 24.1439 65.3155L27.7113 61.2843C27.8301 61.1498 27.8501 60.9551 27.7628 60.799C26.2984 58.1593 25.2963 55.2275 24.8654 52.114C24.8411 51.9393 24.7137 51.7976 24.5433 51.7589L18.843 50.4419L18.8372 51.1105C18.8315 51.779 18.5567 52.3845 18.1143 52.8211C17.6734 53.2592 17.0664 53.5283 16.3965 53.5283C15.0652 53.5283 13.9872 52.4418 14.0001 51.1105L14.0373 46.9691C14.0488 45.6148 15.1682 44.4739 16.521 44.5097C17.8337 44.5441 18.8816 45.6234 18.8745 46.9404L24.5333 45.6134C24.7051 45.5733 24.8325 45.4316 24.8554 45.257C25.2992 41.9644 26.3828 38.8738 27.9761 36.1138C28.0649 35.9592 28.0491 35.7659 27.9332 35.6285L25.2347 32.4591L25 32.7683C24.2727 33.7303 22.8842 33.8978 21.9465 33.1176C21.0676 32.3847 20.9602 31.0705 21.6502 30.1586L23.4482 27.7823C23.8662 27.2312 24.5004 26.9406 25.1431 26.9406C25.5883 26.9406 26.0378 27.0809 26.4215 27.37C27.3104 28.0414 27.5195 29.2754 26.9325 30.2002L30.706 31.8321C30.8721 31.9037 31.0639 31.8607 31.187 31.7276C32.9678 29.775 35.0536 28.1058 37.3698 26.7931C37.5215 26.7058 37.606 26.5354 37.5802 26.3622L36.7113 20.5774L35.8867 20.8952C34.7071 21.349 33.3773 20.7292 32.975 19.5152C32.5971 18.3772 33.2298 17.1475 34.3478 16.718L38.5537 15.1004C39.7347 14.6466 41.0631 15.265 41.4654 16.4804C41.8433 17.617 41.212 18.8467 40.0925 19.2776L39.9795 19.3206L43.2891 24.0933C43.3894 24.2378 43.5669 24.3037 43.7372 24.2622C45.6583 23.7912 47.6639 23.5421 49.7296 23.5421H49.7324C49.9128 23.5421 50.0746 23.4319 50.1347 23.2615L51.2313 20.1952C49.9615 19.7973 49.1155 18.5447 49.2772 17.179C49.4619 15.6315 50.9435 14.5321 52.491 14.7268L53.997 14.9157C55.5316 15.109 56.6825 16.4833 56.515 18.0222C56.3833 19.2203 55.5215 20.1537 54.4279 20.44L54.8086 23.764C54.8287 23.943 54.9618 24.089 55.1393 24.1276C57.6846 24.6873 60.0852 25.6336 62.2755 26.9005C62.4287 26.9878 62.6176 26.9749 62.7536 26.8633L67.2958 23.1771L66.6058 22.6288C65.6138 21.8415 65.4735 20.3827 66.3152 19.4193C67.1026 18.516 68.484 18.4359 69.4217 19.1817L72.9504 21.9832C73.9424 22.7691 74.0827 24.2293 73.241 25.1927C72.4536 26.0945 71.0722 26.1747 70.1346 25.4303L70.0387 25.3544L67.6065 30.6353C67.532 30.7942 67.5664 30.9818 67.6895 31.1077C69.4016 32.8614 70.8589 34.8655 72.0013 37.0586C72.0843 37.2175 72.2575 37.3077 72.435 37.2834L75.8836 36.8009C75.3768 35.3866 76.1284 33.8191 77.5742 33.3452C78.9528 32.8929 80.4387 33.6587 80.9454 35.0187L81.7399 37.1488C82.241 38.4959 81.6397 40.0376 80.3227 40.6102C79.0601 41.1585 77.6358 40.6632 76.9572 39.5437L74.0956 41.4849C73.9453 41.5865 73.878 41.7726 73.9267 41.9473C74.515 44.0802 74.83 46.3249 74.83 48.6439C74.83 49.0319 74.8214 49.417 74.8028 49.7992C74.7956 49.9753 74.8944 50.137 75.0547 50.2072L80.4201 52.5506L80.589 51.6845C80.8266 50.4777 81.9962 49.6918 83.2015 49.928Z" fill="#F79595"/>
<path d="M60.6292 39.2487C62.5864 39.2487 64.1731 37.9221 64.1731 36.2856C64.1731 34.6491 62.5864 33.3225 60.6292 33.3225C58.672 33.3225 57.0853 34.6491 57.0853 36.2856C57.0853 37.9221 58.672 39.2487 60.6292 39.2487Z" fill="#EE6161"/>
<path d="M47.8404 58.6117C49.9797 58.6117 51.7139 56.8774 51.7139 54.7381C51.7139 52.5988 49.9797 50.8645 47.8404 50.8645C45.7011 50.8645 43.9668 52.5988 43.9668 54.7381C43.9668 56.8774 45.7011 58.6117 47.8404 58.6117Z" fill="#EE6161"/>
<path d="M62.9369 55.4935C64.4686 55.4935 65.7103 54.2518 65.7103 52.7201C65.7103 51.1883 64.4686 49.9466 62.9369 49.9466C61.4052 49.9466 60.1635 51.1883 60.1635 52.7201C60.1635 54.2518 61.4052 55.4935 62.9369 55.4935Z" fill="#F9B1B1"/>
<path d="M52.694 68.9513C54.1832 68.9513 55.3904 67.7441 55.3904 66.2549C55.3904 64.7657 54.1832 63.5584 52.694 63.5584C51.2048 63.5584 49.9976 64.7657 49.9976 66.2549C49.9976 67.7441 51.2048 68.9513 52.694 68.9513Z" fill="#F9B1B1"/>
<path d="M34.4644 47.4417C34.4644 37.7921 39.0677 29.2157 46.1952 23.7889C45.363 23.9063 44.5415 24.0649 43.7372 24.2622C43.5669 24.3037 43.3894 24.2378 43.2892 24.0933L39.9795 19.3206L40.0926 19.2776C41.212 18.8467 41.8433 17.617 41.4654 16.4804C41.0631 15.265 39.7347 14.6466 38.5537 15.1004L34.3478 16.718C33.2298 17.1475 32.5971 18.3772 32.975 19.5152C33.3773 20.7292 34.7072 21.349 35.8867 20.8952L36.7113 20.5774L37.5802 26.3622C37.606 26.5354 37.5215 26.7058 37.3698 26.7931C35.0536 28.1058 32.9678 29.775 31.187 31.7276C31.0639 31.8607 30.8721 31.9037 30.706 31.8321L26.9325 30.2002C27.5195 29.2754 27.3105 28.0414 26.4215 27.37C26.0378 27.0809 25.5883 26.9406 25.1431 26.9406C24.5004 26.9406 23.8662 27.2312 23.4482 27.7823L21.6502 30.1586C20.9602 31.0705 21.0676 32.3847 21.9465 33.1176C22.8842 33.8978 24.2728 33.7303 25 32.7683L25.2347 32.4591L27.9332 35.6285C28.0491 35.7659 28.0649 35.9592 27.9761 36.1138C26.3828 38.8738 25.2992 41.9644 24.8554 45.257C24.8325 45.4316 24.7051 45.5733 24.5333 45.6134L18.8745 46.9404C18.8816 45.6234 17.8337 44.5441 16.521 44.5097C15.1682 44.4739 14.0488 45.6148 14.0373 46.9691L14.0001 51.1105C13.9872 52.4418 15.0652 53.5283 16.3965 53.5283C17.0664 53.5283 17.6734 53.2592 18.1143 52.8211C18.5567 52.3845 18.8315 51.779 18.8372 51.1105L18.843 50.4419L24.5433 51.7589C24.7137 51.7976 24.8411 51.9393 24.8654 52.114C25.2963 55.2275 26.2984 58.1593 27.7628 60.799C27.8501 60.9551 27.8301 61.1498 27.7113 61.2843L24.1439 65.3155C23.3466 64.2605 21.8277 64.0429 20.7626 64.8818C19.7634 65.6691 19.5945 67.1235 20.3203 68.1671L21.6173 70.0353C22.3617 71.106 23.8347 71.4396 24.9255 70.7224C25.9705 70.0353 26.2926 68.6782 25.72 67.6074L30.7848 65.5302C30.948 65.463 31.1355 65.5059 31.2557 65.6362C33.2413 67.7935 35.599 69.6015 38.2273 70.9586C38.3833 71.0402 38.4749 71.2062 38.4549 71.3809L37.7678 77.5894L37.6718 77.5551C36.246 77.0354 34.6098 77.7598 34.1174 79.1956C33.6378 80.5885 34.3622 82.113 35.7507 82.6184L39.9007 84.1315C41.3895 84.6755 42.6077 83.8223 42.6077 82.2376C42.7194 81.9312 42.7724 81.6177 42.7724 81.3085C42.7724 80.2034 42.091 79.1655 40.9916 78.7647L40.8727 78.7218L44.2497 73.4237C44.3442 73.2762 44.5203 73.2032 44.6921 73.2376C46.3197 73.5697 48.0032 73.7458 49.7296 73.7458C49.9327 73.7458 50.1392 73.7432 50.3411 73.7385C40.9035 68.7618 34.4644 58.8527 34.4644 47.4417Z" fill="#F37C7C"/>
<path d="M35.8219 62.6138C37.3732 62.6138 38.6308 61.3562 38.6308 59.8048C38.6308 58.2535 37.3732 56.9959 35.8219 56.9959C34.2705 56.9959 33.0129 58.2535 33.0129 59.8048C33.0129 61.3562 34.2705 62.6138 35.8219 62.6138Z" fill="#EE6161"/>
<path d="M56.6108 47.4418H55.6617C55.0686 47.4418 54.588 46.961 54.588 46.3681C54.588 45.7752 55.0686 45.2945 55.6617 45.2945H56.6108C57.2038 45.2945 57.6844 45.7752 57.6844 46.3681C57.6844 46.961 57.2038 47.4418 56.6108 47.4418Z" fill="#F9B1B1"/>
<path d="M43.9666 66.2091H42.9915C42.3984 66.2091 41.9178 65.7284 41.9178 65.1354C41.9178 64.5425 42.3984 64.0618 42.9915 64.0618H43.9666C44.5597 64.0618 45.0403 64.5425 45.0403 65.1354C45.0403 65.7284 44.5597 66.2091 43.9666 66.2091Z" fill="#F9B1B1"/>
<path d="M33.9521 50.5737H33.0127C32.4197 50.5737 31.9391 50.0929 31.9391 49.5C31.9391 48.9071 32.4197 48.4264 33.0127 48.4264H33.9521C34.5452 48.4264 35.0257 48.9071 35.0257 49.5C35.0257 50.0929 34.5452 50.5737 33.9521 50.5737Z" fill="#EE6161"/>
<path d="M53.0211 31.7896H51.7138C51.1207 31.7896 50.6401 31.3089 50.6401 30.7159C50.6401 30.123 51.1207 29.6423 51.7138 29.6423H53.0211C53.6141 29.6423 54.0947 30.123 54.0947 30.7159C54.0947 31.3089 53.6141 31.7896 53.0211 31.7896Z" fill="#F9B1B1"/>
<path d="M61.6069 62.714H60.1634C59.5703 62.714 59.0897 62.2333 59.0897 61.6403C59.0897 61.0474 59.5703 60.5667 60.1634 60.5667H61.6069C62.2 60.5667 62.6806 61.0474 62.6806 61.6403C62.6806 62.2333 62.1999 62.714 61.6069 62.714Z" fill="#EE6161"/>
<path d="M45.2312 44.0897C48.437 41.5618 49.3244 37.3422 47.2132 34.6648C45.102 31.9875 40.7918 31.8664 37.586 34.3942C34.3802 36.9221 33.4928 41.1418 35.604 43.8191C37.7152 46.4965 42.0254 46.6176 45.2312 44.0897Z" fill="#EE6161"/>
</svg>
