<svg width="100" height="100" viewBox="0 0 100 100" fill="none" xmlns="http://www.w3.org/2000/svg">
<circle cx="50" cy="50" r="50" fill="#34D399"/>
<mask id="mask0" style="mask-type:alpha" maskUnits="userSpaceOnUse" x="0" y="0" width="100" height="100">
<circle cx="50" cy="50" r="50" fill="#34D399"/>
</mask>
<g mask="url(#mask0)">
<path d="M66.4041 58.2541C64.4983 55.3097 57.0074 46.1483 40.5713 51.8464C31.3398 55.0422 28.8054 65.7461 28.3058 74.1573L29.6001 74.2351C30.0774 66.2167 32.4412 56.0393 40.9984 53.0725C56.1072 47.8336 63.0378 55.446 65.3163 58.9613C68.9574 64.5838 69.0011 83.2166 69.0011 83.4039H70.2987C70.2987 82.6189 70.253 64.1972 66.4041 58.2541Z" fill="#3E6B82"/>
<path d="M41.1116 45.0758H57.8778V63.1685H41.1116V45.0758Z" fill="#F7BE56"/>
<path d="M42.5345 100H56.0464C59.7866 87.7185 63.384 60.9291 63.384 60.9291L57.7701 54.5822L49.494 59.5079L44.8324 58.188L37.7526 56.1694C37.7526 56.1694 37.1433 59.0979 37.7526 69.9614C38.0115 74.5549 40.1515 93.6371 42.5345 100Z" fill="#E1E6E9"/>
<path d="M49.494 59.5079L44.4905 63.6646L48.2755 69.1818L45.838 100H54.8193L50.9055 68.4115L54.0491 62.8305L49.494 59.5079Z" fill="#FE7058"/>
<path d="M35.5923 31.124C36.8249 30.9248 38.1586 32.8232 38.5751 35.366C38.9916 37.9088 38.3227 40.1309 37.0902 40.3312C35.8577 40.5315 34.525 38.6268 34.1074 36.0892C33.6898 33.5516 34.3598 31.3243 35.5923 31.124Z" fill="#FCD462"/>
<path d="M63.3971 31.124C62.1645 30.9248 60.8319 32.8232 60.4143 35.366C59.9967 37.9088 60.6678 40.1309 61.9003 40.3312C63.1328 40.5315 64.4655 38.6268 64.8831 36.0892C65.3007 33.5516 64.6296 31.3243 63.3971 31.124Z" fill="#FCD462"/>
<path d="M49.345 12.2302C41.9947 12.2302 35.4912 18.7635 36.0397 33.3599C36.4233 43.5864 41.9966 51.8893 49.3448 51.8893C56.693 51.8893 62.651 43.5939 62.651 33.3599C62.651 23.1259 56.6943 12.2302 49.345 12.2302Z" fill="#FCD462"/>
<path d="M63.2488 16.5756C61.9577 15.0513 62.6511 9.95815 55.8132 9.54487C50.7521 9.24013 42.2066 6.90517 36.0067 14.9841C34.934 16.3828 34.3023 20.0345 34.1223 21.8018C33.6519 26.5523 34.4057 31.3439 36.3114 35.7207C38.2172 40.0975 38.2865 25.4472 38.3632 23.517C38.6923 15.2078 45.8957 26.8012 56.6145 19.9738L56.8958 19.9366C56.8958 19.9366 61.157 23.7024 61.157 28.8997C61.157 34.0971 62.5952 35.7175 62.5952 35.7175C62.5947 35.7173 68.262 22.4942 63.2488 16.5756Z" fill="#3A556A"/>
<path d="M62.2039 57.3371L57.8118 50.0165L49.5111 59.3792L41.1777 50.0165L36.7866 57.3371L42.8723 68.0824L49.4941 59.5079L56.118 68.0824L62.2039 57.3371Z" fill="#EBF0F3"/>
<path d="M50.4337 100C48.1071 90.6662 41.1296 69.8604 40.3211 63.5998C39.9675 60.7758 39.7235 58.4141 39.5604 56.6755C39.3698 54.6121 39.2889 53.3901 39.2889 53.1728C38.1171 55.2362 35.6777 56.784 33.5598 58.1966C30.7523 59.9158 27.7304 61.2578 24.5721 62.1871C19.1342 63.2804 15.0565 67.8104 14.5394 73.3329C14.1272 77.7623 13.701 95.1453 13.3004 99.9998L50.4337 100Z" fill="#D5D6DB"/>
<path d="M85.6992 100C85.2987 95.1455 84.8727 77.7625 84.4613 73.3331C83.9417 67.8102 79.8629 63.2809 74.4244 62.1873C71.2661 61.2578 68.2441 59.916 65.4366 58.1968C63.2923 56.7842 60.9028 55.3206 59.762 53.2551C59.762 53.2551 59.6811 54.4269 59.4905 56.5405C59.3274 58.278 59.0834 60.6407 58.7033 63.518C57.9065 69.7659 52.7931 90.6205 50.4347 100L85.6992 100Z" fill="#D5D6DB"/>
<path d="M66.8633 59.0682C67.0954 63.1161 67.2031 67.1462 67.2895 71.1963L67.2959 71.47L67.0254 71.5926C65.8804 72.1092 64.7256 72.6013 63.5676 73.084L63.8402 72.4715L65.8194 77.9044L65.9109 78.1547L65.7576 78.3836C63.3074 82.0599 60.7595 85.6627 58.2518 89.2952C55.6834 92.8883 53.1203 96.4836 50.4307 99.9938C52.7019 96.1993 55.0997 92.492 57.4946 88.7807C59.9447 85.1109 62.3564 81.4101 64.8727 77.7828L64.8109 78.2621L62.9254 72.81L62.7742 72.37L63.2004 72.1975C64.3636 71.7235 65.528 71.2536 66.703 70.8128L66.4399 71.2079C66.5245 67.1503 66.6311 63.1226 66.8633 59.0682Z" fill="#C2C3C6"/>
<path d="M33.1133 59.0499C32.8812 63.0978 32.7746 67.146 32.6871 71.2004L32.6807 71.4741L32.9512 71.5967C34.0962 72.1133 35.2521 72.6054 36.409 73.0881L36.1364 72.4756L34.1572 77.9085L34.0657 78.1588L34.219 78.3877C36.6692 82.064 39.2174 85.6668 41.7259 89.2993C44.2932 92.8924 46.8563 96.4876 49.547 99.9978C47.2758 96.2034 44.8769 92.4961 42.4831 88.7848C40.0329 85.115 37.6202 81.4142 35.1039 77.7868L35.1657 78.2662L37.0523 72.81L37.2046 72.37L36.7784 72.1975C35.6152 71.7235 34.4507 71.2536 33.2757 70.8128L33.54 71.2079C33.451 67.1503 33.3446 63.1002 33.1133 59.0499Z" fill="#C2C3C6"/>
<path d="M66.404 58.2541C65.0966 56.2835 63.4159 54.588 61.4569 53.2633C61.5037 53.7556 61.4828 54.252 61.3951 54.7387C62.9339 55.9118 64.2603 57.3401 65.3165 58.9616C68.9576 64.584 69.0013 83.2168 69.0013 83.4042H70.2989C70.2987 82.6189 70.253 64.1973 66.404 58.2541Z" fill="#3E6B82"/>
<path d="M37.4363 53.3561C30.74 57.6545 28.7436 66.7902 28.3058 74.1576L29.6001 74.2353C30.0091 67.3654 31.8084 58.903 37.6962 54.7622C37.5466 54.3074 37.4591 53.8344 37.4363 53.3561Z" fill="#3E6B82"/>
<path d="M33.7344 95.0262H32.8695C32.5112 95.0262 32.2209 94.7357 32.2209 94.3775C32.2209 94.0192 32.5114 93.7289 32.8695 93.7289H33.7344C34.1604 93.7293 34.5246 93.423 34.5974 93.0035L36.2326 83.5696C36.4613 82.4075 36.3969 81.2064 36.045 80.0755C34.7201 76.1016 30.4247 73.9543 26.4509 75.279C24.1863 76.034 22.4094 77.811 21.6543 80.0755C21.3024 81.2072 21.2389 82.409 21.4689 83.5717L23.1041 93.0024C23.1767 93.4213 23.5398 93.7274 23.9649 93.7278H24.6201C24.9784 93.7278 25.2687 94.0183 25.2687 94.3765C25.2687 94.7348 24.9782 95.0251 24.6201 95.0251H23.9649C22.9088 95.0264 22.0056 94.2658 21.827 93.2249L20.1918 83.7953C19.9243 82.4215 20.0044 81.0024 20.425 79.6674C21.9735 75.0145 27.0007 72.498 31.6536 74.0466C34.3081 74.9301 36.3909 77.0131 37.2743 79.6674C37.696 81.0014 37.777 82.4197 37.5097 83.7931L35.8745 93.2249C35.6964 94.2671 34.7919 95.0284 33.7344 95.0262Z" fill="#3E6B82"/>
<path d="M31.751 95.9135C32.6277 95.9135 33.8165 95.2041 33.8165 94.3273C33.8165 93.4506 32.6277 92.7401 31.751 92.7401C30.8742 92.7401 30.8273 93.4506 30.8273 94.3273C30.8275 95.2041 30.8753 95.9135 31.751 95.9135Z" fill="#3E6B82"/>
<path d="M25.9495 95.9135C25.0727 95.9135 23.8839 95.2041 23.8839 94.3273C23.8839 93.4506 25.0727 92.7401 25.9495 92.7401C26.8262 92.7401 26.8731 93.4506 26.8731 94.3273C26.8729 95.2041 26.8251 95.9135 25.9495 95.9135Z" fill="#3E6B82"/>
<path d="M69.7202 82.0032C67.6021 82.0032 65.8853 83.7201 65.8853 85.8382C65.8853 87.9563 67.6021 89.6731 69.7202 89.6731C71.8383 89.6731 73.5552 87.9563 73.5552 85.8382C73.5554 83.7203 71.8383 82.0032 69.7202 82.0032Z" fill="#3E6B82"/>
<path d="M69.7203 83.711C68.5436 83.711 67.5897 84.6649 67.5897 85.8416C67.5897 87.0184 68.5436 87.9722 69.7203 87.9722C70.897 87.9722 71.8509 87.0184 71.8509 85.8416C71.8509 84.6649 70.897 83.711 69.7203 83.711Z" fill="#89C5CD"/>
</g>
</svg>
