<svg width="100" height="100" viewBox="0 0 100 100" fill="none" xmlns="http://www.w3.org/2000/svg">
<circle cx="50" cy="50" r="50" fill="#34D399"/>
<path d="M50 93C73.7482 93 93 73.7482 93 50C93 26.2518 73.7482 7 50 7C26.2518 7 7 26.2518 7 50C7 73.7482 26.2518 93 50 93Z" fill="#FAC176"/>
<path d="M32.6962 58.511C29.9072 60.384 27.2875 62.4976 24.8673 64.8276C22.8832 67.1324 21.5182 69.9041 20.9009 72.8819C15.7322 66.3759 12.9226 58.3093 12.931 50C12.931 49.8072 12.931 49.6145 12.9459 49.4217C13.0645 53.3066 15.6148 57.4138 21.9017 57.4138C25.519 57.5576 29.124 57.924 32.6962 58.511Z" fill="#802D40"/>
<path d="M85.7054 40.0803C83.2574 34.4277 77.6899 30.7654 71.53 30.7558C65.3701 30.7461 59.7911 34.3909 57.3254 40.0359C55.9876 43.0254 55.6044 46.3547 56.2281 49.57C53.8492 48.5271 51.1978 48.2775 48.6661 48.8583C47.7834 49.1138 47.0144 49.663 46.4864 50.4152C46.2188 50.178 45.9311 49.9647 45.6264 49.7776C44.4748 49.0294 43.1434 48.6043 41.7712 48.5469C41.5498 48.5219 41.3268 48.512 41.104 48.5172H23.385C21.9023 48.5172 23.385 42.5862 17.454 42.5862C14.9481 42.5862 13.243 45.2107 12.9761 48.2503C13.8826 28.7909 29.7089 13.3599 49.185 12.9459C49.4519 12.931 49.7337 12.931 50.0006 12.931C52.0068 12.9301 54.0099 13.0888 55.9909 13.4055C70.2477 15.7467 81.8452 26.1578 85.7054 40.0803Z" fill="#802D40"/>
<path d="M64.9966 83.8751C67.1739 81.6976 69.1061 79.2881 70.7586 76.6897C71.7743 74.5975 72.4644 72.3624 72.8048 70.0617V70.0469C72.9234 69.4093 73.0272 68.831 73.131 68.2972V68.2824C73.2578 67.1694 73.7356 66.1255 74.4951 65.3021C74.7096 65.1121 74.949 64.9525 75.2069 64.8276C78.9582 62.9445 83.7475 59.979 85.5862 55.931C86.386 53.3855 86.8691 50.751 87.0244 48.0872C87.0541 48.7248 87.0689 49.3624 87.0689 50C87.0686 64.6663 78.4129 77.9505 64.9966 83.8751Z" fill="#802D40"/>
<path d="M51.4828 40.8959C51.4828 44.9734 48.4877 47.8945 45.6259 49.7776C44.0108 50.8213 42.279 51.6723 40.4659 52.3131C40.3134 52.3655 40.1527 52.3906 39.9915 52.3872C39.354 52.3889 38.7868 51.9829 38.5828 51.379C38.3316 50.6018 38.7462 49.7661 39.517 49.4959C39.5466 49.481 40.4956 49.1548 41.7708 48.5469C44.4249 47.2421 48.5173 44.6324 48.5173 40.8959C48.5173 38.0193 47.2718 36.9072 45.5518 35.3652C42.6224 33.1929 40.957 29.7123 41.1035 26.0683C40.9822 20.4856 44.1447 15.3502 49.1846 12.9459C49.4515 12.931 49.7332 12.931 50.0001 12.931C52.0063 12.9301 54.0094 13.0888 55.9904 13.4055L50.5487 15.5852C46.4921 17.4753 43.9459 21.5946 44.069 26.0683C43.9214 28.8761 45.2332 31.5613 47.5387 33.1707C50.0433 34.9409 51.5179 37.829 51.4828 40.8959Z" fill="#FB7B76"/>
<path d="M87.0244 48.0576V48.0872C86.8691 50.751 86.386 53.3855 85.5861 55.931C83.7475 59.979 78.9582 62.9445 75.2068 64.8276C74.949 64.9525 74.7095 65.1121 74.4951 65.3021C73.7356 66.1255 73.2578 67.1694 73.131 68.2824V68.2972C73.0272 68.831 72.9234 69.4093 72.8048 70.0469V70.0617C72.4643 72.3624 71.7743 74.5975 70.7586 76.6897C69.0974 79.2939 67.1585 81.7101 64.9758 83.8959C60.2635 85.9978 55.1598 87.0792 49.9999 87.069C38.6372 87.0727 27.9039 81.8509 20.8934 72.9086C21.5088 69.9207 22.8766 67.1393 24.8672 64.8276C27.2874 62.4976 29.9071 60.384 32.6961 58.511C29.1239 57.924 25.5189 57.5576 21.9017 57.4138C15.6148 57.4138 13.0644 53.3065 12.9458 49.4217C12.9458 49.0362 12.9606 48.6359 12.9755 48.2503C13.2424 45.2107 14.9475 42.5862 17.4534 42.5862C23.3844 42.5862 21.9017 48.5172 23.3844 48.5172H41.1034C43.0717 48.4551 44.9919 49.1322 46.4858 50.4152C47.0138 49.663 47.7827 49.1138 48.6655 48.8583C51.1972 48.2775 53.8486 48.5271 56.2275 49.57C55.6038 46.3547 55.9869 43.0254 57.3248 40.0359C59.7905 34.391 65.3694 30.7461 71.5293 30.7558C77.6893 30.7654 83.2568 34.4277 85.7048 40.0803C85.7106 40.1065 85.7206 40.1315 85.7344 40.1545C86.4529 42.7336 86.8855 45.3839 87.0244 48.0576Z" fill="#FDD7AD"/>
<path d="M74.4953 65.3021C73.7357 66.1255 73.258 67.1694 73.1311 68.2824C71.9657 66.7019 70.4065 65.4545 68.6087 64.6645L56.7466 58.7334C56.2335 58.5198 55.883 58.0371 55.8386 57.4831C55.7942 56.9291 56.0634 56.3967 56.5359 56.1041C57.0084 55.8114 57.6049 55.8076 58.0811 56.0941L69.9432 62.0252C71.646 62.8335 73.1883 63.9438 74.4953 65.3021Z" fill="#F9C795"/>
<path d="M75.8223 55.931C74.642 55.933 73.5097 55.4645 72.6759 54.6292C72.1139 54.0474 72.122 53.1226 72.6939 52.5506C73.2659 51.9787 74.1907 51.9706 74.7725 52.5326C75.3515 53.1119 76.2905 53.1123 76.8699 52.5333C77.4492 51.9543 77.4496 51.0153 76.8706 50.4359C76.4852 50.0637 76.3306 49.5124 76.4663 48.9939C76.602 48.4755 77.0068 48.0707 77.5252 47.935C78.0436 47.7993 78.5949 47.9539 78.9672 48.3393C80.238 49.6116 80.6177 51.5239 79.9295 53.1852C79.2413 54.8465 77.6205 55.9301 75.8223 55.931Z" fill="#F9C795"/>
<path d="M62.2757 51.029C61.9525 50.8051 54.3222 45.5621 48.2266 47.4452C46.1963 48.0493 44.669 49.7302 44.2617 51.809C43.6538 54.4779 44.4811 57.7904 46.597 61.4943C46.1329 62.7784 45.6421 63.8831 45.5146 64.1381C44.2172 66.6069 40.2138 69.4241 35.9775 70.8342C35.4743 71.0019 35.0987 71.4253 34.9923 71.945C34.8858 72.4646 35.0647 73.0016 35.4616 73.3536C35.8584 73.7056 36.4129 73.8191 36.9161 73.6515C41.9575 71.97 46.4695 68.702 48.1524 65.4963C48.2384 65.3258 48.3897 64.9936 48.5765 64.5592C51.0025 67.8476 53.7481 70.8878 56.7732 73.6352C57.3757 74.1746 58.2993 74.1318 58.8493 73.5389C59.3993 72.9461 59.3728 72.0218 58.7898 71.4614C49.0732 62.4477 46.4087 55.7442 47.1531 52.4717C47.3305 51.4257 48.091 50.5735 49.1103 50.2787C53.8136 48.8256 60.5275 53.4178 60.5898 53.4637C61.2621 53.9313 62.1862 53.7653 62.6538 53.093C63.1214 52.4207 62.9555 51.4966 62.2831 51.029H62.2757Z" fill="#F9C795"/>
</svg>
