<svg width="150" height="150" viewBox="0 0 150 150" fill="none" xmlns="http://www.w3.org/2000/svg">
<g clip-path="url(#clip0)">
<path d="M75.0007 149.999C116.422 149.999 150 116.421 150 74.9997C150 33.5785 116.422 0 75.0007 0C33.5795 0 0.000976562 33.5785 0.000976562 74.9997C0.000976562 116.421 33.5795 149.999 75.0007 149.999Z" fill="#34D399"/>
<path d="M37.4921 103.49C42.6203 103.49 47.7487 103.49 52.8765 103.49L52.9609 104.541L45.4421 115.939L37.3665 104.428L37.4924 103.49H37.4921Z" fill="#B3B3B3"/>
<path d="M37.5912 100.631L37.4582 107.06L26.55 113.025V132.244C27.6258 133.156 28.7262 134.039 29.8521 134.888H44.9122H63.2722V113.024L53.1349 106.724L52.5786 100.296L37.5912 100.631Z" fill="#F0BA7D"/>
<path d="M32.5509 81.8821C32.5509 81.8821 31.9254 80.5072 30.2461 81.1889C28.5671 81.8698 30.3214 88.6605 30.963 89.6074C31.6046 90.5548 32.6376 89.9525 33.0132 89.9156C33.5478 93.9638 33.5956 96.754 35.2163 98.4609C36.7509 100.078 40.2659 103.371 42.1163 104.52C43.3696 104.784 44.3057 104.94 45.1854 104.986C46.0652 104.94 47.0007 104.784 48.2546 104.52C50.1059 103.371 53.62 100.078 55.1555 98.4609C56.7762 96.754 56.823 93.9638 57.3577 89.9156C57.7342 89.9525 58.7663 90.5542 59.4079 89.6074C60.0498 88.6605 61.8056 81.8698 60.1257 81.1889C58.4467 80.5081 57.8203 81.8821 57.8203 81.8821C57.8203 81.8821 59.4809 76.5498 56.5295 71.3006C54.5077 67.7027 49.8961 65.8371 45.1854 65.7C40.4754 65.8368 35.8632 67.7027 33.8414 71.3006C30.8909 76.5498 32.5509 81.8821 32.5509 81.8821Z" fill="#FED298"/>
<path d="M32.109 108.952L34.7211 107.924L36.8258 106.032L44.2582 111.669H46.1094L53.545 106.025L58.2618 108.953L66.4573 122.884L61.6766 148.82C46.8606 146.164 33.5548 139.156 23.1269 129.166L21.3972 123.996L32.109 108.952Z" fill="#15BDB2"/>
<path d="M55.8774 107.191L52.8765 103.49L46.1101 111.669L51.9179 118.122L55.8771 107.191V107.191H55.8774Z" fill="#34D399"/>
<path d="M34.488 107.126L37.4927 103.491L44.2591 111.67L38.2205 118.056L34.488 107.126Z" fill="#34D399"/>
<path d="M34.488 107.125L14.5995 113.594C13.7904 113.856 13.2823 114.544 13.118 115.378L12.8107 116.935C20.1557 127.806 30.276 136.645 42.155 142.44L34.4889 107.126H34.488V107.125Z" fill="white"/>
<path d="M34.4879 107.125L32.2095 107.825L26.1741 118.123L33.7924 118.361L29.1149 121.024L37.7947 140.134C39.2185 140.95 40.6725 141.717 42.1535 142.441L34.4874 107.126L34.4879 107.125Z" fill="#EEF3F7"/>
<path d="M55.8773 107.191L75.7729 113.593C76.5829 113.854 77.09 114.544 77.2535 115.378L83.9235 149.469C80.9974 149.816 78.0202 150 75.0003 150C72.7409 150 70.5056 149.894 68.2972 149.699L66.8663 144.845C66.8347 144.736 66.7289 144.668 66.6158 144.682C66.5027 144.696 66.4175 144.786 66.4113 144.9L66.2391 149.488C59.77 148.735 53.5512 147.163 47.6924 144.871L55.8779 107.191L55.8773 107.191Z" fill="#EEF3F7"/>
<path d="M55.8774 107.191L57.1424 107.576L64.1916 118.188L56.5732 118.428L61.2507 121.09L50.0374 145.739C49.2496 145.461 48.4667 145.174 47.6921 144.871L55.8777 107.191V107.191H55.8774Z" fill="white"/>
<path d="M56.3715 83.47L57.5419 83.4293L57.9184 82.0945L59.0205 80.9941C59.7489 75.5112 59.9642 66.9791 54.522 67.2249C54.522 67.2249 54.031 61.0028 44.2154 62.2227C34.3992 63.4423 29.9633 69.7796 30.4924 75.0668C31.0209 80.354 30.8077 80.9938 30.8077 80.9938L31.9098 82.0951L32.0765 83.6144L33.0395 83.5529C33.0395 83.5529 33.3407 81.5197 33.6436 80.6253C33.9456 79.7314 33.8519 77.9212 33.8519 77.9212C33.8519 77.9212 45.4461 78.6597 48.5794 74.6745C50.5145 72.213 54.9591 67.9482 55.183 73.855C55.2492 75.6064 54.5982 78.2314 55.8448 80.1419C57.0914 82.0529 56.3733 83.4717 56.3733 83.4717L56.3715 83.47Z" fill="#666666"/>
<path d="M47.6909 144.87L48.3196 141.978L46.1901 113.543L47.3502 113.048L46.1098 111.669H44.2585L42.9862 113.014L44.1803 113.542L42.1031 142.208L42.1538 142.44C43.9606 143.321 45.8066 144.134 47.6906 144.871V144.87H47.6909V144.87Z" fill="#0F7986"/>
<path d="M64.676 137.91C62.5218 137.538 61.0772 135.491 61.4493 133.336C61.8213 131.183 63.8692 129.737 66.0222 130.109C68.177 130.481 69.6216 132.529 69.2496 134.683C68.8781 136.837 66.8302 138.282 64.676 137.91Z" fill="#FEFEFE"/>
<path d="M64.7154 137.683C62.6868 137.333 61.3266 135.405 61.6761 133.376C62.0265 131.347 63.9554 129.986 65.9833 130.336C68.0118 130.687 69.3721 132.616 69.0226 134.644C68.6722 136.673 66.7442 138.033 64.7154 137.683Z" fill="#0F7986"/>
<path d="M64.9981 136.042C63.876 135.848 63.1231 134.781 63.3167 133.659C63.5113 132.537 64.5786 131.784 65.6997 131.978C66.8224 132.173 67.5753 133.238 67.382 134.361C67.1883 135.483 66.1207 136.236 64.9981 136.042Z" fill="#EBECEC"/>
<path d="M65.241 132.199L66.1477 132.355L66.6349 129.532L65.7288 129.376L65.241 132.199Z" fill="#FEFEFE"/>
<path d="M35.2705 138.618L36.5868 138.356C37.3084 138.213 37.9064 137.788 38.2866 137.217C38.6669 136.648 38.833 135.933 38.6892 135.212L36.6917 125.149C35.9379 121.352 32.9678 119.416 29.5738 118.986C28.273 118.822 26.9095 118.882 25.5885 119.144C24.2669 119.405 22.9849 119.87 21.8461 120.519C20.3177 121.39 19.0459 122.587 18.276 124.065C18.4459 124.261 18.6197 124.453 18.791 124.646C19.4772 123.175 20.703 121.987 22.1968 121.137C23.2688 120.526 24.4784 120.088 25.7271 119.84C26.9751 119.593 28.2607 119.537 29.4856 119.692C32.5925 120.085 35.3089 121.845 35.9918 125.288L37.9893 135.351C38.0945 135.88 37.9723 136.404 37.6934 136.822C37.4136 137.239 36.9756 137.552 36.4462 137.656L34.7479 137.993L34.8156 138.334C34.9661 138.429 35.1182 138.522 35.2691 138.618H35.2705Z" fill="#34D399"/>
<path d="M37.2302 126.64L36.9252 125.103C36.1482 121.189 33.0923 119.193 29.6024 118.751C28.2767 118.583 26.8881 118.644 25.5427 118.911C24.1963 119.178 22.8908 119.652 21.7303 120.313C20.1911 121.19 18.9047 122.39 18.1093 123.868C18.3914 124.196 18.6779 124.52 18.9653 124.842C19.6216 123.371 20.8321 122.186 22.3136 121.342C23.3642 120.744 24.549 120.315 25.7733 120.072C26.9968 119.829 28.2568 119.775 29.4571 119.927C32.4671 120.306 35.0991 122.008 35.7592 125.334L36.0641 126.871L37.2302 126.64Z" fill="#4D4D4D"/>
<path d="M35.6092 138.703L35.4562 138.734C34.8437 138.353 34.2381 137.964 33.6372 137.566C33.9715 137.525 34.2929 137.656 34.5047 137.894L35.4123 137.713L35.6083 138.703H35.6092Z" fill="#076673"/>
<path d="M26.095 118.82L25.7484 117.075L25.0599 117.212L24.3723 117.349L24.7227 119.111C24.9846 119.035 25.2506 118.97 25.519 118.917C25.7097 118.879 25.9016 118.847 26.0953 118.821V118.82H26.095Z" fill="#666666"/>
<path d="M64.8884 136.023C63.8273 135.839 63.1148 134.83 63.2985 133.769C63.4816 132.708 64.4903 131.996 65.5517 132.179C66.6129 132.363 67.3254 133.372 67.1417 134.433C66.958 135.494 65.949 136.207 64.8879 136.023H64.8884Z" fill="#FEFEFE"/>
<path d="M34.4974 107.649C34.4666 107.649 23.7466 107.738 25.558 117.117L24.5614 117.308C22.5205 106.734 34.4523 106.637 34.486 106.637L34.4974 107.649Z" fill="#4D4D4D"/>
<path d="M55.8887 106.684C57.6378 106.731 61.0189 107.208 63.6208 110.373C66.1675 113.47 67.9526 119.16 66.617 129.591L65.6118 129.464C66.9044 119.369 65.2347 113.933 62.8377 111.017C60.4963 108.168 57.4429 107.738 55.8641 107.696L55.8879 106.684H55.8887Z" fill="#4D4D4D"/>
<path d="M105.164 100.863L103.661 108.413L98.6273 110.145L100.864 145.421C108.255 142.705 115.099 138.859 121.189 134.092L121.653 109.257L118.438 108.246L116.8 100.545L105.162 100.864L105.164 100.863Z" fill="#F0BA7D"/>
<path d="M97.4856 123.255C105.866 127.319 114.486 128.171 123.561 123.485L123.484 132.216C115.897 138.652 107.013 143.609 97.2797 146.635L97.4856 123.256V123.255Z" fill="#34D399"/>
<path d="M120.057 108.82L134.655 112.802C136.105 113.249 137.494 113.854 138.665 114.655C132.01 125.316 122.752 134.182 111.782 140.37L120.057 108.819H120.057V108.82Z" fill="#EEF3F7"/>
<path d="M119.918 108.717L121.842 109.492L128.403 119.344L120.712 119.22L125.479 121.772L114.54 138.737C113.625 139.305 112.697 139.855 111.758 140.384L119.918 108.717H119.918V108.717Z" fill="white"/>
<path d="M102.979 108.669L88.3116 112.393C84.5054 113.495 81.0858 115.673 80.9062 119.693L79.5615 149.857C83.3692 149.629 87.1002 149.117 90.7342 148.341L91.4273 139.018L92.5515 147.928C98.6552 146.464 104.469 144.255 109.89 141.401L102.979 108.669Z" fill="white"/>
<path d="M103.119 108.568L100.826 109.447L94.4479 119.044L102.141 119.055L97.3289 121.522L108.943 141.895C109.265 141.731 109.584 141.562 109.904 141.393L103.119 108.568Z" fill="#EEF3F7"/>
<path d="M95.2363 82.7584C94.9913 85.2319 95.4868 90.7259 98.4882 90.5168C98.4882 90.5168 102.808 103.107 111.125 104.533C118.305 103.22 122.673 91.8178 123.004 90.7327C123.993 91.0708 126.761 86.4656 124.64 82.6986C124.031 81.6181 122.308 82.4932 122.308 82.4932L122.176 79.3479C110.829 80.4501 103.754 69.4755 103.754 69.4755C99.4284 74.18 98.388 76.8659 97.9254 82.7174C97.9254 82.7174 97.113 82.2123 96.2116 82.1935C95.9403 82.188 95.591 82.4241 95.2363 82.7584Z" fill="#FED298"/>
<path d="M103.661 108.413L105.132 101.031C100.874 96.8394 98.6535 90.5166 98.6535 90.5166C95.7525 90.84 94.5873 82.8449 96.5394 82.5654C97.4324 82.4379 98.0294 82.7174 98.0294 82.7174C98.4689 76.539 99.6592 74.6593 103.754 69.4755C103.754 69.4755 110.907 81.5098 122.244 80.4077L122.406 83.0022C122.943 82.4751 123.922 81.9803 124.739 83.3227C126.066 85.5074 124.329 90.4723 122.721 90.7744C122.493 91.5399 120.703 97.1877 116.911 101.058L118.44 108.244C122.694 109.622 126.796 110.687 130.914 111.781C128.822 99.0311 127.624 85.2329 125.126 73.4543C122.729 62.1528 109.627 58.9914 102.093 64.0108C102.093 64.0108 95.596 66.6288 94.4095 75.3109C93.2239 83.993 93.678 84.8297 93.678 84.8297L91.5847 111.563C95.4663 110.577 99.961 109.686 103.662 108.413L103.661 108.413Z" fill="#666666"/>
<path d="M101.239 140.584L102.941 140.247C103.663 140.103 104.262 139.677 104.643 139.106C105.025 138.536 105.19 137.82 105.046 137.097L103.046 127.018C102.291 123.214 99.3161 121.274 95.9156 120.845C94.6125 120.68 93.2466 120.74 91.9236 121.003C90.5997 121.264 89.3153 121.73 88.1759 122.38C85.2052 124.071 83.2031 126.997 83.9587 130.806L85.9599 140.886C86.1029 141.609 86.53 142.207 87.1002 142.589H87.101C87.672 142.971 88.3866 143.135 89.109 142.992L90.8088 142.654L90.6697 141.955L88.969 142.293C88.4396 142.397 87.914 142.276 87.496 141.997C87.0773 141.716 86.7653 141.277 86.6592 140.748L84.6588 130.668C83.9736 127.212 85.8067 124.548 88.5257 123.001C89.5995 122.388 90.8112 121.949 92.0622 121.701C93.3117 121.454 94.6004 121.397 95.8268 121.552C98.939 121.946 101.66 123.708 102.345 127.158L104.346 137.238C104.451 137.767 104.329 138.292 104.05 138.711C103.769 139.13 103.33 139.442 102.801 139.547L101.099 139.884L101.238 140.585L101.239 140.584Z" fill="#34D399"/>
<path d="M103.586 128.512L103.281 126.972C102.502 123.051 99.4406 121.053 95.9449 120.611C94.6163 120.443 93.2253 120.502 91.8774 120.77C90.5294 121.037 89.221 121.512 88.0591 122.174C85.0037 123.913 82.9456 126.926 83.7258 130.854L84.0316 132.394L85.1988 132.161L84.893 130.622C84.2306 127.283 86.0089 124.706 88.6424 123.206C89.6953 122.608 90.8824 122.177 92.1082 121.934C93.3346 121.691 94.5964 121.635 95.799 121.787C98.8146 122.169 101.45 123.872 102.112 127.204L102.418 128.744L103.585 128.512L103.586 128.512Z" fill="#4D4D4D"/>
<path d="M89.4613 143.076L90.3718 142.895C90.6 143.152 90.9528 143.284 91.3131 143.212C91.8548 143.105 92.207 142.578 92.0995 142.038C91.9919 141.497 91.4661 141.145 90.9252 141.253C90.564 141.324 90.2875 141.581 90.1744 141.905L89.2644 142.086L89.4619 143.077L89.4613 143.076Z" fill="#076673"/>
<path d="M101.962 140.595L101.053 140.776C100.94 141.1 100.663 141.356 100.302 141.428C99.7617 141.535 99.2352 141.184 99.1277 140.642C99.0211 140.101 99.3721 139.574 99.9132 139.467C100.274 139.395 100.628 139.528 100.855 139.784L101.764 139.603L101.961 140.595H101.962Z" fill="#076673"/>
<path d="M92.4319 120.679L92.0836 118.93L91.3945 119.067L90.7061 119.204L91.0565 120.969C91.3192 120.892 91.585 120.828 91.8542 120.775C92.0464 120.737 92.2383 120.705 92.4319 120.679V120.679Z" fill="#666666"/>
<path d="M90.9419 142.102C91.1063 142.07 91.2123 141.911 91.1801 141.747C91.1479 141.583 90.9888 141.477 90.825 141.509C90.6606 141.541 90.5546 141.701 90.5868 141.864C90.619 142.028 90.7781 142.135 90.9419 142.102V142.102Z" fill="#0F7986"/>
<path d="M99.9383 140.314C100.102 140.282 100.208 140.122 100.177 139.959C100.143 139.796 99.9843 139.69 99.82 139.721C99.6562 139.754 99.5505 139.913 99.5827 140.078C99.6146 140.241 99.7737 140.347 99.9383 140.314Z" fill="#0F7986"/>
<path d="M100.848 109.488C100.816 109.488 90.0797 109.577 91.8932 118.972L90.8951 119.163C88.8504 108.573 100.803 108.475 100.837 108.473L100.848 109.488Z" fill="#4D4D4D"/>
<path d="M122.276 108.522C124.028 108.569 127.416 109.046 130.021 112.217C131.672 114.225 133.003 117.32 133.375 122.085C133.064 122.47 132.75 122.851 132.432 123.23C132.206 118.099 130.896 114.879 129.238 112.862C126.892 110.008 123.834 109.579 122.253 109.536L122.276 108.522Z" fill="#4D4D4D"/>
<path d="M41.7999 15.5759H79.5647C81.89 15.5759 83.7929 17.4785 83.7929 19.8041V44.6575C83.7929 46.9828 81.8903 48.8856 79.5647 48.8856H49.0655C47.2219 52.6327 38.3033 54.3714 38.3033 54.3714C38.3033 54.3714 41.0897 52.1569 42.6606 48.8856H41.7999C39.4746 48.8856 37.5718 46.9831 37.5718 44.6575V19.8041C37.5718 17.4785 39.4746 15.5759 41.7999 15.5759Z" fill="#FF5B62"/>
<path d="M89.8602 19.1438C102.408 19.1438 112.581 27.2394 112.581 37.2255C112.581 42.9607 109.225 48.0707 103.991 51.3835C105.219 55.5771 109.015 58.5932 109.015 58.5932C109.015 58.5932 101.314 57.0909 98.7451 53.8711C96.0155 54.7958 93.0123 55.3073 89.8593 55.3073C77.3112 55.3073 67.1384 47.2117 67.1384 37.2255C67.1384 27.2394 77.3112 19.1438 89.8593 19.1438H89.8602Z" fill="#FFD15C"/>
<path d="M41.7164 21.5669H68.1853V23.2005H41.7164V21.5669ZM41.7164 31.8609H61.0779V33.4945H41.7164V31.8609ZM41.7164 26.7138H68.1853V28.3474H41.7164V26.7138Z" fill="#FEFEFE"/>
<path d="M77.5802 31.4874H104.049V33.121H77.5802V31.4874ZM77.5802 41.7821H96.9416V43.4156H77.5802V41.7821ZM77.5802 36.6346H104.049V38.2682H77.5802V36.6346Z" fill="#FEFEFE"/>
</g>
<defs>
<clipPath id="clip0">
<rect width="150" height="150" fill="white"/>
</clipPath>
</defs>
</svg>
