<svg width="150" height="150" viewBox="0 0 150 150" fill="none" xmlns="http://www.w3.org/2000/svg">
<path d="M74.9997 149.999C116.421 149.999 149.999 116.421 149.999 74.9997C149.999 33.5785 116.421 0 74.9997 0C33.5785 0 0 33.5785 0 74.9997C0 116.421 33.5785 149.999 74.9997 149.999Z" fill="#34D399"/>
<path d="M95.3125 28.125C95.7269 28.125 96.1243 28.2896 96.4174 28.5826C96.7104 28.8757 96.875 29.2731 96.875 29.6875V43.75H93.75V29.6875C93.75 29.2731 93.9146 28.8757 94.2076 28.5826C94.5007 28.2896 94.8981 28.125 95.3125 28.125Z" fill="#C33D1B"/>
<path d="M65.625 70.3125C65.2106 70.3125 64.8132 70.1479 64.5201 69.8549C64.2271 69.5618 64.0625 69.1644 64.0625 68.75V64.0625H48.4375V68.75C48.4375 69.1644 48.2729 69.5618 47.9799 69.8549C47.6868 70.1479 47.2894 70.3125 46.875 70.3125C44.3886 70.3125 42.004 71.3002 40.2459 73.0584C38.4877 74.8165 37.5 77.2011 37.5 79.6875V117.188C37.5 118.016 37.8292 118.811 38.4153 119.397C39.0013 119.983 39.7962 120.312 40.625 120.312H71.875C72.7038 120.312 73.4987 119.983 74.0847 119.397C74.6708 118.811 75 118.016 75 117.188V79.6875C75 77.2011 74.0123 74.8165 72.2541 73.0584C70.496 71.3002 68.1114 70.3125 65.625 70.3125Z" fill="#57A4FF"/>
<path d="M65.625 70.3125C65.2106 70.3125 64.8132 70.1479 64.5201 69.8549C64.2271 69.5618 64.0625 69.1644 64.0625 68.75V64.0625H60.9375V68.75C60.9375 69.1644 61.1021 69.5618 61.3951 69.8549C61.6882 70.1479 62.0856 70.3125 62.5 70.3125C64.9864 70.3125 67.371 71.3002 69.1291 73.0584C70.8873 74.8165 71.875 77.2011 71.875 79.6875V117.188C71.875 118.016 71.5458 118.811 70.9597 119.397C70.3737 119.983 69.5788 120.312 68.75 120.312H71.875C72.7038 120.312 73.4987 119.983 74.0847 119.397C74.6708 118.811 75 118.016 75 117.188V79.6875C75 77.2011 74.0123 74.8165 72.2541 73.0584C70.496 71.3002 68.1114 70.3125 65.625 70.3125Z" fill="#2488FF"/>
<path d="M67.1875 64.0625V57.8125C67.1875 56.9837 66.8583 56.1888 66.2722 55.6028C65.6862 55.0167 64.8913 54.6875 64.0625 54.6875H48.4375C47.6087 54.6875 46.8138 55.0167 46.2278 55.6028C45.6417 56.1888 45.3125 56.9837 45.3125 57.8125V64.0625H67.1875Z" fill="#006DF0"/>
<path d="M106.25 51.5625V98.4375H84.375V51.5625C84.3775 50.7345 84.7075 49.941 85.293 49.3555C85.8785 48.77 86.672 48.44 87.5 48.4375H103.125C103.953 48.44 104.746 48.77 105.332 49.3555C105.917 49.941 106.248 50.7345 106.25 51.5625Z" fill="#FFB655"/>
<path d="M103.125 48.4375H100C100.828 48.44 101.621 48.77 102.207 49.3555C102.792 49.941 103.123 50.7345 103.125 51.5625V98.4375H106.25V51.5625C106.248 50.7345 105.917 49.941 105.332 49.3555C104.746 48.77 103.953 48.44 103.125 48.4375Z" fill="#FFA733"/>
<path d="M100 45.3125C100 44.4837 99.6708 43.6888 99.0847 43.1028C98.4987 42.5167 97.7038 42.1875 96.875 42.1875H93.75C92.9212 42.1875 92.1263 42.5167 91.5403 43.1028C90.9542 43.6888 90.625 44.4837 90.625 45.3125V48.4375H100V45.3125Z" fill="#FF5023"/>
<path d="M90.625 104.688H100V114.062H90.625V104.688Z" fill="#FF9811"/>
<path d="M87.5 114.062C86.6712 114.062 85.8763 114.392 85.2903 114.978C84.7042 115.564 84.375 116.359 84.375 117.188C84.375 118.016 84.7042 118.811 85.2903 119.397C85.8763 119.983 86.6712 120.312 87.5 120.312H103.125C103.954 120.312 104.749 119.983 105.335 119.397C105.921 118.811 106.25 118.016 106.25 117.188C106.25 116.359 105.921 115.564 105.335 114.978C104.749 114.392 103.954 114.062 103.125 114.062H87.5Z" fill="#FF5023"/>
<path d="M37.5 82.8125H75V110.938H37.5V82.8125Z" fill="#FFCD00"/>
<path d="M71.875 82.8125H75V110.938H71.875V82.8125Z" fill="#EBBF00"/>
<path d="M53.125 104.688H59.375V100H64.0625V93.75H59.375V89.0625H53.125V93.75H48.4375V100H53.125V104.688Z" fill="#D80027"/>
<path d="M81.25 101.562C81.25 102.391 81.5792 103.186 82.1653 103.772C82.7513 104.358 83.5462 104.688 84.375 104.688H106.25C107.079 104.688 107.874 104.358 108.46 103.772C109.046 103.186 109.375 102.391 109.375 101.562C109.375 100.734 109.046 99.9388 108.46 99.3528C107.874 98.7667 107.079 98.4375 106.25 98.4375H84.375C83.5462 98.4375 82.7513 98.7667 82.1653 99.3528C81.5792 99.9388 81.25 100.734 81.25 101.562Z" fill="#FF5023"/>
<path d="M106.25 98.4375H103.125C103.954 98.4375 104.749 98.7667 105.335 99.3528C105.921 99.9388 106.25 100.734 106.25 101.562C106.25 102.391 105.921 103.186 105.335 103.772C104.749 104.358 103.954 104.688 103.125 104.688H106.25C107.079 104.688 107.874 104.358 108.46 103.772C109.046 103.186 109.375 102.391 109.375 101.562C109.375 100.734 109.046 99.9388 108.46 99.3528C107.874 98.7667 107.079 98.4375 106.25 98.4375Z" fill="#DF461F"/>
<path d="M100 53.125H106.25V56.25H100C99.5856 56.25 99.1882 56.0854 98.8951 55.7924C98.6021 55.4993 98.4375 55.1019 98.4375 54.6875C98.4375 54.2731 98.6021 53.8757 98.8951 53.5826C99.1882 53.2896 99.5856 53.125 100 53.125Z" fill="#EE8700"/>
<path d="M96.875 59.375H106.25V62.5H96.875C96.4606 62.5 96.0632 62.3354 95.7701 62.0424C95.4771 61.7493 95.3125 61.3519 95.3125 60.9375C95.3125 60.5231 95.4771 60.1257 95.7701 59.8326C96.0632 59.5396 96.4606 59.375 96.875 59.375Z" fill="#EE8700"/>
<path d="M100 65.625H106.25V68.75H100C99.5856 68.75 99.1882 68.5854 98.8951 68.2924C98.6021 67.9993 98.4375 67.6019 98.4375 67.1875C98.4375 66.7731 98.6021 66.3757 98.8951 66.0826C99.1882 65.7896 99.5856 65.625 100 65.625Z" fill="#EE8700"/>
<path d="M96.875 71.875H106.25V75H96.875C96.4606 75 96.0632 74.8354 95.7701 74.5424C95.4771 74.2493 95.3125 73.8519 95.3125 73.4375C95.3125 73.0231 95.4771 72.6257 95.7701 72.3326C96.0632 72.0396 96.4606 71.875 96.875 71.875Z" fill="#EE8700"/>
<path d="M100 78.125H106.25V81.25H100C99.5856 81.25 99.1882 81.0854 98.8951 80.7924C98.6021 80.4993 98.4375 80.1019 98.4375 79.6875C98.4375 79.2731 98.6021 78.8757 98.8951 78.5826C99.1882 78.2896 99.5856 78.125 100 78.125Z" fill="#EE8700"/>
<path d="M96.875 84.375H106.25V87.5H96.875C96.4606 87.5 96.0632 87.3354 95.7701 87.0424C95.4771 86.7493 95.3125 86.3519 95.3125 85.9375C95.3125 85.5231 95.4771 85.1257 95.7701 84.8326C96.0632 84.5396 96.4606 84.375 96.875 84.375Z" fill="#EE8700"/>
</svg>
