<svg width="36" height="36" viewBox="0 0 36 36" fill="none" xmlns="http://www.w3.org/2000/svg">
<mask id="mask0" style="mask-type:alpha" maskUnits="userSpaceOnUse" x="0" y="0" width="36" height="36">
<circle cx="18" cy="18" r="18" fill="#34D399"/>
</mask>
<g mask="url(#mask0)">
<circle cx="18" cy="18" r="18" fill="#34D399"/>
<g clip-path="url(#clip0)">
<path d="M31.1352 31.969V35.9498H4.67029V31.969C4.67029 30.916 5.31537 29.967 6.29622 29.5872L11.8764 27.3928L16.2321 32.1791L17.5989 29.3947V29.3892L17.9027 28.7657L18.212 29.3893L19.5794 32.1791L23.929 27.3928L29.5147 29.5872C30.4901 29.9731 31.1352 30.916 31.1352 31.969Z" fill="#F2F2F2"/>
<path d="M21.8063 26.5658H21.8119V24.2997C21.5224 24.7386 21.186 25.1841 20.7952 25.6296L20.2549 26.225C19.7587 26.7648 19.0529 27.0796 18.3196 27.0796H17.4926C16.7593 27.0796 16.053 26.7653 15.5574 26.225L15.017 25.6296C14.6217 25.1802 14.2816 24.7287 13.991 24.2854V26.5619L13.9998 26.5663L17.4016 28.485L17.9034 28.7662L18.4051 28.485L21.8063 26.5658Z" fill="#F8B64C"/>
<g opacity="0.1">
<g opacity="0.1">
<path opacity="0.1" d="M16.5083 26.8779C16.505 26.8768 16.5017 26.8756 16.4984 26.8745C16.4929 26.8723 16.4868 26.8707 16.4813 26.869C16.4758 26.8663 16.4697 26.8657 16.462 26.863L18.5412 28.4073L21.8063 26.5658H21.8096L21.8118 24.3113C21.8063 24.3195 21.0366 25.328 20.7951 25.6285L20.2548 26.2245C19.7586 26.7643 19.0529 27.0791 18.3196 27.0791H17.4926C17.3255 27.0791 17.1618 27.0609 17.0013 27.0267C16.8315 26.9942 16.6677 26.9435 16.5083 26.8779Z" fill="#40596B"/>
</g>
</g>
<path d="M14.0333 19.6821C14.1193 20.6718 13.639 21.5225 12.9609 21.581C12.2816 21.6405 11.6614 20.8857 11.5737 19.896C11.4877 18.9064 11.9679 18.0567 12.6472 17.9972C13.3259 17.9376 13.9473 18.6919 14.0333 19.6821Z" fill="#F8B64C"/>
<path d="M24.2366 19.897C24.1506 20.8867 23.5293 21.641 22.8505 21.5814C22.1713 21.5219 21.6905 20.6723 21.7781 19.6826C21.8641 18.6929 22.4855 17.9381 23.1642 17.9977C23.8435 18.0561 24.3237 18.9068 24.2366 19.897Z" fill="#F8B64C"/>
<path d="M23.5292 19.6856C23.425 20.7938 22.9001 23.2357 20.7951 25.6286L20.2548 26.224C19.7586 26.7643 19.0529 27.0792 18.3195 27.0792H17.4925C16.7592 27.0792 16.0529 26.7649 15.5573 26.224L15.017 25.6286C12.9108 23.2357 12.3925 20.7932 12.2817 19.6856C12.1329 18.1583 12.1935 16.2176 12.2817 15.7158C12.7835 12.7771 15.2982 10.9521 17.9061 10.9521C20.5134 10.9521 23.0276 12.7771 23.5293 15.7158C23.6175 16.2176 23.6781 18.1589 23.5292 19.6856Z" fill="#FFD15C"/>
<path d="M13.6071 12.3453C13.6071 12.3453 13.6457 8.63302 19.0429 9.81898C19.0429 9.81898 21.7208 10.6603 23.4438 13.1492C23.4438 13.1492 25.0604 15.4968 24.1815 17.4718C23.8959 18.113 23.5893 18.8469 23.6246 19.4362C23.6246 19.4362 23.3252 18.1852 23.1466 17.1426C22.9972 16.2693 22.6212 15.4511 22.0439 14.7795L22.0268 14.7591C21.0923 13.6768 19.6295 13.1707 18.2462 13.5274C17.5862 13.6978 16.8353 14.0302 16.0094 14.6197C16.0094 14.6197 13.7609 13.1106 12.6494 15.7521C12.6494 15.7521 12.1543 17.683 12.2243 19.208C12.2243 19.2074 9.12959 12.7279 13.6071 12.3453Z" fill="#40596B"/>
<path d="M25.2738 28.9365C25.2628 28.8428 25.2413 27.9832 25.0648 27.6359C24.7665 27.0509 24.2323 26.66 23.5872 26.5608L21.8118 26.2024V26.5663H21.8063L21.5521 26.7096L23.4989 27.1066C23.9676 27.1783 24.3596 27.4595 24.5686 27.8834C24.7064 28.1536 24.7626 28.4464 24.718 28.733L24.7064 28.8764C22.3742 30.8999 21.7126 32.7248 21.685 32.8075C21.5097 33.3313 21.5202 33.7448 21.7131 34.0425C21.9287 34.3788 22.2805 34.4174 22.3246 34.4229L22.3797 33.8716C22.3742 33.8716 22.2419 33.849 22.1707 33.7337C22.0825 33.5898 22.093 33.3257 22.2094 32.9888C22.2149 32.9772 22.5402 32.0797 23.5326 30.8656C23.8083 30.7277 24.1165 30.7007 24.4148 30.7884C24.7015 30.8766 24.9435 31.0702 25.0929 31.3282C25.2027 32.9221 24.9606 33.8595 24.9551 33.865C24.8498 34.2068 24.7064 34.4329 24.5471 34.4935C24.4203 34.5492 24.304 34.488 24.304 34.4825L24.1661 34.7245L24.0228 34.9633C24.0454 34.9798 24.2157 35.0736 24.4418 35.0736C24.5355 35.0736 24.6359 35.057 24.7401 35.0129C25.0709 34.8866 25.3251 34.5553 25.4894 34.026C25.512 33.9434 26.0242 32.0186 25.2738 28.9365ZM24.5416 30.3646C24.3756 30.3149 24.1992 30.2934 24.0332 30.299C24.2714 30.0393 24.535 29.7752 24.8332 29.5056C24.9159 29.891 24.9765 30.2604 25.0207 30.6083C24.8773 30.5024 24.7169 30.4202 24.5416 30.3646Z" fill="#ACB3BA"/>
<path d="M22.8097 34.2444C22.7656 34.4661 22.55 34.6105 22.3283 34.567C22.1078 34.5234 22.2649 33.7201 22.4866 33.7637C22.7083 33.8072 22.8532 34.0228 22.8097 34.2444Z" fill="#F8B64C"/>
<path d="M23.7035 34.5201C23.6097 34.7258 23.6991 34.9684 23.9047 35.0627C24.1103 35.157 24.4516 34.4132 24.246 34.3183C24.042 34.2241 23.7983 34.3145 23.7035 34.5201Z" fill="#F8B64C"/>
<path d="M13.9992 26.5658L13.9903 26.5614V26.2019L12.7983 26.4473C11.5264 26.7092 10.4562 27.5208 9.85964 28.6731C9.26418 29.8265 9.22118 31.1696 9.74329 32.3583L10.2483 32.1367C9.79405 31.1012 9.8293 29.9318 10.3498 28.9267C10.8686 27.9233 11.8015 27.2158 12.9086 26.9881L14.2556 26.7108L13.9992 26.5658Z" fill="#ACB3BA"/>
<path d="M23.929 27.3929L19.8605 32.7299L17.9027 28.7657L18.4045 28.4845L21.8063 26.5658H21.8118L21.8173 26.5603L23.929 27.3929Z" fill="#CDD6E0"/>
<path d="M11.8765 27.3929L15.9515 32.7299L17.9028 28.7657L17.401 28.4845L13.9992 26.5658L13.9882 26.5603L11.8765 27.3929Z" fill="#CDD6E0"/>
<path d="M15.9515 35.9499L17.0647 33.4138L16.5845 32.708L16.2327 32.1787L17.599 29.3894L17.9028 28.7659L18.2121 29.3894V29.3949L19.5794 32.1787L19.221 32.703L18.7408 33.4138L19.8606 35.9499H15.9515Z" fill="#334A5E"/>
<path d="M19.5793 32.1787L19.221 32.703L17.9082 30.0174L16.5844 32.708L16.2327 32.1787L17.5989 29.3894L17.9027 28.7659L18.212 29.3894V29.3949L19.5793 32.1787Z" fill="#2A4356"/>
<path d="M11.6537 33.2219C11.6537 33.9111 11.0936 34.4707 10.4044 34.4707C9.71515 34.4707 9.15613 33.9111 9.15613 33.2219C9.15613 32.5327 9.7152 31.9736 10.4044 31.9736C11.0935 31.9736 11.6537 32.5327 11.6537 33.2219Z" fill="#FF7058"/>
<path d="M11.2435 33.2217C11.2435 33.6848 10.8686 34.0603 10.4055 34.0603C9.94127 34.0603 9.5658 33.6842 9.5658 33.2217C9.5658 32.7591 9.94184 32.3831 10.4055 32.3831C10.8686 32.3831 11.2435 32.7585 11.2435 33.2217Z" fill="#F2F2F2"/>
<path d="M10.9926 33.2217C10.9926 33.547 10.7296 33.8095 10.406 33.8095C10.0807 33.8095 9.81714 33.5465 9.81714 33.2217C9.81714 32.8975 10.0812 32.6345 10.406 32.6345C10.7296 32.6345 10.9926 32.8975 10.9926 33.2217Z" fill="#ACB3BA"/>
</g>
</g>
<defs>
<clipPath id="clip0">
<rect width="26.4649" height="26.4649" fill="white" transform="translate(4.67029 9.53516)"/>
</clipPath>
</defs>
</svg>
