<svg width="512" height="512" viewBox="0 0 512 512" fill="none" xmlns="http://www.w3.org/2000/svg">
<g opacity="0.4">
<path opacity="0.4" d="M448 193.108H416V273.108C416 317.284 380.176 353.108 336 353.108H192V385.108C192 420.452 220.656 449.108 256 449.108H352L421.76 507.188C428.544 512.836 438.64 511.924 444.288 505.14C446.688 502.26 448 498.628 448 494.868V449.108C483.344 449.108 512 420.452 512 385.108V257.108C512 221.764 483.344 193.108 448 193.108Z" fill="#34D399"/>
</g>
<path d="M320 1.10791H64C28.656 1.10791 0 29.7639 0 65.1079V257.108C0 292.452 28.656 321.108 64 321.108V382.388C64 391.22 71.168 398.388 80 398.388C83.808 398.388 87.504 397.028 90.4 394.548L176 321.108H320C355.344 321.108 384 292.452 384 257.108V65.1079C384 29.7639 355.344 1.10791 320 1.10791ZM118.56 183.668C117.152 185.22 115.536 186.564 113.76 187.668C112.032 188.836 110.224 189.86 108.32 190.708C106.336 191.444 104.304 192.036 102.24 192.468C100.192 192.916 98.096 193.124 96 193.108C78.32 193.108 64 178.788 64 161.108C63.664 143.444 77.712 128.836 95.376 128.5C97.68 128.452 99.984 128.66 102.24 129.108C104.304 129.54 106.336 130.132 108.32 130.868C110.256 131.668 112.08 132.676 113.76 133.908C115.504 135.012 117.104 136.292 118.56 137.748C124.768 143.924 128.176 152.356 128 161.108C127.968 169.588 124.576 177.7 118.56 183.668ZM214.56 183.668C208.592 189.684 200.48 193.076 192 193.108C189.92 193.348 187.84 193.348 185.76 193.108C183.696 192.676 181.664 192.084 179.68 191.348C177.776 190.5 175.968 189.476 174.24 188.308C172.448 187.156 170.784 185.828 169.28 184.308C163.168 178.148 159.824 169.78 160 161.108C159.76 159.028 159.76 156.948 160 154.868C160.432 152.804 161.024 150.772 161.76 148.788C162.56 146.852 163.568 145.028 164.8 143.348C165.936 141.588 167.232 139.924 168.64 138.388C170.176 136.98 171.84 135.684 173.6 134.548C175.28 133.316 177.104 132.308 179.04 131.508C181.216 130.516 183.456 129.716 185.76 129.108C203.088 125.652 219.936 136.916 223.392 154.244C223.84 156.5 224.048 158.804 224 161.108C224 169.556 220.672 177.668 214.72 183.668H214.56ZM310.56 183.668C309.152 185.22 307.536 186.564 305.76 187.668C304.032 188.836 302.224 189.86 300.32 190.708C298.336 191.444 296.304 192.036 294.24 192.468C292.192 192.916 290.096 193.124 288 193.108C270.32 193.108 256 178.788 256 161.108C255.664 143.444 269.712 128.836 287.376 128.5C289.68 128.452 291.984 128.66 294.24 129.108C296.304 129.54 298.336 130.132 300.32 130.868C302.256 131.668 304.08 132.676 305.76 133.908C307.504 135.012 309.104 136.292 310.56 137.748C316.768 143.924 320.176 152.356 320 161.108C319.968 169.588 316.576 177.7 310.56 183.668Z" fill="#34D399"/>
</svg>
