<svg width="750" height="500" viewBox="0 0 750 500" fill="none" xmlns="http://www.w3.org/2000/svg">
<path d="M648.24 156.26C639.349 156.262 630.657 153.627 623.263 148.689C615.87 143.75 610.107 136.73 606.704 128.516C603.3 120.302 602.409 111.263 604.143 102.543C605.877 93.8226 610.159 85.8124 616.446 79.5254C622.733 73.2385 630.743 68.9572 639.463 67.2231C648.184 65.489 657.222 66.38 665.436 69.7834C673.65 73.1868 680.67 78.9497 685.609 86.3432C690.547 93.7368 693.182 102.429 693.18 111.32C693.164 123.234 688.424 134.655 680 143.08C671.575 151.504 660.154 156.244 648.24 156.26ZM648.24 68.3699C639.745 68.3679 631.44 70.8852 624.376 75.6034C617.311 80.3216 611.805 87.0288 608.552 94.8767C605.3 102.725 604.448 111.361 606.104 119.693C607.76 128.025 611.85 135.679 617.856 141.687C623.863 147.694 631.515 151.786 639.847 153.444C648.179 155.102 656.815 154.252 664.664 151.001C672.513 147.751 679.221 142.246 683.941 135.183C688.661 128.119 691.18 119.815 691.18 111.32C691.167 99.9346 686.639 89.0193 678.589 80.9678C670.54 72.9163 659.625 68.3858 648.24 68.3699Z" fill="#EBEBEB"/>
<path d="M646 162.62C645.31 162.62 644.63 162.55 644 162.49L644.16 160.49C644.81 160.54 645.47 160.58 646.16 160.61L646 162.62ZM653.15 162.44L652.97 160.44C653.62 160.37 654.27 160.3 654.92 160.21L655.19 162.21C654.49 162.3 653.82 162.37 653.13 162.44H653.15ZM636.88 161.44C636.21 161.29 635.55 161.13 634.88 160.95L635.4 159.02C636.03 159.19 636.67 159.35 637.31 159.49L636.88 161.44ZM662.2 160.79L661.66 158.87C662.29 158.69 662.92 158.5 663.54 158.3L664.16 160.2C663.49 160.37 662.84 160.57 662.18 160.75L662.2 160.79ZM628.12 158.61C627.49 158.34 626.86 158.06 626.25 157.77L627.1 155.96C627.7 156.24 628.3 156.51 628.9 156.77L628.12 158.61ZM670.8 157.51L669.92 155.71C670.51 155.42 671.09 155.12 671.67 154.81L672.67 156.57C672 156.86 671.39 157.17 670.78 157.47L670.8 157.51ZM620 154.21C619.43 153.83 618.87 153.44 618.31 153.05L619.48 151.42C620.01 151.8 620.55 152.18 621.1 152.54L620 154.21ZM678.65 152.7L677.47 151.09C677.99 150.697 678.51 150.297 679.03 149.89L680.27 151.46C679.73 151.88 679.19 152.3 678.64 152.7H678.65ZM612.8 148.47C612.31 148 611.8 147.52 611.35 147.03L612.78 145.64C613.24 146.11 613.71 146.57 614.18 147.03L612.8 148.47ZM685.54 146.61L684.09 145.24C684.54 144.76 684.98 144.24 685.42 143.78L686.92 145.1C686.46 145.61 686 146.12 685.53 146.61H685.54ZM606.74 141.55C606.34 141 605.94 140.45 605.56 139.88L607.22 138.76C607.59 139.31 607.97 139.85 608.35 140.38L606.74 141.55ZM691.25 139.39L689.58 138.3C689.94 137.75 690.28 137.19 690.58 136.63L692.3 137.63C692 138.24 691.61 138.82 691.24 139.39H691.25ZM602 133.67C601.71 133.06 601.42 132.44 601.15 131.82L603 131C603.26 131.6 603.54 132.19 603.82 132.78L602 133.67ZM695.58 131.26L693.74 130.49C693.99 129.88 694.23 129.27 694.46 128.65L696.34 129.36C696.09 130 695.83 130.64 695.57 131.26H695.58ZM598.75 125.07C598.57 124.41 598.4 123.75 598.25 123.07L600.19 122.62C600.34 123.26 600.51 123.89 600.68 124.52L598.75 125.07ZM698.38 122.49L696.38 122.05C696.52 121.41 696.65 120.77 696.76 120.12L698.76 120.48C698.65 121.15 698.52 121.82 698.37 122.49H698.38ZM597.1 116C597.03 115.33 596.99 114.65 596.95 114L598.95 113.9C598.95 114.56 599.03 115.21 599.09 115.9L597.1 116ZM699.55 113.35L697.55 113.27C697.55 112.62 697.55 111.97 697.55 111.27V111.06H699.55V111.25C699.59 112 699.57 112.68 699.55 113.36V113.35ZM599.07 107L597.07 106.82C597.13 106.14 597.2 105.46 597.28 104.82L599.28 105.07C599.2 105.68 599.13 106.33 599.07 107ZM697.07 104.26C696.98 103.61 696.88 102.96 696.76 102.32L698.76 101.96C698.89 102.63 699 103.3 699.1 103.96L697.07 104.26ZM600.61 98.26L598.68 97.7399C598.86 97.0799 599.06 96.4199 599.26 95.7399L601.17 96.3499C601 97 600.79 97.6499 600.62 98.2799L600.61 98.26ZM695.04 95.6299C694.83 94.9999 694.61 94.3899 694.38 93.7799L696.25 93.07C696.49 93.6966 696.72 94.3366 696.94 94.9899L695.04 95.6299ZM603.71 90L601.91 89.1399C602.21 88.5199 602.51 87.9099 602.83 87.3099L604.6 88.25C604.29 88.82 604 89.4 603.71 90ZM691.5 87.5599C691.18 86.9899 690.86 86.42 690.5 85.86L692.21 84.86C692.564 85.44 692.897 86.0299 693.21 86.6299L691.5 87.5599ZM608.24 82.4L606.62 81.23C607.02 80.68 607.43 80.1299 607.86 79.5999L609.43 80.83C609 81.34 608.63 81.8599 608.24 82.3899V82.4ZM686.56 80.2399C686.15 79.7299 685.73 79.24 685.29 78.73L686.79 77.41C687.24 77.92 687.68 78.41 688.12 78.97L686.56 80.2399ZM614.05 75.73L612.66 74.29C613.16 73.82 613.66 73.35 614.17 72.9L615.49 74.4C615 74.82 614.52 75.27 614.05 75.72V75.73ZM680.4 73.8899L678.88 72.6399L680.12 71.07C680.66 71.5 681.18 71.9299 681.7 72.3799L680.4 73.8899ZM621 70.19L619.89 68.5199C620.46 68.1499 621.03 67.7799 621.62 67.4199L622.62 69.1299C622 69.4699 621.49 69.83 621 70.19ZM673.25 68.7399C672.69 68.3999 672.12 68.0799 671.54 67.7399L672.48 65.98C673.08 66.3 673.68 66.64 674.27 66.98L673.25 68.7399ZM628.71 66L627.92 64.16C628.55 63.89 629.18 63.6299 629.81 63.3899L630.53 65.25C629.92 65.47 629.31 65.72 628.71 66ZM665.2 65C664.59 64.77 663.96 64.56 663.34 64.36L663.95 62.45C664.6 62.66 665.25 62.8799 665.89 63.1199L665.2 65ZM637.11 63.2599L636.66 61.31C637.327 61.1566 637.993 61.0166 638.66 60.8899L639.02 62.8899C638.39 62.9399 637.75 63.08 637.11 63.22V63.2599ZM656.65 62.72C656.01 62.61 655.36 62.5099 654.71 62.4199L654.97 60.4199C655.65 60.5099 656.32 60.6099 656.97 60.7299L656.65 62.72ZM645.87 62L645.78 60C646.46 60 647.14 59.95 647.78 59.95V61.95C647.18 62 646.52 62 645.87 62Z" fill="#EBEBEB"/>
<path d="M641.34 139.11H655.19V118.22H676.09V104.37H655.19V83.48H641.34V104.37H620.45V118.22H641.34V139.11Z" fill="#EBEBEB"/>
<path d="M129.69 274.52C122.207 284.539 112.658 292.833 101.69 298.84C90.7242 292.83 81.1759 284.536 73.69 274.52C63.83 261.46 64.31 241.01 78.43 236.59C94 231.7 101.66 255.2 101.66 255.2C101.66 255.2 109.44 231.55 124.95 236.59C139 241.17 139.56 261.46 129.69 274.52Z" fill="#EBEBEB"/>
<path d="M90.64 288.52L86.39 270.81L83.61 277.05H66.42V275.05H82.31L86.96 264.6L90.27 278.42L94.97 249.79L99.11 272.44L102.38 262.98L107.54 278.46L108.68 275.04H136.92V277.04H110.12L107.54 284.77L102.34 269.2L98.51 280.28L95.07 261.5L90.64 288.52Z" fill="white"/>
<path d="M101.7 307.25C92.8093 307.252 84.1177 304.617 76.7244 299.679C69.3311 294.741 63.5682 287.722 60.1645 279.508C56.7608 271.295 55.8692 262.257 57.6025 253.537C59.3358 244.817 63.6161 236.806 69.902 230.519C76.188 224.232 84.1973 219.95 92.917 218.214C101.637 216.479 110.675 217.369 118.889 220.771C127.103 224.172 134.124 229.934 139.064 237.326C144.003 244.718 146.64 253.409 146.64 262.3C146.627 274.216 141.888 285.64 133.463 294.066C125.039 302.493 113.616 307.234 101.7 307.25ZM101.7 219.36C93.2044 219.358 84.8991 221.875 77.8345 226.594C70.7699 231.313 65.2633 238.021 62.0113 245.869C58.7593 253.717 57.9079 262.354 59.5648 270.687C61.2217 279.019 65.3125 286.673 71.3198 292.68C77.327 298.687 84.9809 302.778 93.3133 304.435C101.646 306.092 110.282 305.241 118.131 301.989C125.979 298.737 132.687 293.23 137.406 286.165C142.124 279.101 144.642 270.795 144.64 262.3C144.624 250.916 140.095 240.004 132.046 231.954C123.996 223.905 113.084 219.376 101.7 219.36Z" fill="#EBEBEB"/>
<path d="M99.44 313.61L97.44 313.48L97.6 311.48C98.26 311.54 98.91 311.58 99.6 311.61L99.44 313.61ZM106.6 313.42L106.41 311.42C107.06 311.36 107.72 311.28 108.41 311.2L108.67 313.2C108 313.28 107.28 313.36 106.6 313.42ZM90.32 312.42C89.66 312.27 88.99 312.1 88.32 311.93L88.83 310L90.75 310.47L90.32 312.42ZM115.64 311.77L115.1 309.84C115.74 309.66 116.36 309.47 116.98 309.27L117.61 311.17C117 311.35 116.3 311.55 115.64 311.74V311.77ZM81.56 309.59C80.93 309.32 80.31 309.04 79.69 308.74L80.55 306.94C81.1434 307.22 81.7434 307.49 82.35 307.75L81.56 309.59ZM124.24 308.48L123.36 306.69C123.95 306.4 124.53 306.1 125.11 305.79L126.11 307.55C125.46 307.84 124.85 308.15 124.24 308.45V308.48ZM73.45 305.22C72.88 304.85 72.32 304.46 71.76 304.06L72.93 302.44C73.46 302.82 74.01 303.19 74.55 303.55L73.45 305.22ZM132.1 303.72L130.92 302.11C131.447 301.723 131.967 301.323 132.48 300.91L133.73 302.47C133.2 302.87 132.65 303.28 132.1 303.69V303.72ZM66.25 299.49C65.76 299.02 65.25 298.54 64.8 298.05L66.24 296.66C66.69 297.13 67.16 297.59 67.63 298.04L66.25 299.49ZM139 297.6L137.55 296.22C138 295.74 138.44 295.22 138.87 294.77L140.38 296.08C139.93 296.6 139.47 297.1 139 297.6ZM60.19 292.54C59.79 291.99 59.4 291.43 59.02 290.87L60.68 289.75C61.04 290.3 61.42 290.83 61.81 291.36L60.19 292.54ZM144.7 290.38L143.03 289.28C143.39 288.73 143.74 288.18 144.08 287.61L145.79 288.61C145.44 289.23 145.08 289.8 144.7 290.38ZM55.46 284.66C55.16 284.05 54.87 283.43 54.6 282.8L56.44 282C56.7 282.6 56.97 283.2 57.26 283.79L55.46 284.66ZM149 282.25L147.16 281.47C147.41 280.87 147.66 280.26 147.89 279.64L149.76 280.34C149.55 281 149.3 281.62 149 282.25ZM52.18 276.05C52 275.383 51.83 274.717 51.67 274.05L53.62 273.59C53.77 274.23 53.93 274.87 54.11 275.5L52.18 276.05ZM151.8 273.47L149.8 273.04C149.94 272.4 150.07 271.76 150.19 271.11L152.19 271.47C152.11 272.14 152 272.81 151.83 273.47H151.8ZM50.56 267C50.5 266.333 50.45 265.667 50.41 265L52.41 264.9C52.41 265.55 52.49 266.21 52.55 266.9L50.56 267ZM153 264.35L151 264.27C151 263.62 151 262.96 151 262.27V262.06H153V262.26C153.05 263 153 263.67 153 264.35ZM52.53 258L50.53 257.82C50.59 257.14 50.66 256.46 50.75 255.82L52.75 256.07C52.66 256.67 52.59 257.32 52.53 258ZM150.53 255.26C150.44 254.6 150.33 253.96 150.21 253.26L152.21 252.9C152.33 253.57 152.44 254.24 152.54 254.9L150.53 255.26ZM54.07 249.26L52.14 248.73C52.32 248.07 52.51 247.42 52.72 246.73L54.62 247.33C54.44 248 54.26 248.64 54.09 249.27L54.07 249.26ZM148.49 246.62C148.28 246 148.06 245.38 147.83 244.77L149.7 244.06C149.94 244.7 150.17 245.34 150.39 245.99L148.49 246.62ZM57.18 241L55.37 240.14C55.67 239.52 55.98 238.91 56.3 238.3L58.06 239.24C57.76 239.8 57.46 240.39 57.18 241ZM145 238.54C144.69 237.96 144.36 237.4 144 236.84L145.71 235.84C146.07 236.43 146.41 237.02 146.71 237.61L145 238.54ZM61.7 233.38L60.08 232.21C60.49 231.65 60.9 231.11 61.32 230.57L62.89 231.81C62.48 232.32 62.09 232.85 61.7 233.38ZM140 231.21C139.58 230.7 139.16 230.21 138.73 229.71L140.23 228.39C140.683 228.903 141.123 229.423 141.55 229.95L140 231.21ZM67.48 226.71L66.1 225.26C66.5934 224.793 67.0934 224.333 67.6 223.88L69 225.37C68.47 225.81 68 226.25 67.51 226.71H67.48ZM133.83 224.87C133.33 224.44 132.83 224.02 132.31 223.61L133.56 222.05C134.09 222.47 134.62 222.91 135.14 223.35L133.83 224.87ZM74.38 221.17L73.27 219.51C73.84 219.13 74.41 218.77 75 218.41L76 220.12C75.51 220.46 75 220.81 74.41 221.17H74.38ZM126.64 219.72C126.07 219.39 125.5 219.07 124.92 218.72L125.86 216.95C126.46 217.28 127.06 217.61 127.65 217.95L126.64 219.72ZM82.18 217L81.38 215.16L83.27 214.39L83.99 216.26C83.38 216.45 82.78 216.7 82.18 217ZM118.66 216C118.05 215.78 117.43 215.56 116.8 215.36L117.41 213.46C118.06 213.67 118.71 213.89 119.35 214.12L118.66 216ZM90.57 214.27L90.12 212.27L92.12 211.85L92.49 213.85C91.85 213.93 91.21 214.06 90.57 214.21V214.27ZM110.12 213.72C109.47 213.61 108.82 213.52 108.12 213.43L108.38 211.43C109.06 211.52 109.73 211.62 110.38 211.73L110.12 213.72ZM99.33 213L99.24 211C99.92 211 100.6 211 101.29 210.94V212.94C100.64 213 100 213 99.33 213Z" fill="#EBEBEB"/>
<path d="M626.31 330.3C625.815 317.806 625.985 305.295 626.82 292.82C628.668 267.095 632.594 241.562 638.56 216.47C641.84 202.34 645.87 188.47 650.07 174.57C650.2 174.15 650.86 174.27 650.75 174.71C637.75 223.62 627.1 274.1 627.83 324.95C628.04 339.18 629.69 353.16 631.04 367.3C631.04 367.68 630.45 367.83 630.36 367.44C627.68 355.34 626.81 342.66 626.31 330.3Z" fill="#EBEBEB"/>
<path d="M650.75 174.71C650.75 174.71 670.43 224.66 666 236.4C661.57 248.14 652.51 250.65 652.51 250.65C652.51 250.65 664.51 267.84 656.14 283.96C647.77 300.08 629.03 299.32 627.79 317.6C627.81 317.6 626.77 241.16 650.75 174.71Z" fill="#EBEBEB"/>
<path d="M630 286C629.966 285.917 629.966 285.823 630 285.74C632.76 251.74 638.79 217.91 649.09 185.25C649.09 185.229 649.099 185.208 649.114 185.193C649.129 185.178 649.149 185.17 649.17 185.17C649.191 185.17 649.212 185.178 649.227 185.193C649.242 185.208 649.25 185.229 649.25 185.25C645.35 199.857 641.903 214.547 638.91 229.32C641.555 226.813 644.787 225.012 648.31 224.08C648.323 224.08 648.336 224.085 648.346 224.095C648.355 224.104 648.36 224.117 648.36 224.13C648.36 224.143 648.355 224.156 648.346 224.165C648.336 224.175 648.323 224.18 648.31 224.18C644.67 225.75 641.19 227.58 638.61 230.66C638.04 233.56 637.48 236.45 636.94 239.35C641.34 234.44 647.44 232 653.54 229.68C653.63 229.68 653.67 229.78 653.59 229.82C647.23 232.4 640.9 235.74 636.59 241.21C635.084 249.503 633.75 257.837 632.59 266.21C635.772 262.88 639.849 260.543 644.33 259.48C644.47 259.48 644.54 259.65 644.4 259.69C639.781 261.027 635.648 263.674 632.5 267.31C632.5 267.31 632.5 267.31 632.43 267.37C632.03 270.31 631.66 273.24 631.32 276.19C633.775 274.095 636.551 272.407 639.54 271.19C639.62 271.19 639.66 271.28 639.54 271.31C636.493 272.625 633.703 274.471 631.3 276.76C631.3 276.76 631.23 276.76 631.19 276.81C630.86 279.6 630.54 282.4 630.25 285.2C634.689 279.848 640.444 275.743 646.95 273.29C647.08 273.24 647.14 273.43 647.02 273.49C640.594 276.317 634.949 280.661 630.57 286.15C630.521 286.211 630.455 286.257 630.38 286.28C630.305 286.303 630.225 286.303 630.15 286.28C629.73 290.567 629.357 294.87 629.03 299.19C629.03 299.25 628.93 299.26 628.93 299.19C629.25 294.83 629.607 290.433 630 286Z" fill="#A6A6A6"/>
<path d="M645.76 219.2C649.17 216.85 653.51 215.85 657.58 215.51C657.592 215.505 657.605 215.504 657.618 215.506C657.631 215.507 657.643 215.512 657.653 215.519C657.664 215.527 657.673 215.536 657.679 215.548C657.685 215.559 657.688 215.572 657.688 215.585C657.688 215.598 657.685 215.611 657.679 215.622C657.673 215.633 657.664 215.643 657.653 215.651C657.643 215.658 657.631 215.663 657.618 215.664C657.605 215.666 657.592 215.664 657.58 215.66C653.35 216.29 649.79 217.82 645.89 219.48C645.855 219.486 645.82 219.48 645.789 219.464C645.758 219.447 645.733 219.421 645.718 219.39C645.703 219.358 645.699 219.322 645.707 219.288C645.714 219.253 645.733 219.223 645.76 219.2Z" fill="#A6A6A6"/>
<path d="M643.37 272.08C646.112 270.522 649.126 269.504 652.25 269.08C652.35 269.08 652.36 269.23 652.25 269.24C649.194 269.851 646.238 270.888 643.47 272.32C643.36 272.35 643.25 272.15 643.37 272.08Z" fill="#A6A6A6"/>
<path d="M574.57 237.21C582.894 242.964 590.537 249.647 597.35 257.13C604.387 265.039 609.821 274.239 613.35 284.22C620.813 305.022 624.825 326.904 625.23 349C625.474 361.241 624.296 373.47 621.72 385.44C621.692 385.519 621.637 385.586 621.564 385.627C621.492 385.669 621.406 385.684 621.324 385.668C621.242 385.652 621.168 385.607 621.116 385.542C621.063 385.476 621.037 385.394 621.04 385.31C624.251 364.192 624.129 342.7 620.68 321.62C617.3 301 612 278.48 598.85 261.69C591.7 252.54 582.78 245.35 573.97 237.91C573.5 237.52 574.1 236.88 574.57 237.21Z" fill="#EBEBEB"/>
<path d="M622.33 334.13C617.593 326.468 612.026 319.352 605.73 312.91C595.88 303.06 587.59 296.07 586.31 289.56C585.03 283.05 596.17 278.26 596.17 278.26C596.17 278.26 582.55 280.7 578.82 274.98C575.09 269.26 573.29 236.15 573.29 236.15C573.29 236.15 598.08 253.85 609.63 278.65C621.18 303.45 622.33 334.13 622.33 334.13Z" fill="#EBEBEB"/>
<path d="M582.15 267.21C583.779 266.979 585.429 266.922 587.07 267.04C587.27 267.04 587.26 267.39 587.07 267.39C585.43 267.44 583.8 267.32 582.17 267.39C582 267.42 582 267.23 582.15 267.21Z" fill="#A6A6A6"/>
<path d="M600 299.34C602.617 299.401 605.202 299.919 607.64 300.87C607.7 300.87 607.64 301 607.64 300.98C605.11 300.38 602.56 300.14 600.01 299.72C599.76 299.68 599.77 299.34 600 299.34Z" fill="#A6A6A6"/>
<path d="M605.33 288.24C606.417 288.231 607.502 288.329 608.57 288.53C608.68 288.53 608.68 288.73 608.57 288.73C607.484 288.785 606.396 288.735 605.32 288.58C605.298 288.579 605.276 288.574 605.255 288.565C605.235 288.556 605.217 288.543 605.201 288.527C605.17 288.494 605.154 288.45 605.155 288.405C605.156 288.36 605.176 288.317 605.208 288.286C605.241 288.255 605.285 288.239 605.33 288.24Z" fill="#A6A6A6"/>
<path d="M695 272.36C686.948 275.096 679.232 278.736 672 283.21C664.485 287.988 657.968 294.179 652.81 301.44C641.951 316.546 633.638 333.328 628.2 351.12C625.173 360.97 623.3 371.138 622.62 381.42C622.612 381.497 622.635 381.574 622.684 381.634C622.733 381.694 622.803 381.732 622.88 381.74C622.957 381.748 623.034 381.725 623.094 381.676C623.154 381.628 623.192 381.557 623.2 381.48C625.479 363.645 630.541 346.277 638.2 330.01C645.72 314.07 655.2 297.11 669.72 286.55C677.62 280.8 686.5 277.04 695.36 273.06C695.78 272.85 695.45 272.2 695 272.36Z" fill="#EBEBEB"/>
<path d="M633.94 339.75C639.544 334.642 645.695 330.169 652.28 326.41C662.52 320.72 670.85 316.98 673.39 312.01C675.93 307.04 668 300.58 668 300.58C668 300.58 678.46 305.71 682.8 301.94C687.14 298.17 696.25 271.79 696.25 271.79C696.25 271.79 672.1 280.39 657.02 297.79C641.94 315.19 633.94 339.75 633.94 339.75Z" fill="#EBEBEB"/>
<path d="M635.19 334.31C647.27 311.64 663.39 291.13 685.47 277.6C679.704 281.308 674.294 285.543 669.31 290.25C673.809 290.001 678.294 290.946 682.31 292.99C682.319 292.994 682.326 292.999 682.333 293.006C682.339 293.013 682.344 293.021 682.347 293.03C682.351 293.039 682.352 293.048 682.352 293.058C682.351 293.067 682.349 293.076 682.345 293.085C682.341 293.093 682.336 293.101 682.329 293.107C682.322 293.114 682.314 293.119 682.305 293.122C682.296 293.125 682.287 293.127 682.277 293.126C682.268 293.126 682.259 293.124 682.25 293.12C677.981 291.523 673.446 290.759 668.89 290.87C668.835 290.869 668.781 290.847 668.74 290.81C667.95 291.55 667.18 292.31 666.41 293.07C668.745 293.18 671.067 293.488 673.35 293.99C673.363 293.99 673.376 293.995 673.386 294.004C673.395 294.014 673.4 294.027 673.4 294.04C673.4 294.053 673.395 294.066 673.386 294.075C673.376 294.085 673.363 294.09 673.35 294.09C670.935 293.632 668.478 293.428 666.02 293.48C661.985 297.578 658.183 301.898 654.63 306.42C656.253 306.189 657.907 306.308 659.48 306.77C659.504 306.77 659.527 306.779 659.544 306.796C659.561 306.813 659.57 306.836 659.57 306.86C659.57 306.884 659.561 306.907 659.544 306.923C659.527 306.94 659.504 306.95 659.48 306.95C657.76 306.757 656.025 306.733 654.3 306.88C653.64 307.72 652.97 308.56 652.3 309.41C657.232 309.109 662.18 309.592 666.96 310.84C667.03 310.84 667.01 310.96 666.96 310.95C662.023 309.978 656.982 309.642 651.96 309.95C651.34 310.77 650.76 311.61 650.15 312.43C653.092 312.357 656.03 312.694 658.88 313.43C658.904 313.43 658.927 313.439 658.944 313.456C658.961 313.473 658.97 313.496 658.97 313.52C658.97 313.544 658.961 313.567 658.944 313.583C658.927 313.6 658.904 313.61 658.88 313.61C655.926 312.967 652.898 312.728 649.88 312.9C647.28 316.48 644.787 320.13 642.4 323.85C643.677 323.62 644.99 323.699 646.23 324.08C646.243 324.08 646.256 324.085 646.266 324.094C646.275 324.104 646.28 324.117 646.28 324.13C646.28 324.143 646.275 324.156 646.266 324.165C646.256 324.175 646.243 324.18 646.23 324.18C644.847 324.076 643.457 324.143 642.09 324.38C639.937 327.713 637.863 331.09 635.87 334.51C635.5 334.83 635 334.61 635.19 334.31Z" fill="#A6A6A6"/>
<path d="M654 315.51C656.366 315.344 658.742 315.632 661 316.36C661.06 316.36 661 316.48 661 316.47C658.685 316.079 656.346 315.839 654 315.75C653.85 315.75 653.82 315.52 654 315.51Z" fill="#A6A6A6"/>
<path d="M675.05 287.88C676.13 287.798 677.217 287.862 678.28 288.07C678.41 288.07 678.37 288.27 678.28 288.26C677.22 288.15 676.17 288.18 675.11 288.15C675.077 288.152 675.044 288.142 675.017 288.122C674.991 288.102 674.972 288.073 674.965 288.041C674.958 288.008 674.962 287.974 674.978 287.944C674.993 287.915 675.019 287.892 675.05 287.88Z" fill="#A6A6A6"/>
<path d="M602.79 415.09H657.3L649.53 358.16L647.54 343.56H612.55L610.56 358.16L602.79 415.09Z" fill="#DBDBDB"/>
<path d="M610.56 358.16H649.53L647.54 343.56H612.55L610.56 358.16Z" fill="#C7C7C7"/>
<path d="M607.55 350.86H652.55V338.5H607.55V350.86Z" fill="#DBDBDB"/>
<path d="M79.27 415.09L153.2 414.85L227.13 414.76L375 414.59L522.87 414.76L596.8 414.85L670.73 415.09L596.8 415.34L522.87 415.42L375 415.59L227.13 415.42L153.2 415.33L79.27 415.09Z" fill="#263238"/>
<path d="M375 473.74C538.946 473.74 671.85 461.978 671.85 447.47C671.85 432.961 538.946 421.2 375 421.2C211.054 421.2 78.15 432.961 78.15 447.47C78.15 461.978 211.054 473.74 375 473.74Z" fill="#EBEBEB"/>
<path d="M607.93 54.1899H142.07V385.99H607.93V54.1899Z" fill="#263238"/>
<path d="M585.41 75.76H164.59V314.02H585.41V75.76Z" fill="white"/>
<path d="M607.93 337.04H142.07V385.98H607.93V337.04Z" fill="#EBEBEB"/>
<path d="M470.09 433.25H279.92V445.81H470.09V433.25Z" fill="#C7C7C7"/>
<path d="M447.44 433.26H302.56L306.24 411.47L306.42 410.44L306.76 408.4L306.93 407.37L307.29 405.32L307.33 405.01L307.46 404.3L307.81 402.25L307.98 401.22L310.55 386H439.44L441.87 400.36L442 401.05L442.4 403.43L442.51 404.12L442.66 405.01L442.92 406.5L443.03 407.2L443.43 409.59L443.55 410.27L447.44 433.26Z" fill="#DBDBDB"/>
<path d="M585.41 75.76H164.59V88.65H585.41V75.76Z" fill="#455A64"/>
<path d="M174.83 82.2C174.83 82.8333 174.642 83.4524 174.29 83.9789C173.938 84.5053 173.438 84.9155 172.852 85.1574C172.267 85.3993 171.623 85.4621 171.002 85.3378C170.381 85.2135 169.811 84.9077 169.364 84.4592C168.917 84.0107 168.613 83.4396 168.49 82.8182C168.368 82.1968 168.433 81.553 168.677 80.9685C168.92 80.3839 169.332 79.8849 169.86 79.5344C170.387 79.184 171.007 78.998 171.64 79C172.06 79 172.475 79.0829 172.863 79.2438C173.251 79.4047 173.603 79.6406 173.899 79.9379C174.196 80.2352 174.43 80.588 174.59 80.9762C174.75 81.3644 174.831 81.7803 174.83 82.2Z" fill="#C7C7C7"/>
<path d="M187.88 82.2C187.88 82.8333 187.692 83.4524 187.34 83.9789C186.988 84.5053 186.488 84.9155 185.902 85.1574C185.317 85.3993 184.673 85.4621 184.052 85.3378C183.431 85.2135 182.861 84.9077 182.414 84.4592C181.967 84.0107 181.663 83.4396 181.54 82.8182C181.418 82.1968 181.483 81.553 181.727 80.9685C181.97 80.3839 182.382 79.8849 182.91 79.5344C183.437 79.184 184.057 78.998 184.69 79C185.11 79 185.525 79.0829 185.913 79.2438C186.301 79.4047 186.653 79.6406 186.949 79.9379C187.246 80.2352 187.48 80.588 187.64 80.9762C187.8 81.3644 187.881 81.7803 187.88 82.2Z" fill="white"/>
<path d="M200.93 82.2C200.93 82.8333 200.742 83.4524 200.39 83.9789C200.038 84.5053 199.538 84.9155 198.952 85.1574C198.367 85.3993 197.723 85.4621 197.102 85.3378C196.481 85.2135 195.911 84.9077 195.464 84.4592C195.017 84.0107 194.713 83.4396 194.59 82.8182C194.468 82.1968 194.533 81.553 194.776 80.9685C195.02 80.3839 195.432 79.8849 195.959 79.5344C196.487 79.184 197.107 78.998 197.74 79C198.16 79 198.575 79.0829 198.963 79.2438C199.351 79.4047 199.703 79.6406 199.999 79.9379C200.296 80.2352 200.53 80.588 200.69 80.9762C200.85 81.3644 200.931 81.7803 200.93 82.2Z" fill="#34D399"/>
<path d="M381.389 361.025C382.415 356.696 379.738 352.355 375.41 351.329C371.081 350.302 366.74 352.979 365.714 357.308C364.687 361.637 367.364 365.978 371.693 367.004C376.021 368.03 380.362 365.353 381.389 361.025Z" fill="#263238"/>
<path d="M442.66 405.01H307.33L307.46 404.3L307.81 402.25L307.98 401.22L310.55 386H439.44L441.87 400.36L442 401.05L442.4 403.43L442.51 404.12L442.66 405.01Z" fill="#C7C7C7"/>
<path d="M585.42 88.6499H492.03V314.03H585.42V88.6499Z" fill="#EBEBEB"/>
<path d="M515.13 181.43H570.6V145.3H515.13V181.43Z" fill="#34D399"/>
<path d="M564.01 151.55H521.72V152.24H564.01V151.55Z" fill="white"/>
<path d="M542.86 155.26H521.72V155.95H542.86V155.26Z" fill="white"/>
<path d="M555.63 162.67H521.72V163.36H555.63V162.67Z" fill="white"/>
<path d="M564.01 166.38H521.72V167.07H564.01V166.38Z" fill="white"/>
<path d="M564.01 170.09H521.72V170.78H564.01V170.09Z" fill="white"/>
<path d="M535.79 173.79H521.72V174.48H535.79V173.79Z" fill="white"/>
<path d="M570.57 174.8L574.39 187.21L561.23 181.39L570.57 174.8Z" fill="#34D399"/>
<path d="M562.34 103.64H506.87V134.12H562.34V103.64Z" fill="#263238"/>
<path d="M506.87 127.53L503.05 139.95L516.21 134.12L506.87 127.53Z" fill="#263238"/>
<path d="M538.85 109.27H513.59V109.96H538.85V109.27Z" fill="white"/>
<path d="M555.88 112.98H513.59V113.67H555.88V112.98Z" fill="white"/>
<path d="M555.88 116.68H513.59V117.37H555.88V116.68Z" fill="white"/>
<path d="M547.81 120.39H513.59V121.08H547.81V120.39Z" fill="white"/>
<path d="M555.88 124.1H513.59V124.79H555.88V124.1Z" fill="white"/>
<path d="M529.28 127.81H513.59V128.5H529.28V127.81Z" fill="white"/>
<path d="M562.34 191.66H506.87V212.52H562.34V191.66Z" fill="#263238"/>
<path d="M506.87 205.93L503.05 218.34L516.21 212.52L506.87 205.93Z" fill="#263238"/>
<path d="M550.21 197.29H513.59V197.98H550.21V197.29Z" fill="white"/>
<path d="M532.72 201H513.59V201.69H532.72V201Z" fill="white"/>
<path d="M545.52 204.7H513.59V205.39H545.52V204.7Z" fill="white"/>
<path d="M574.39 259.63H503.05V272.77H574.39V259.63Z" fill="white"/>
<path d="M571.27 266.36C571.272 267.002 571.083 267.629 570.728 268.164C570.373 268.698 569.867 269.115 569.275 269.361C568.682 269.608 568.03 269.673 567.4 269.548C566.771 269.423 566.193 269.115 565.739 268.661C565.285 268.207 564.977 267.629 564.852 267C564.727 266.37 564.792 265.718 565.039 265.125C565.285 264.533 565.702 264.027 566.236 263.672C566.771 263.317 567.398 263.128 568.04 263.13C568.896 263.133 569.716 263.474 570.321 264.079C570.926 264.684 571.267 265.504 571.27 266.36Z" fill="#34D399"/>
<path d="M567.44 264.49L569.44 266.36L567.44 268.23L567.03 267.79L568.55 266.36L567.03 264.93L567.44 264.49Z" fill="white"/>
<path d="M506.74 262.28H505.88V270.12H506.74V262.28Z" fill="#263238"/>
<path d="M585.41 281.11H164.59V314.03H585.41V281.11Z" fill="#34D399"/>
<path d="M335.43 308.88C341.676 308.88 346.74 303.816 346.74 297.57C346.74 291.324 341.676 286.26 335.43 286.26C329.184 286.26 324.12 291.324 324.12 297.57C324.12 303.816 329.184 308.88 335.43 308.88Z" fill="#A6A6A6"/>
<path d="M342.72 294.66H342.2V300.47H342.72V294.66Z" fill="white"/>
<path d="M341.97 294.66V300.47L339.29 299.79L338.51 299.59V295.54L340.53 295.03L341.97 294.66Z" fill="white"/>
<path d="M337.04 292.92H329.59C328.784 292.92 328.13 293.574 328.13 294.38V300.76C328.13 301.566 328.784 302.22 329.59 302.22H337.04C337.846 302.22 338.5 301.566 338.5 300.76V294.38C338.5 293.574 337.846 292.92 337.04 292.92Z" fill="white"/>
<path d="M414.57 308.88C420.816 308.88 425.88 303.816 425.88 297.57C425.88 291.324 420.816 286.26 414.57 286.26C408.324 286.26 403.26 291.324 403.26 297.57C403.26 303.816 408.324 308.88 414.57 308.88Z" fill="#A6A6A6"/>
<path d="M414.58 305.4C414.495 305.4 414.414 305.366 414.354 305.306C414.294 305.246 414.26 305.165 414.26 305.08V301.35C414.26 301.265 414.294 301.184 414.354 301.124C414.414 301.064 414.495 301.03 414.58 301.03C414.665 301.03 414.746 301.064 414.806 301.124C414.866 301.184 414.9 301.265 414.9 301.35V305.08C414.9 305.165 414.866 305.246 414.806 305.306C414.746 305.366 414.665 305.4 414.58 305.4Z" fill="white"/>
<path d="M416.62 305.4H412.53C412.445 305.4 412.364 305.366 412.304 305.306C412.244 305.246 412.21 305.165 412.21 305.08C412.213 304.996 412.247 304.916 412.307 304.857C412.366 304.797 412.446 304.763 412.53 304.76H416.62C416.704 304.763 416.784 304.797 416.844 304.857C416.903 304.916 416.938 304.996 416.94 305.08C416.94 305.165 416.906 305.246 416.846 305.306C416.786 305.366 416.705 305.4 416.62 305.4Z" fill="white"/>
<path d="M417.2 292.36V297.79C417.215 298.393 417.022 298.983 416.653 299.46C416.283 299.937 415.761 300.272 415.173 300.409C414.585 300.545 413.969 300.474 413.427 300.209C412.885 299.943 412.452 299.498 412.2 298.95C412.018 298.591 411.926 298.193 411.93 297.79V292.36C411.951 291.689 412.229 291.051 412.706 290.577C413.182 290.104 413.822 289.831 414.494 289.814C415.165 289.798 415.818 290.039 416.317 290.488C416.817 290.937 417.126 291.56 417.18 292.23L417.2 292.36Z" fill="white"/>
<path d="M414.57 301.67C413.559 301.667 412.59 301.264 411.875 300.548C411.161 299.831 410.76 298.861 410.76 297.85V295.56C410.752 295.514 410.754 295.467 410.766 295.421C410.778 295.376 410.8 295.334 410.83 295.298C410.86 295.262 410.897 295.233 410.94 295.214C410.982 295.194 411.028 295.184 411.075 295.184C411.122 295.184 411.168 295.194 411.211 295.214C411.253 295.233 411.29 295.262 411.32 295.298C411.351 295.334 411.372 295.376 411.384 295.421C411.396 295.467 411.398 295.514 411.39 295.56V297.85C411.391 298.281 411.48 298.708 411.652 299.103C411.824 299.499 412.075 299.855 412.39 300.15C412.699 300.449 413.066 300.68 413.469 300.83C413.872 300.98 414.301 301.044 414.73 301.02C415.552 300.954 416.319 300.579 416.876 299.971C417.433 299.362 417.738 298.565 417.73 297.74V295.56C417.73 295.475 417.764 295.394 417.824 295.334C417.884 295.274 417.965 295.24 418.05 295.24C418.135 295.24 418.216 295.274 418.276 295.334C418.336 295.394 418.37 295.475 418.37 295.56V297.74C418.387 298.737 418.018 299.702 417.339 300.433C416.661 301.163 415.726 301.603 414.73 301.66L414.57 301.67Z" fill="white"/>
<path d="M380.28 308.87H369.35C367.862 308.877 366.387 308.589 365.01 308.024C363.634 307.459 362.382 306.628 361.327 305.578C360.273 304.528 359.436 303.28 358.865 301.906C358.294 300.532 358 299.058 358 297.57C358 294.57 359.192 291.694 361.313 289.573C363.434 287.452 366.31 286.26 369.31 286.26H380.24C383.24 286.26 386.116 287.452 388.237 289.573C390.358 291.694 391.55 294.57 391.55 297.57C391.547 300.561 390.36 303.429 388.248 305.547C386.136 307.665 383.271 308.859 380.28 308.87Z" fill="#455A64"/>
<path d="M366.11 297.37C366.132 297.012 366.249 296.667 366.45 296.37L366.72 295.96L367.32 295.36C367.55 295.2 367.77 295.02 368.01 294.87C368.96 294.265 370.021 293.854 371.13 293.66C373.688 293.145 376.322 293.145 378.88 293.66C379.975 293.849 381.022 294.254 381.96 294.85C382.2 295.01 382.43 295.19 382.67 295.36L383.24 295.93C383.577 296.345 383.807 296.836 383.91 297.36H378.84C378.798 297.363 378.757 297.354 378.721 297.332C378.685 297.311 378.657 297.278 378.64 297.24C378.504 296.972 378.299 296.745 378.046 296.583C377.793 296.421 377.501 296.33 377.2 296.32C375.725 296.23 374.245 296.23 372.77 296.32C372.469 296.335 372.178 296.428 371.925 296.591C371.672 296.755 371.467 296.982 371.33 297.25C371.33 297.32 371.26 297.37 371.16 297.37H366.11Z" fill="white"/>
<path d="M366.1 300.23V298.51C366.1 298.46 366.1 298.42 366.1 298.39H371.1C371.1 298.51 371.1 298.63 371.1 298.76V300.23C371.114 300.317 371.107 300.406 371.079 300.49C371.052 300.574 371.005 300.65 370.943 300.713C370.88 300.775 370.804 300.822 370.72 300.849C370.636 300.876 370.547 300.884 370.46 300.87H366.72C366.635 300.878 366.549 300.867 366.469 300.837C366.388 300.808 366.316 300.761 366.256 300.699C366.196 300.638 366.152 300.564 366.125 300.482C366.098 300.401 366.089 300.315 366.1 300.23Z" fill="white"/>
<path d="M378.87 300.26C378.87 299.63 378.87 299 378.92 298.38H383.86C383.866 298.416 383.866 298.453 383.86 298.49V300.24C383.871 300.323 383.863 300.408 383.837 300.487C383.81 300.567 383.766 300.64 383.707 300.699C383.648 300.759 383.576 300.805 383.497 300.833C383.418 300.861 383.333 300.87 383.25 300.86H379.47C379.389 300.868 379.308 300.857 379.232 300.83C379.155 300.803 379.086 300.759 379.029 300.701C378.971 300.644 378.927 300.575 378.9 300.498C378.873 300.422 378.862 300.341 378.87 300.26Z" fill="white"/>
<path d="M492.02 88.6499H393.3V185.28H492.02V88.6499Z" fill="#DBDBDB"/>
<path d="M446.5 150.25C439.14 157.25 424.03 164.11 409.82 164.44C401.82 164.63 385.77 134.03 382.72 127.38C377.62 116.29 397.49 113.58 402.09 114.67C407.82 116.03 416.55 141.29 419.71 143.9C420.82 144.82 436.34 142.74 442.91 141.42C449.93 140 450.29 146.65 446.5 150.25Z" fill="#AD6359"/>
<path d="M383.09 128.08C381.88 125.51 377.38 113.24 376.9 109.55C376.42 105.86 375.78 95.1198 378.57 94.4598C381.36 93.7998 381.8 96.9298 381.8 96.9298C381.8 96.9298 382.25 92.3498 385.12 91.9298C387.99 91.5098 388.51 96.4098 388.51 96.4098C388.51 96.4098 389.31 91.7498 392.2 91.5498C395.09 91.3498 394.79 96.3398 394.79 96.3398C394.79 96.3398 395.33 92.0498 397.79 92.8798C400.74 93.8798 398.85 101.7 399.69 105.74C399.88 106.65 404.9 124.04 404.9 124.04L383.09 128.08Z" fill="#AD6359"/>
<path d="M394.81 95.9199C393.44 101.67 393.81 104.43 395.71 109.92C395.71 110.03 395.59 110.11 395.54 110C393.22 104.77 392.22 101.39 394.54 95.8299C394.65 95.5699 394.88 95.6499 394.81 95.9199Z" fill="#263238"/>
<path d="M388.62 95.9999C387.72 102.09 388.12 105.08 389.62 111C389.62 111.09 389.5 111.13 389.47 111.05C387.47 105.38 386.56 101.98 388.27 96.0499C388.39 95.6999 388.67 95.6899 388.62 95.9999Z" fill="#263238"/>
<path d="M381.89 97.2198C381.43 103.22 381.73 106.48 383.97 112.03C383.97 112.16 383.83 112.25 383.77 112.13C380.94 106.69 380.54 102.58 381.7 97.2298C381.78 96.8598 381.91 96.8498 381.89 97.2198Z" fill="#263238"/>
<path d="M406.31 128.23C406.31 128.23 408.81 121.23 409.23 117.95C409.65 114.67 406.7 101.75 403.88 102.23C400.24 102.85 400.48 110.63 401.09 114.43C401.09 114.43 392.66 115.85 391.63 121.43C390.6 127.01 406.31 128.23 406.31 128.23Z" fill="#AD6359"/>
<path d="M402.94 102.73C400.02 105.73 401.15 110.62 401.47 114.35C401.478 114.404 401.472 114.46 401.454 114.512C401.435 114.563 401.405 114.61 401.365 114.647C401.324 114.685 401.275 114.712 401.222 114.726C401.169 114.741 401.114 114.742 401.06 114.73C397.56 115.56 392.88 117.73 391.49 121.28C391.49 121.301 391.482 121.322 391.467 121.337C391.452 121.352 391.431 121.36 391.41 121.36C391.389 121.36 391.368 121.352 391.353 121.337C391.338 121.322 391.33 121.301 391.33 121.28C392.33 117.28 396.73 114.77 400.61 114.1C400.22 110.28 399.31 105.29 402.91 102.75L402.94 102.73Z" fill="#263238"/>
<path d="M408.93 122C408.93 122 387.71 138.2 387.74 140C387.74 140 402.09 164.44 408.74 164.94C418.74 165.68 434.21 160.04 443.32 153.8C453.07 147.12 453.72 139.11 441.49 140.74C428.33 142.5 421.17 143.74 419.88 142.74C418.59 141.74 410 122.4 408.93 122Z" fill="#34D399"/>
<path d="M410.61 128.19C408.901 129.264 407.249 130.425 405.66 131.67C404.04 132.88 402.43 134.11 400.86 135.38C399.29 136.65 397.71 137.93 396.18 139.25C394.65 140.57 393.27 141.87 391.8 143.16C391.73 143.22 391.8 143.33 391.9 143.28C393.48 142.03 395.11 140.84 396.71 139.61C398.31 138.38 399.88 137.12 401.48 135.87C403.08 134.62 404.64 133.36 406.22 132.09C407.8 130.82 409.3 129.66 410.72 128.32C410.79 128.25 410.69 128.15 410.61 128.19Z" fill="#263238"/>
<path opacity="0.1" d="M443.32 153.8C434.21 160.04 418.71 165.68 408.74 164.94C408.337 164.901 407.942 164.8 407.57 164.64L450 142.36C452 144.88 449.45 149.6 443.32 153.8Z" fill="black"/>
<path d="M445.88 147.56C449.2 148.76 455.65 144.21 458.44 140.24C458.63 139.97 458.53 136.87 458.59 133.09C458.64 130.8 458.74 128.24 459.01 125.92L444.01 127.81C444.512 130.806 444.646 133.852 444.41 136.88C444.374 137.2 444.304 137.515 444.2 137.82C444.2 137.87 444.2 137.92 444.2 137.98C443.69 139.75 442.67 146.41 445.88 147.56Z" fill="#AD6359"/>
<path d="M458.16 126C457.31 129.13 453.96 138.95 445.68 138.2C445.178 138.154 444.68 138.071 444.19 137.95C444.19 137.89 444.19 137.84 444.19 137.79C444.294 137.485 444.364 137.17 444.4 136.85C444.636 133.822 444.502 130.776 444 127.78L458.16 126Z" fill="#263238"/>
<path d="M460.68 107.21C462.43 112.35 460.16 127.44 456.57 130.9C451.36 135.9 442.57 136.65 438.29 130.34C434.1 124.23 437.41 104.62 441.45 101.45C447.38 96.7799 458.1 99.6099 460.68 107.21Z" fill="#AD6359"/>
<path d="M448.6 117C448.6 117 448.68 117.06 448.67 117.1C448.49 118.1 448.45 119.3 449.32 119.77C449.32 119.77 449.32 119.84 449.32 119.83C448.21 119.53 448.27 118 448.6 117Z" fill="#263238"/>
<path d="M449.67 116.09C451.32 116.2 450.97 119.5 449.44 119.4C447.91 119.3 448.28 116 449.67 116.09Z" fill="#263238"/>
<path d="M442.6 116.16C442.6 116.16 442.51 116.16 442.51 116.25C442.43 117.25 442.17 118.43 441.21 118.67V118.73C442.36 118.69 442.69 117.15 442.6 116.16Z" fill="#263238"/>
<path d="M441.8 115C440.17 114.7 439.69 118 441.2 118.26C442.71 118.52 443.16 115.25 441.8 115Z" fill="#263238"/>
<path d="M451.13 114.72C450.708 114.55 450.297 114.353 449.9 114.13C449.438 113.987 449.037 113.695 448.76 113.3C448.696 113.157 448.681 112.998 448.718 112.846C448.754 112.694 448.839 112.558 448.96 112.46C449.227 112.305 449.531 112.224 449.84 112.224C450.149 112.224 450.452 112.305 450.72 112.46C451.311 112.697 451.792 113.147 452.07 113.72C452.127 113.854 452.143 114.001 452.118 114.145C452.092 114.288 452.025 114.42 451.926 114.526C451.826 114.632 451.698 114.707 451.557 114.741C451.415 114.776 451.267 114.768 451.13 114.72Z" fill="#263238"/>
<path d="M440.7 113.2C441.137 113.162 441.571 113.095 442 113C442.487 113 442.96 112.835 443.34 112.53C443.441 112.413 443.5 112.267 443.509 112.113C443.518 111.96 443.476 111.807 443.39 111.68C443.179 111.453 442.911 111.286 442.614 111.196C442.317 111.107 442.002 111.098 441.7 111.17C441.068 111.224 440.479 111.513 440.05 111.98C439.952 112.093 439.89 112.233 439.873 112.382C439.856 112.531 439.885 112.681 439.955 112.814C440.026 112.946 440.135 113.054 440.268 113.123C440.401 113.191 440.551 113.218 440.7 113.2Z" fill="#263238"/>
<path d="M448.26 126.44C447.98 126.65 447.71 126.95 447.33 126.95C446.951 126.899 446.586 126.77 446.26 126.57C446.26 126.57 446.19 126.57 446.21 126.62C446.334 126.837 446.515 127.016 446.734 127.138C446.952 127.26 447.2 127.319 447.45 127.31C447.665 127.278 447.865 127.183 448.025 127.037C448.186 126.891 448.299 126.701 448.35 126.49C448.35 126.49 448.29 126.41 448.26 126.44Z" fill="#263238"/>
<path d="M447.51 123.26C447.208 123.638 446.831 123.95 446.402 124.175C445.973 124.401 445.503 124.535 445.02 124.57C444.598 124.598 444.175 124.571 443.76 124.49H443.52L443.3 124.43C443.248 124.412 443.203 124.378 443.171 124.333C443.139 124.288 443.121 124.235 443.12 124.18C443.114 124.147 443.114 124.113 443.12 124.08V123.99C443.18 123.2 443.38 121.99 443.38 121.99C443.08 122.11 441.54 122.61 441.61 122.2C442.081 118.662 442.908 115.181 444.08 111.81C444.08 111.786 444.089 111.763 444.106 111.746C444.123 111.729 444.146 111.72 444.17 111.72C444.194 111.72 444.217 111.729 444.234 111.746C444.251 111.763 444.26 111.786 444.26 111.81C443.85 115.08 442.86 118.26 442.39 121.54C442.938 121.351 443.511 121.24 444.09 121.21C444.2 121.26 443.66 123.5 443.66 123.86C444.298 123.992 444.956 123.995 445.595 123.868C446.234 123.741 446.841 123.486 447.38 123.12C447.5 123.11 447.58 123.19 447.51 123.26Z" fill="#263238"/>
<path d="M444.28 124.27C444.678 124.862 445.222 125.341 445.86 125.66C446.215 125.815 446.608 125.864 446.99 125.8C447.82 125.63 447.88 124.88 447.77 124.23C447.708 123.887 447.607 123.551 447.47 123.23C446.545 123.908 445.427 124.272 444.28 124.27Z" fill="#263238"/>
<path d="M445.86 125.66C446.215 125.815 446.608 125.864 446.99 125.8C447.82 125.63 447.88 124.88 447.77 124.23C447.337 124.216 446.911 124.35 446.564 124.61C446.217 124.87 445.969 125.24 445.86 125.66Z" fill="#FF99BA"/>
<path d="M439.5 105.87C444.08 110.42 452.25 106.3 452.25 106.3C452.485 107.528 453.111 108.646 454.033 109.49C454.956 110.333 456.126 110.856 457.37 110.98C457.37 110.98 456.77 120.04 459.11 120.45C462.68 121.08 466 109.19 465.32 106.6C464.64 104.01 461.72 102.85 461.72 102.85C461.652 101.34 461.016 99.9114 459.94 98.8499C457.85 96.5699 449 97.5299 449 97.5299C448.724 96.3218 448.169 95.1951 447.38 94.2399C447.192 94.0019 446.958 93.8045 446.691 93.6597C446.425 93.515 446.131 93.4259 445.829 93.3978C445.527 93.3698 445.223 93.4034 444.934 93.4965C444.645 93.5897 444.379 93.7406 444.15 93.9399C444.482 94.6773 444.64 95.4816 444.61 96.2899C444.55 98.9599 442.43 98.5699 442.88 96.2199C443.015 95.3318 443.466 94.5222 444.15 93.9399C443.39 92.2099 441.77 91.3999 440.58 92.0299C438.41 93.1799 435.68 102.08 439.5 105.87Z" fill="#263238"/>
<path d="M457.86 119.53C457.86 119.53 461.2 114.64 463.41 115.83C465.62 117.02 463.16 124.08 460.58 125.07C460.258 125.218 459.909 125.3 459.555 125.311C459.2 125.321 458.847 125.26 458.517 125.132C458.187 125.003 457.886 124.809 457.632 124.561C457.378 124.313 457.177 124.017 457.04 123.69L457.86 119.53Z" fill="#AD6359"/>
<path d="M462.65 117.83V117.9C460.84 118.66 459.91 120.35 459.26 122.1C459.363 121.917 459.505 121.758 459.676 121.635C459.846 121.512 460.041 121.428 460.248 121.388C460.454 121.348 460.667 121.353 460.871 121.404C461.075 121.454 461.266 121.548 461.43 121.68C461.43 121.68 461.43 121.79 461.38 121.78C461.06 121.682 460.717 121.685 460.398 121.789C460.08 121.893 459.801 122.092 459.6 122.36C459.273 122.813 458.995 123.299 458.77 123.81C458.68 123.97 458.39 123.89 458.45 123.7C458.41 121.35 460.17 118.09 462.65 117.83Z" fill="#263238"/>
<path d="M479.83 185.29C474.4 167.19 466.95 147.34 459.76 141.56C459.08 140.56 459.98 136.84 459.5 136.46C459.02 136.08 443.64 136.71 443.19 137.09C442.74 137.47 443.19 139.76 442.7 140.35C439.516 145.479 436.744 150.853 434.41 156.42C432.14 162.18 429.67 173.74 427.65 185.29H479.83Z" fill="#34D399"/>
<path d="M458 137.48C457.827 138.644 457.827 139.826 458 140.99C458.187 139.827 458.187 138.643 458 137.48Z" fill="#263238"/>
<path d="M456.06 137.48C455.873 138.643 455.873 139.827 456.06 140.99C456.247 139.827 456.247 138.643 456.06 137.48Z" fill="#263238"/>
<path d="M454.14 137.48C453.953 138.643 453.953 139.827 454.14 140.99C454.313 139.826 454.313 138.644 454.14 137.48Z" fill="#263238"/>
<path d="M452.21 137.48C452.037 138.644 452.037 139.826 452.21 140.99C452.306 140.412 452.353 139.826 452.35 139.24C452.348 138.651 452.302 138.062 452.21 137.48Z" fill="#263238"/>
<path d="M450.29 137.48C450.198 138.062 450.152 138.651 450.15 139.24C450.147 139.826 450.194 140.412 450.29 140.99C450.463 139.826 450.463 138.644 450.29 137.48Z" fill="#263238"/>
<path d="M448.36 137.48C448.187 138.644 448.187 139.826 448.36 140.99C448.461 140.412 448.508 139.826 448.5 139.24C448.504 138.65 448.457 138.062 448.36 137.48Z" fill="#263238"/>
<path d="M446.44 137.48C446.253 138.643 446.253 139.827 446.44 140.99C446.627 139.827 446.627 138.643 446.44 137.48Z" fill="#263238"/>
<path d="M444.52 137.48C444.333 138.643 444.333 139.827 444.52 140.99C444.693 139.826 444.693 138.644 444.52 137.48Z" fill="#263238"/>
<path d="M436.86 150.49C436.272 151.508 435.744 152.56 435.28 153.64C435.28 153.42 435.37 153.19 435.41 152.96C435.53 152.36 435.69 151.75 435.86 151.16C435.86 151.16 435.86 151.16 435.81 151.16C435.572 151.738 435.378 152.333 435.23 152.94C435.119 153.391 435.039 153.848 434.99 154.31C434.93 154.45 434.86 154.59 434.81 154.74C434.254 156.169 433.777 157.628 433.38 159.11C433.38 159.21 433.5 159.24 433.53 159.11C434.62 156.22 435.87 153.4 436.94 150.5C437 150.47 436.88 150.45 436.86 150.49Z" fill="#263238"/>
<path d="M492 174.31C481.66 160.31 468 147.01 461.52 143.68C453.72 139.68 459.75 154.61 464.7 163.31C468.7 170.4 477.6 182.31 477.03 182.65C476.46 182.99 474.56 178.22 471.63 177.74C468.27 177.18 454 177.74 454.24 179.74C454.33 180.57 455.29 182.59 456.91 185.28H492V174.31Z" fill="#AD6359"/>
<path d="M492 185.26V173.45C484.775 164.186 476.805 155.527 468.17 147.56C458.94 139.46 453.43 139.05 460.32 155.43C464.322 165.08 469.808 174.045 476.58 182C476.58 182 466.75 183.86 460.98 185.27L492 185.26Z" fill="#34D399"/>
<path d="M459.05 157.44C459.81 157.99 460.532 158.591 461.21 159.24L461.78 159.82C460.88 158.29 460 156.75 459.16 155.19C459.148 155.166 459.146 155.138 459.155 155.113C459.163 155.088 459.181 155.067 459.205 155.055C459.229 155.043 459.257 155.041 459.282 155.049C459.307 155.058 459.328 155.076 459.34 155.1C461.84 159.1 464.34 163.1 466.85 166.99C469.36 170.88 471.99 174.72 474.59 178.56C476.07 180.74 477.49 182.97 478.98 185.14C479.04 185.22 478.9 185.31 478.84 185.23C477.41 183.39 475.93 181.59 474.56 179.7C473.19 177.81 471.92 175.97 470.65 174.07C468.043 170.183 465.55 166.223 463.17 162.19L462.46 160.99C462.26 160.8 462.05 160.63 461.85 160.46C461.5 160.16 461.16 159.85 460.85 159.54C460.2 158.911 459.588 158.243 459.02 157.54C459.02 157.54 459 157.4 459.05 157.44Z" fill="#263238"/>
<path d="M476.88 174.44C474.08 174.08 472.81 176.92 472.81 176.92C472.81 176.92 471.56 173.43 468.69 173.43C467.21 173.43 465.92 175.8 465.92 175.8C465.558 175.104 465.013 174.521 464.343 174.114C463.673 173.707 462.904 173.491 462.12 173.49C460.12 173.62 459.12 175.97 459.12 175.97C459.12 175.97 456.82 174.15 454.79 174.97C450.67 176.59 449.95 194.08 456.29 197.04C459.29 198.42 459.18 194.14 459.18 194.14C459.18 194.14 460.75 200.28 464.35 200.52C467.95 200.76 467.54 195.2 467.54 195.2C467.54 195.2 469.11 201.13 472.87 201C476.63 200.87 475.42 195.38 475.42 195.38C475.42 195.38 477.9 199.38 480.75 198.62C485.47 197.37 480.13 189.1 481.2 185.29H491C491 185.29 483.84 175.36 476.88 174.44Z" fill="#AD6359"/>
<path d="M454.26 179.49C450.32 180.14 446.67 174.7 442.82 174.78C437.6 174.88 440.92 183.7 448.11 185.25H454.24L454.26 179.49Z" fill="#AD6359"/>
<path d="M458.89 176.32C458.89 176.26 458.81 176.24 458.8 176.32C457.077 182.234 457.192 188.532 459.13 194.38C459.2 194.56 459.53 194.53 459.49 194.32C458.419 188.381 458.217 182.317 458.89 176.32Z" fill="#263238"/>
<path d="M465.89 175.72C465.885 175.707 465.876 175.696 465.864 175.688C465.853 175.68 465.839 175.676 465.825 175.676C465.811 175.676 465.797 175.68 465.786 175.688C465.774 175.696 465.765 175.707 465.76 175.72C463.93 182.257 464.494 189.232 467.35 195.39C467.46 195.6 467.77 195.69 467.66 195.39C465.92 191.15 465.17 181.33 465.89 175.72Z" fill="#263238"/>
<path d="M475.77 195.74C473.03 189.74 472.5 183.38 472.89 176.82C472.89 176.73 472.78 176.73 472.75 176.82C471.69 179.98 471.87 184.19 472.3 187.46C472.631 190.497 473.755 193.394 475.56 195.86C475.63 195.94 475.83 195.87 475.77 195.74Z" fill="#263238"/>
<path d="M452.18 179.32C451.497 181.207 451.231 183.22 451.4 185.22C451.4 185.31 451.55 185.33 451.56 185.22C451.68 184.22 451.97 181.16 452.34 179.34C452.36 179.28 452.22 179.24 452.18 179.32Z" fill="#263238"/>
<path d="M243.12 156.91C241.7 178.55 240.6 200.84 242.51 222.46C243.99 239.31 250.92 253.24 268.37 257.56C284.55 261.56 307.67 261.5 321.51 250.89C327.95 245.94 330.25 238.89 329.91 230.95C329.44 219.95 321.33 159.45 318.91 140.6C317.46 129.11 316.05 117.47 312.57 106.35C305.26 83.02 293.76 83.09 292.17 82.61C290.8 81.71 282.01 77.68 269.4 81.55C266.107 82.5581 263.064 84.2495 260.469 86.5137C257.874 88.7779 255.785 91.5639 254.34 94.69C245.11 113.25 244.47 136.65 243.12 156.91Z" fill="#263238"/>
<path d="M295.72 85.8699C309.49 92.4799 312.63 107.62 315.84 121.2C320.31 140.1 324.45 159.08 327.67 178.2C329.22 187.41 330.56 196.66 331.67 205.93C332.67 214.81 334.32 224.29 333.67 233.25C332.53 248.05 318.9 254.65 305.75 256.62C305.617 256.644 305.481 256.614 305.37 256.537C305.259 256.46 305.184 256.342 305.16 256.21C305.136 256.077 305.166 255.941 305.243 255.83C305.32 255.719 305.437 255.644 305.57 255.62C313.06 254.22 320.72 252.22 326.34 246.73C333.56 239.73 332.83 230.39 332.08 221.14C330.81 205.38 328.64 189.71 325.91 174.14C323.18 158.57 319.91 143.07 316.37 127.65C313.01 112.97 310.66 93.6499 295.71 86.0599C295.5 85.9999 295.58 85.7999 295.72 85.8699Z" fill="#263238"/>
<path d="M247.8 107.57C250.55 96.2799 256.55 85.3099 268.5 82.1499C253.04 86.8999 249.11 103.69 246.91 117.74C244.603 132.507 242.84 147.353 241.62 162.28C240.44 176.62 239.56 191.07 239.69 205.47C239.83 221 242.49 235.58 251.52 248.47C251.55 248.523 251.56 248.584 251.55 248.644C251.539 248.703 251.508 248.757 251.462 248.796C251.415 248.835 251.357 248.857 251.296 248.858C251.236 248.859 251.177 248.838 251.13 248.8C242.21 238.35 239.36 224.06 238.78 210.7C238.01 193.1 239.34 175.23 240.9 157.7C242.39 141.09 243.85 123.84 247.8 107.57Z" fill="#263238"/>
<path d="M378.52 235.59L370.25 292.91C370.25 292.91 327.06 293.66 310.25 283.79C289.87 271.79 271.49 197.48 269.35 185.44C265.83 165.67 270.06 154.99 279.73 159.76C283.49 161.58 288.08 165.76 293.34 172.68C298.85 179.9 329.61 225.74 340.29 235.38C346.29 240.77 378.52 235.59 378.52 235.59Z" fill="#EBEBEB"/>
<path d="M360 288.75C361 280.24 366.21 245.57 367.85 238.16C367.96 237.64 368.31 237.59 368.26 238.16C365.97 263.72 361.72 280.5 360.34 288.79C360.33 289 360 289 360 288.75Z" fill="#263238"/>
<path d="M352.09 292.44C338.22 291.62 319.9 289.44 310.27 283.79C289.89 271.79 271.51 197.48 269.37 185.44C265.85 165.67 270.08 154.99 279.75 159.76C280.058 159.904 280.359 160.064 280.65 160.24L352.09 292.44Z" fill="#263238"/>
<path d="M299.59 281.1L297 238.19C297 238.19 308.54 225.42 306 213.89C304.71 208.05 284.79 163.65 282.84 161.83C274.99 154.52 261.75 157.43 256.32 161.54C226.22 184.29 205 233.11 194.82 281.1H299.59Z" fill="#34D399"/>
<path d="M299.59 281.1L297 238.19C297 238.19 308.54 225.42 306 213.89C304.71 208.05 284.79 163.65 282.84 161.83C274.99 154.52 261.75 157.43 256.32 161.54C226.22 184.29 205 233.11 194.82 281.1H299.59Z" fill="#34D399"/>
<path d="M297 238.2L299.56 281.11H194.83C205 233.11 226.22 184.29 256.32 161.54C256.71 161.25 257.14 160.97 257.6 160.69L258.38 160.25C258.68 160.08 259 159.93 259.38 159.77L259.88 159.55L289.74 232.38L282.93 161.86C284.58 163.62 296.93 190.76 302.93 205.37C302.958 205.406 302.978 205.446 302.99 205.49L303.92 207.82C304.03 208.1 304.14 208.38 304.25 208.64C304.41 209.07 304.57 209.49 304.72 209.87C305.242 211.178 305.693 212.513 306.07 213.87C308.57 225.42 297 238.2 297 238.2Z" fill="#EBEBEB"/>
<path d="M258.38 160.25C255.83 167.35 253.17 174.41 250.57 181.49L250.13 180.82L265.44 181.19H266.44L266.03 182.13L260.86 194.05L260.76 193.21L275.7 213.1L283.17 223.05L290.57 233.05L288.84 233.55L290.54 212.28C291.08 205.18 291.74 198.1 292.35 191.01L292.48 191.45L285.28 181.39L284.9 180.84L285.51 180.61L290.2 178.81L289.97 179.36C287.6 173.53 285.2 167.71 282.89 161.85C285.55 167.56 288.13 173.3 290.74 179.03L290.91 179.42L290.51 179.59L285.89 181.59L286.11 180.81L293.55 190.7L293.69 190.89V191.14C293.24 198.24 292.83 205.34 292.29 212.44L290.77 233.73L290.59 236.28L289.05 234.28L281.6 224.28L274.21 214.28L259.44 194.28L259.14 193.88L259.35 193.44L264.81 181.64L265.41 182.64L250.12 181.9H249.41L249.68 181.27C252.57 174.17 255.41 167.19 258.38 160.25Z" fill="#DBDBDB"/>
<path d="M282.41 158.65C282.41 158.65 282.72 174.35 279.86 174.53C271.06 175.09 261.64 162.72 261.16 160.79C261.04 160.3 262.11 148.14 262.96 138.7C263.51 132.62 263.96 127.7 263.96 127.7L286 141.18L282.63 157.48L282.41 158.65Z" fill="#EB9481"/>
<path d="M286 141.18L282.63 157.48C278.224 155.901 274.2 153.413 270.818 150.177C267.436 146.942 264.773 143.032 263 138.7C263.55 132.62 264 127.7 264 127.7L266.78 129.28L286 141.18Z" fill="#263238"/>
<path d="M309.89 115.77C313.72 144.77 296.81 150.3 290.56 151.12C284.89 151.86 265.49 153.67 258.69 125.26C251.89 96.8499 264.14 85.9199 277 83.5299C289.86 81.1399 306.06 86.8099 309.89 115.77Z" fill="#EB9481"/>
<path d="M304 112.07C303.328 112.013 302.66 111.917 302 111.78C301.275 111.779 300.571 111.536 300 111.09C299.843 110.919 299.75 110.699 299.737 110.468C299.724 110.236 299.793 110.007 299.93 109.82C300.24 109.484 300.635 109.237 301.073 109.105C301.511 108.973 301.976 108.961 302.42 109.07C303.361 109.142 304.24 109.567 304.88 110.26C305.018 110.423 305.105 110.622 305.132 110.834C305.159 111.045 305.123 111.26 305.03 111.452C304.937 111.644 304.79 111.804 304.607 111.914C304.424 112.024 304.213 112.078 304 112.07Z" fill="#263238"/>
<path d="M284.37 113.94C285.029 113.795 285.68 113.615 286.32 113.4C287.03 113.306 287.69 112.983 288.2 112.48C288.328 112.289 288.389 112.061 288.374 111.831C288.36 111.602 288.271 111.384 288.12 111.21C287.768 110.913 287.344 110.715 286.891 110.636C286.438 110.557 285.971 110.6 285.54 110.76C284.62 110.952 283.806 111.484 283.26 112.25C283.141 112.429 283.078 112.64 283.077 112.855C283.077 113.07 283.14 113.281 283.258 113.461C283.376 113.641 283.544 113.782 283.742 113.867C283.94 113.952 284.158 113.978 284.37 113.94Z" fill="#263238"/>
<path d="M289.66 120.67C289.66 120.59 289.51 120.78 289.52 120.86C289.76 122.86 289.69 125.14 287.95 125.95C287.9 125.95 287.95 126.07 287.95 126.06C290.14 125.56 290.2 122.5 289.66 120.67Z" fill="#263238"/>
<path d="M287.72 118.75C284.51 118.75 284.8 125.19 287.72 125.17C290.64 125.15 290.4 118.72 287.72 118.75Z" fill="#263238"/>
<path d="M286.47 119.15C285.93 119.53 285.41 120.15 284.74 120.3C284.07 120.45 283.34 119.77 282.8 119.14C282.74 119.08 282.69 119.14 282.69 119.22C282.69 120.45 283.26 121.69 284.58 121.82C285.9 121.95 286.58 120.82 286.86 119.55C286.9 119.32 286.69 119 286.47 119.15Z" fill="#263238"/>
<path d="M300.57 119.58C300.57 119.5 300.73 119.67 300.73 119.75C300.73 121.75 301.09 124.02 302.92 124.61C302.931 124.615 302.94 124.622 302.946 124.632C302.953 124.642 302.956 124.653 302.956 124.665C302.956 124.677 302.953 124.688 302.946 124.698C302.94 124.708 302.931 124.715 302.92 124.72C300.7 124.49 300.26 121.47 300.57 119.58Z" fill="#263238"/>
<path d="M302.27 117.43C305.45 117.07 305.95 123.43 303 123.81C300.05 124.19 299.59 117.74 302.27 117.43Z" fill="#263238"/>
<path d="M303.63 117.75C304.17 118.05 304.71 118.63 305.32 118.62C305.93 118.61 306.49 117.88 306.89 117.18C306.89 117.11 306.98 117.18 306.99 117.25C307.12 118.47 306.81 119.77 305.65 120.1C304.49 120.43 303.73 119.41 303.34 118.21C303.27 118 303.42 117.63 303.63 117.75Z" fill="#263238"/>
<path d="M289.84 136.25C290.32 136.72 290.84 137.36 291.52 137.42C292.258 137.409 292.984 137.238 293.65 136.92C293.72 136.92 293.78 136.92 293.74 137.02C293.458 137.412 293.074 137.719 292.63 137.91C292.186 138.1 291.699 138.166 291.22 138.1C290.813 137.996 290.446 137.773 290.166 137.46C289.886 137.146 289.707 136.756 289.65 136.34C289.62 136.23 289.77 136.19 289.84 136.25Z" fill="#263238"/>
<path d="M297.73 128.6C297.73 128.6 298.31 131.54 298.39 132.94C298.39 133.07 298.06 133.15 297.59 133.21C296.401 133.499 295.155 133.454 293.989 133.082C292.823 132.71 291.782 132.024 290.98 131.1C290.88 130.97 291.05 130.81 291.18 130.89C293.032 132.009 295.197 132.496 297.35 132.28C297.43 131.89 296.19 127.28 296.41 127.28C297.502 127.313 298.585 127.491 299.63 127.81C298.63 121.65 296.63 115.7 295.63 109.55C295.623 109.505 295.632 109.458 295.656 109.419C295.681 109.38 295.718 109.352 295.762 109.338C295.806 109.325 295.853 109.328 295.895 109.346C295.937 109.365 295.971 109.398 295.99 109.44C298.54 115.52 299.88 122.59 301.11 128.93C301.24 129.69 298.3 128.8 297.73 128.6Z" fill="#263238"/>
<path d="M296 132.89C295.313 133.809 294.4 134.536 293.35 135C292.773 135.235 292.137 135.284 291.53 135.14C290.2 134.81 290.15 133.6 290.38 132.56C290.523 132.017 290.731 131.493 291 131C292.425 132.143 294.176 132.804 296 132.89Z" fill="#263238"/>
<path d="M293.37 135C292.793 135.235 292.156 135.284 291.55 135.14C290.22 134.81 290.17 133.6 290.4 132.56C291.096 132.577 291.767 132.826 292.305 133.268C292.844 133.711 293.218 134.32 293.37 135Z" fill="#FF99BA"/>
<path d="M260.3 123.49C267.06 123.32 266.63 112.67 266.63 112.67C266.63 112.67 274.27 111.67 274.4 99.3199C274.4 99.3199 278.4 106.66 288.78 107.82C290.99 108.07 283.43 102.62 283.43 102.62C283.43 102.62 292.53 110.31 308.81 106.71C309.97 106.45 306.9 89.2499 293.81 83.7999C280.72 78.3499 269.28 82.0999 261.61 90.4899C261.61 90.4899 252.33 95.1499 251.61 104.11C250.89 113.07 257.67 123.55 260.3 123.49Z" fill="#263238"/>
<path d="M285.38 131.21C283.673 131.199 282.003 130.71 280.56 129.797C279.117 128.884 277.96 127.584 277.219 126.046C276.479 124.508 276.185 122.792 276.371 121.095C276.558 119.398 277.216 117.788 278.273 116.446C279.329 115.105 280.741 114.088 282.348 113.509C283.954 112.931 285.69 112.815 287.359 113.175C289.028 113.535 290.562 114.356 291.788 115.545C293.013 116.734 293.88 118.243 294.29 119.9C294.622 121.248 294.641 122.654 294.348 124.011C294.054 125.368 293.455 126.64 292.596 127.73C291.737 128.821 290.64 129.701 289.39 130.304C288.14 130.907 286.768 131.217 285.38 131.21ZM285.49 114.21C284.833 114.203 284.177 114.28 283.54 114.44C281.589 114.922 279.894 116.129 278.802 117.817C277.709 119.504 277.301 121.544 277.66 123.522C278.02 125.5 279.119 127.266 280.735 128.461C282.351 129.657 284.362 130.191 286.359 129.955C288.355 129.72 290.186 128.732 291.48 127.194C292.773 125.655 293.432 123.682 293.321 121.675C293.211 119.668 292.339 117.778 290.884 116.391C289.429 115.005 287.5 114.224 285.49 114.21Z" fill="#34D399"/>
<path d="M306.16 128.79C302.67 128.79 299.53 125.18 299.01 120.45C298.715 118.194 299.138 115.902 300.22 113.9C300.63 113.011 301.263 112.243 302.057 111.671C302.851 111.099 303.78 110.742 304.753 110.634C305.726 110.526 306.71 110.672 307.61 111.057C308.51 111.442 309.296 112.052 309.89 112.83C311.39 114.56 312.303 116.719 312.5 119C313.06 124 310.5 128.4 306.76 128.81C306.56 128.797 306.36 128.79 306.16 128.79ZM305.35 111.79C305.197 111.78 305.043 111.78 304.89 111.79C304.119 111.908 303.389 112.211 302.76 112.672C302.132 113.134 301.624 113.74 301.28 114.44C300.328 116.218 299.958 118.25 300.22 120.25C300.7 124.58 303.56 127.83 306.63 127.49C309.7 127.15 311.77 123.35 311.29 119.02C311.109 117.013 310.3 115.113 308.98 113.59C308.531 113.059 307.977 112.627 307.352 112.322C306.727 112.017 306.045 111.846 305.35 111.82V111.79Z" fill="#34D399"/>
<path d="M294.1 121L293.22 120.16C294.46 118.85 297.47 116.94 299.95 119.07L299.15 119.99C296.94 118.07 294.21 120.86 294.1 121Z" fill="#34D399"/>
<path d="M254 127.79L252.87 127.35C253.07 126.82 254.93 122.14 257.59 121.41C260.08 120.72 276.49 120.41 277.18 120.41V121.63C272.48 121.71 259.82 122.03 257.9 122.56C256.13 123.07 254.47 126.51 254 127.79Z" fill="#34D399"/>
<path d="M263.59 126.88C263.59 126.88 256.81 118.06 252.78 120.51C248.75 122.96 254.13 135.96 259.06 137.51C259.682 137.757 260.348 137.875 261.018 137.857C261.687 137.839 262.345 137.685 262.953 137.404C263.561 137.124 264.106 136.722 264.554 136.225C265.002 135.727 265.344 135.144 265.56 134.51L263.59 126.88Z" fill="#EB9481"/>
<path d="M254.41 124.2C254.397 124.205 254.386 124.214 254.378 124.226C254.37 124.237 254.366 124.251 254.366 124.265C254.366 124.279 254.37 124.293 254.378 124.304C254.386 124.316 254.397 124.325 254.41 124.33C257.88 125.56 259.81 128.63 261.21 131.84C260.14 130.63 258.73 130 257.1 131.28C257.086 131.297 257.077 131.318 257.074 131.34C257.072 131.363 257.077 131.385 257.088 131.405C257.099 131.424 257.115 131.44 257.135 131.45C257.155 131.46 257.178 131.463 257.2 131.46C257.789 131.236 258.433 131.204 259.042 131.367C259.65 131.531 260.192 131.882 260.59 132.37C261.255 133.183 261.831 134.065 262.31 135C262.48 135.3 263.03 135.11 262.89 134.77V134.69C262.73 130.35 259.09 124.43 254.41 124.2Z" fill="#263238"/>
<path d="M261.74 136.14C261.74 136.338 261.681 136.531 261.571 136.695C261.462 136.86 261.305 136.988 261.123 137.064C260.94 137.139 260.739 137.159 260.545 137.121C260.351 137.082 260.173 136.987 260.033 136.847C259.893 136.707 259.798 136.529 259.759 136.335C259.721 136.141 259.74 135.94 259.816 135.757C259.892 135.574 260.02 135.418 260.184 135.308C260.349 135.199 260.542 135.14 260.74 135.14C261.005 135.14 261.26 135.245 261.447 135.433C261.635 135.62 261.74 135.875 261.74 136.14Z" fill="white"/>
<path d="M258.85 134.42C258.85 134.592 258.782 134.758 258.66 134.88C258.538 135.002 258.372 135.07 258.2 135.07C258.028 135.07 257.862 135.002 257.74 134.88C257.619 134.758 257.55 134.592 257.55 134.42C257.55 134.248 257.619 134.082 257.74 133.96C257.862 133.839 258.028 133.77 258.2 133.77C258.372 133.77 258.538 133.839 258.66 133.96C258.782 134.082 258.85 134.248 258.85 134.42Z" fill="white"/>
<path d="M280.77 198.1C280.77 198.1 273.92 189.1 280.45 184.9C286.98 180.7 292.3 190.75 292.3 190.75L280.77 198.1Z" fill="#455A64"/>
<path d="M334.94 257.57L335.89 268.62L336.23 272.26L333.03 270.45L323.41 264.92L280.54 197.72L292.08 190.36L334.95 257.57H334.94Z" fill="#455A64"/>
<path d="M335.9 268.63L336.23 272.28L333.03 270.46L335.9 268.63Z" fill="#37474F"/>
<path d="M292.795 189.4L279.332 197.99L281.037 200.662L294.5 192.072L292.795 189.4Z" fill="#263238"/>
<path d="M294.676 192.365L281.213 200.956L282.918 203.628L296.381 195.038L294.676 192.365Z" fill="#263238"/>
<path d="M282.92 203.61L287.26 200.83L300.38 226.67L298.72 227.6L282.92 203.61Z" fill="#263238"/>
<path d="M237.51 177.92C204 213.44 165.68 273.73 181.23 287.1C195.42 299.32 248.44 289.1 281.88 276.83C288.25 274.49 263.82 218.09 257.31 221.28C250.437 224.716 243.356 227.722 236.11 230.28C234.28 230.73 243.68 209.2 255.22 183.09C268.1 154 256.7 157.61 237.51 177.92Z" fill="#EB9481"/>
<path d="M338 218.81C337.9 225.31 321.91 223.69 321.91 223.69C324.211 225.281 325.885 227.626 326.64 230.32C327.75 235.13 320.64 238.98 320.64 238.98C322.689 241.128 324.044 243.842 324.53 246.77C325.12 251.48 318.53 256.38 318.53 256.38C319.314 259.392 318.991 262.586 317.62 265.38C313.62 272.69 300.86 272.58 292.92 274.07C284.028 275.937 275.3 278.515 266.82 281.78L253.36 223.14C253.36 223.14 288.07 203.51 297.64 204.14C305.81 204.72 338.18 208.89 338 218.81Z" fill="#EB9481"/>
<path d="M321.8 223.51C313.36 220.86 304.32 220.24 295.58 219.73C295.38 219.73 295.37 220.03 295.58 220.03C304.28 220.44 313.08 223.17 321.74 223.92C321.79 223.919 321.838 223.9 321.875 223.868C321.912 223.835 321.937 223.79 321.944 223.74C321.951 223.691 321.941 223.641 321.914 223.599C321.888 223.557 321.847 223.525 321.8 223.51Z" fill="#263238"/>
<path d="M320.49 238.32C318.52 237.898 316.502 237.74 314.49 237.85C312.35 237.85 310.22 237.85 308.08 237.91C303.813 238.023 299.547 238.24 295.28 238.56C295.09 238.56 295.06 238.86 295.28 238.86C299.54 238.76 303.8 238.72 308.06 238.8C310.187 238.84 312.317 238.897 314.45 238.97C316.446 239.17 318.459 239.146 320.45 238.9C320.516 238.888 320.575 238.854 320.62 238.805C320.664 238.755 320.691 238.692 320.695 238.625C320.7 238.559 320.682 238.493 320.645 238.437C320.608 238.382 320.553 238.341 320.49 238.32Z" fill="#263238"/>
<path d="M318.45 256.37C316.79 255.84 314.73 256.17 313.02 256.25C311.073 256.337 309.127 256.413 307.18 256.48C303.28 256.62 299.39 256.75 295.5 256.75C295.466 256.759 295.435 256.779 295.413 256.807C295.392 256.835 295.38 256.869 295.38 256.905C295.38 256.94 295.392 256.975 295.413 257.003C295.435 257.031 295.466 257.051 295.5 257.06C299.5 257.06 303.42 257.15 307.37 257.14C309.32 257.14 311.26 257.14 313.2 257.08C314.86 257.08 316.92 257.21 318.48 256.57C318.498 256.559 318.513 256.542 318.522 256.523C318.531 256.503 318.534 256.481 318.531 256.46C318.528 256.439 318.518 256.419 318.504 256.403C318.49 256.387 318.471 256.375 318.45 256.37Z" fill="#263238"/>
<path d="M254 162.31C230 176.08 166.63 259.67 177 283.56C187.37 307.45 264.21 283.99 264.21 283.99L259.55 219.87C259.55 219.87 239.21 230.46 238.55 229.43C237.89 228.4 250.55 199.59 255.63 187.87C260.71 176.15 266.77 155 254 162.31Z" fill="#EBEBEB"/>
<path d="M254.7 280.06C253.57 271.57 250.19 236.68 249.97 229.06C249.97 228.53 250.29 228.39 250.37 228.94C254.37 254.29 254.37 271.59 255.04 279.94C255.05 280.21 254.73 280.28 254.7 280.06Z" fill="#263238"/>
<path d="M259.08 219.91C256.839 220.658 254.66 221.577 252.56 222.66C250.65 223.54 248.74 224.42 246.85 225.33C242.73 227.33 238.66 229.33 234.6 231.47C230.54 233.61 226.51 235.7 222.51 237.9C218.51 240.1 214.65 242.52 210.66 244.73C210.48 244.83 210.66 245.1 210.83 245C214.89 242.86 219.09 241 223.19 239L235.26 233C239.26 231 243.32 229.05 247.33 227C249.33 226 251.26 225 253.22 224C255.371 223.032 257.453 221.916 259.45 220.66C259.51 220.593 259.549 220.51 259.562 220.42C259.574 220.331 259.559 220.24 259.519 220.159C259.48 220.079 259.416 220.012 259.338 219.967C259.26 219.923 259.17 219.903 259.08 219.91Z" fill="#263238"/>
<path d="M253 201.34C251.73 202.87 250.47 204.41 249.27 206C249.05 206.29 248.85 206.6 248.63 206.9L249.63 204.42C250.942 201.563 252.094 198.635 253.08 195.65C253.08 195.51 252.92 195.45 252.85 195.56C251.26 198.433 249.828 201.391 248.56 204.42C247.22 207.32 245.85 210.22 244.56 213.14C243.27 216.06 241.94 218.99 240.71 221.95C239.384 224.811 238.271 227.765 237.38 230.79C237.38 230.97 237.58 231.04 237.68 230.9C239.365 228.084 240.835 225.146 242.08 222.11C243.41 219.19 244.65 216.24 245.93 213.31C246.47 212.08 246.98 210.84 247.5 209.6L248.14 208.77C248.74 208.01 249.3 207.22 249.85 206.43C250.98 204.78 252.03 203.1 253.07 201.43C253.077 201.419 253.081 201.407 253.08 201.394C253.08 201.382 253.075 201.369 253.068 201.359C253.06 201.35 253.049 201.342 253.037 201.339C253.025 201.335 253.012 201.336 253 201.34Z" fill="#263238"/>
<path d="M274.87 212L273.16 212.83L259.42 194.21L259.12 193.81L259.33 193.37L264.33 182.48L250.06 181.79H249.35L249.62 181.16C252.53 174.16 255.37 167.21 258.34 160.27C255.87 167.15 253.34 174 250.77 180.86L265.4 181.21H266.4L265.99 182.15L260.99 193.62L274.87 212Z" fill="#DBDBDB"/>
<path d="M250.13 180.82H250.81L250.57 181.47L250.13 180.82Z" fill="#DBDBDB"/>
<path d="M260.76 193.23L261.05 193.62L260.86 194.07L260.76 193.23Z" fill="#DBDBDB"/>
<path d="M264.79 181.59L265.39 182.55L264.37 182.5L264.79 181.59Z" fill="#DBDBDB"/>
<path d="M367.79 293.38L300.62 298.25L325.73 209.82L392.89 204.95L367.79 293.38Z" fill="white"/>
<path d="M372.38 293.05L305.22 297.92L330.33 209.49L397.49 204.61L372.38 293.05Z" fill="#455A64"/>
<path d="M337.47 209C337.297 209.761 336.976 210.48 336.525 211.117C336.073 211.754 335.501 212.295 334.84 212.71C334.23 213.1 333.99 212.28 334.6 211.91C335.447 211.349 336.078 210.517 336.39 209.55C336.444 209.394 336.484 209.233 336.51 209.07C336.656 208.53 336.656 207.96 336.51 207.42C336.445 207.19 336.299 206.992 336.1 206.86C336.083 206.863 336.067 206.863 336.05 206.86C336.05 206.86 335.98 206.86 335.97 206.86H335.84C335.68 206.834 335.516 206.859 335.37 206.93C335.084 207.053 334.83 207.241 334.63 207.48C334.384 207.784 334.183 208.12 334.03 208.48C333.93 208.64 333.86 208.81 333.77 208.99V209.11C333.734 209.164 333.71 209.226 333.7 209.29C333.696 209.33 333.696 209.37 333.7 209.41L332.75 209.48C332.931 208.869 333.197 208.287 333.54 207.75C333.796 207.288 334.149 206.885 334.573 206.57C334.997 206.254 335.483 206.033 336 205.92C336.379 205.885 336.756 205.998 337.054 206.235C337.352 206.471 337.548 206.813 337.6 207.19C337.696 207.795 337.651 208.415 337.47 209Z" fill="#34D399"/>
<path d="M342.72 208.6C342.367 210.132 341.426 211.464 340.1 212.31C339.48 212.7 339.25 211.88 339.86 211.51C340.707 210.949 341.338 210.117 341.65 209.15C341.65 209 341.74 208.82 341.77 208.66C341.916 208.123 341.916 207.557 341.77 207.02C341.704 206.785 341.555 206.582 341.35 206.45H341.26H341.13C340.973 206.424 340.812 206.448 340.67 206.52C340.382 206.64 340.128 206.829 339.93 207.07C339.685 207.356 339.483 207.676 339.33 208.02C339.228 208.181 339.141 208.352 339.07 208.53V208.65C339.042 208.708 339.019 208.768 339 208.83C339 208.83 339 208.91 339 208.94L338.05 209.01C338.234 208.403 338.499 207.825 338.84 207.29C339.091 206.823 339.441 206.417 339.866 206.101C340.291 205.785 340.781 205.566 341.3 205.46C341.679 205.425 342.056 205.538 342.354 205.775C342.652 206.011 342.848 206.353 342.9 206.73C342.994 207.359 342.932 208.001 342.72 208.6Z" fill="#34D399"/>
<path d="M348 208.21C347.647 209.748 346.702 211.084 345.37 211.93C344.76 212.32 344.53 211.49 345.14 211.12C345.986 210.563 346.618 209.734 346.93 208.77C346.93 208.61 347.02 208.44 347.05 208.28C347.191 207.742 347.191 207.178 347.05 206.64C346.979 206.408 346.831 206.206 346.63 206.07H346.55H346.42C346.26 206.045 346.096 206.069 345.95 206.14C345.663 206.257 345.412 206.447 345.22 206.69C344.978 206.976 344.773 207.292 344.61 207.63C344.51 207.79 344.44 207.97 344.35 208.15V208.27C344.318 208.326 344.295 208.387 344.28 208.45C344.28 208.45 344.28 208.53 344.28 208.56L343.28 208.63C343.472 208.027 343.737 207.449 344.07 206.91C344.323 206.445 344.674 206.041 345.099 205.725C345.524 205.409 346.012 205.189 346.53 205.08C346.908 205.045 347.286 205.156 347.585 205.39C347.884 205.625 348.083 205.964 348.14 206.34C348.242 206.966 348.194 207.607 348 208.21Z" fill="#34D399"/>
<path d="M353.24 207.83C352.887 209.367 351.942 210.704 350.61 211.55C350 211.94 349.76 211.11 350.37 210.74C351.216 210.183 351.848 209.354 352.16 208.39C352.214 208.23 352.254 208.066 352.28 207.9C352.432 207.364 352.432 206.796 352.28 206.26C352.217 206.027 352.071 205.824 351.87 205.69H351.82C351.82 205.69 351.75 205.69 351.74 205.69C351.697 205.697 351.653 205.697 351.61 205.69C351.449 205.673 351.287 205.701 351.14 205.77C350.85 205.887 350.595 206.076 350.4 206.32C350.159 206.605 349.957 206.921 349.8 207.26C349.7 207.42 349.63 207.6 349.54 207.78V207.9C349.506 207.951 349.482 208.009 349.47 208.07C349.466 208.11 349.466 208.15 349.47 208.19L348.52 208.26C348.702 207.652 348.968 207.073 349.31 206.54C349.563 206.075 349.914 205.671 350.339 205.355C350.764 205.039 351.252 204.819 351.77 204.71C352.147 204.675 352.524 204.786 352.821 205.021C353.119 205.255 353.315 205.595 353.37 205.97C353.474 206.591 353.429 207.229 353.24 207.83Z" fill="#34D399"/>
<path d="M358.49 207.45C358.139 208.986 357.198 210.322 355.87 211.17C355.25 211.56 355.02 210.73 355.63 210.36C356.476 209.803 357.108 208.974 357.42 208.01C357.42 207.85 357.51 207.68 357.54 207.52C357.686 206.98 357.686 206.41 357.54 205.87C357.472 205.639 357.323 205.44 357.12 205.31C357.12 205.31 357.05 205.31 357.03 205.31C356.987 205.317 356.943 205.317 356.9 205.31C356.742 205.293 356.583 205.32 356.44 205.39C356.15 205.507 355.895 205.696 355.7 205.94C355.453 206.221 355.251 206.538 355.1 206.88C354.998 207.045 354.911 207.219 354.84 207.4V207.52C354.812 207.575 354.789 207.632 354.77 207.69C354.77 207.69 354.77 207.77 354.77 207.81L353.82 207.88C354.002 207.273 354.268 206.694 354.61 206.16C354.861 205.693 355.211 205.287 355.636 204.971C356.061 204.655 356.551 204.436 357.07 204.33C357.447 204.295 357.824 204.407 358.121 204.641C358.419 204.875 358.615 205.215 358.67 205.59C358.762 206.215 358.7 206.854 358.49 207.45Z" fill="#34D399"/>
<path d="M363.75 207.07C363.399 208.606 362.458 209.942 361.13 210.79C360.51 211.18 360.28 210.35 360.89 209.98C361.736 209.423 362.368 208.594 362.68 207.63C362.68 207.47 362.77 207.29 362.8 207.14C362.941 206.599 362.941 206.031 362.8 205.49C362.726 205.262 362.578 205.065 362.38 204.93H362.33C362.33 204.93 362.26 204.93 362.25 204.93H362.12C361.96 204.905 361.796 204.929 361.65 205C361.365 205.124 361.114 205.317 360.92 205.56C360.674 205.843 360.468 206.16 360.31 206.5C360.21 206.66 360.14 206.84 360.05 207.02V207.13C360.018 207.186 359.995 207.247 359.98 207.31C359.98 207.31 359.98 207.39 359.98 207.43L358.98 207.5C359.172 206.893 359.437 206.312 359.77 205.77C360.025 205.308 360.377 204.906 360.801 204.591C361.226 204.277 361.713 204.059 362.23 203.95C362.609 203.913 362.988 204.023 363.288 204.257C363.587 204.492 363.785 204.833 363.84 205.21C363.957 205.828 363.926 206.466 363.75 207.07Z" fill="#34D399"/>
<path d="M369 206.69C368.647 208.228 367.702 209.564 366.37 210.41C365.76 210.8 365.52 209.97 366.13 209.6C366.976 209.043 367.608 208.214 367.92 207.25C367.973 207.09 368.013 206.926 368.04 206.76C368.191 206.22 368.191 205.65 368.04 205.11C367.97 204.883 367.826 204.685 367.63 204.55C367.614 204.553 367.597 204.553 367.58 204.55C367.58 204.55 367.51 204.55 367.5 204.55H367.37C367.21 204.525 367.046 204.549 366.9 204.62C366.614 204.743 366.36 204.932 366.16 205.17C365.918 205.458 365.717 205.778 365.56 206.12C365.46 206.28 365.39 206.46 365.3 206.64V206.75C365.264 206.804 365.24 206.866 365.23 206.93C365.226 206.97 365.226 207.01 365.23 207.05L364.28 207.12C364.462 206.509 364.727 205.927 365.07 205.39C365.325 204.928 365.677 204.526 366.101 204.211C366.526 203.897 367.013 203.679 367.53 203.57C367.908 203.533 368.285 203.643 368.584 203.878C368.882 204.113 369.078 204.454 369.13 204.83C369.234 205.452 369.189 206.089 369 206.69Z" fill="#34D399"/>
<path d="M374.26 206.31C373.907 207.842 372.966 209.174 371.64 210.02C371.02 210.41 370.79 209.59 371.4 209.22C372.247 208.659 372.878 207.827 373.19 206.86C373.19 206.71 373.28 206.53 373.31 206.38C373.456 205.84 373.456 205.27 373.31 204.73C373.242 204.499 373.093 204.3 372.89 204.17C372.89 204.17 372.82 204.17 372.8 204.17H372.67C372.513 204.144 372.352 204.168 372.21 204.24C371.924 204.363 371.67 204.551 371.47 204.79C371.225 205.076 371.023 205.396 370.87 205.74C370.773 205.905 370.687 206.075 370.61 206.25V206.37C370.582 206.428 370.559 206.488 370.54 206.55C370.54 206.55 370.54 206.63 370.54 206.67L369.54 206.74C369.722 206.129 369.987 205.547 370.33 205.01C370.585 204.547 370.937 204.144 371.362 203.828C371.786 203.512 372.273 203.291 372.79 203.18C373.169 203.145 373.546 203.258 373.844 203.495C374.142 203.731 374.338 204.073 374.39 204.45C374.498 205.071 374.454 205.71 374.26 206.31Z" fill="#34D399"/>
<path d="M379.52 205.93C379.167 207.462 378.226 208.794 376.9 209.64C376.28 210.03 376.05 209.21 376.66 208.84C377.507 208.279 378.138 207.447 378.45 206.48C378.45 206.33 378.54 206.15 378.57 206C378.711 205.459 378.711 204.891 378.57 204.35C378.497 204.119 378.349 203.918 378.15 203.78H378.1C378.1 203.78 378.03 203.78 378.02 203.78H377.89C377.73 203.754 377.566 203.779 377.42 203.85C377.137 203.974 376.888 204.163 376.69 204.4C376.445 204.688 376.24 205.007 376.08 205.35C375.98 205.51 375.91 205.68 375.82 205.86V205.98C375.788 206.036 375.765 206.097 375.75 206.16C375.75 206.16 375.75 206.24 375.75 206.28L374.75 206.34C374.942 205.736 375.207 205.159 375.54 204.62C375.795 204.156 376.146 203.753 376.571 203.437C376.995 203.122 377.483 202.901 378 202.79C378.38 202.755 378.759 202.868 379.058 203.104C379.358 203.34 379.555 203.682 379.61 204.06C379.728 204.682 379.697 205.322 379.52 205.93Z" fill="#34D399"/>
<path d="M384.78 205.55C384.424 207.084 383.48 208.416 382.15 209.26C381.54 209.65 381.31 208.83 381.91 208.46C382.757 207.899 383.388 207.067 383.7 206.1C383.755 205.941 383.795 205.777 383.82 205.61C383.972 205.074 383.972 204.506 383.82 203.97C383.757 203.737 383.611 203.534 383.41 203.4C383.41 203.4 383.41 203.4 383.36 203.4H383.28H383.15C382.99 203.374 382.826 203.399 382.68 203.47C382.39 203.587 382.135 203.776 381.94 204.02C381.701 204.306 381.499 204.622 381.34 204.96C381.24 205.13 381.17 205.3 381.08 205.48V205.6C381.044 205.654 381.02 205.716 381.01 205.78C381.01 205.78 381.01 205.86 381.01 205.89L380.06 205.96C380.244 205.353 380.509 204.774 380.85 204.24C381.103 203.775 381.455 203.371 381.879 203.055C382.304 202.739 382.792 202.519 383.31 202.41C383.689 202.375 384.066 202.488 384.364 202.725C384.662 202.961 384.858 203.303 384.91 203.68C385.015 204.305 384.971 204.946 384.78 205.55Z" fill="#34D399"/>
<path d="M390 205.16C389.649 206.696 388.708 208.032 387.38 208.88C386.76 209.27 386.53 208.44 387.14 208.07C387.986 207.513 388.618 206.684 388.93 205.72C388.93 205.56 389.02 205.39 389.05 205.23C389.196 204.693 389.196 204.127 389.05 203.59C388.984 203.355 388.835 203.152 388.63 203.02C388.63 203.02 388.56 203.02 388.54 203.02C388.497 203.027 388.453 203.027 388.41 203.02C388.252 203.003 388.093 203.03 387.95 203.1C387.66 203.217 387.405 203.406 387.21 203.65C386.967 203.934 386.765 204.25 386.61 204.59C386.512 204.757 386.425 204.931 386.35 205.11V205.23C386.322 205.288 386.299 205.348 386.28 205.41C386.28 205.41 386.28 205.49 386.28 205.52L385.33 205.59C385.512 204.982 385.778 204.403 386.12 203.87C386.372 203.404 386.723 202.999 387.148 202.683C387.573 202.367 388.062 202.148 388.58 202.04C388.957 202.005 389.334 202.117 389.631 202.351C389.929 202.585 390.125 202.925 390.18 203.3C390.272 203.925 390.21 204.564 390 205.16Z" fill="#34D399"/>
<path d="M395.29 204.78C394.939 206.316 393.998 207.652 392.67 208.5C392.05 208.89 391.82 208.06 392.43 207.69C393.276 207.133 393.908 206.304 394.22 205.34C394.22 205.18 394.31 205.01 394.34 204.85C394.481 204.309 394.481 203.741 394.34 203.2C394.266 202.972 394.118 202.775 393.92 202.64C393.92 202.64 393.85 202.64 393.84 202.64C393.797 202.647 393.753 202.647 393.71 202.64C393.549 202.623 393.387 202.651 393.24 202.72C392.953 202.837 392.702 203.027 392.51 203.27C392.264 203.553 392.058 203.87 391.9 204.21C391.8 204.37 391.73 204.55 391.64 204.73V204.85C391.61 204.904 391.587 204.961 391.57 205.02C391.57 205.02 391.57 205.1 391.57 205.14L390.57 205.21C390.76 204.606 391.026 204.028 391.36 203.49C391.613 203.025 391.964 202.621 392.389 202.305C392.814 201.989 393.302 201.769 393.82 201.66C394.199 201.623 394.578 201.733 394.878 201.967C395.177 202.202 395.375 202.543 395.43 202.92C395.531 203.542 395.483 204.18 395.29 204.78Z" fill="#34D399"/>
<path d="M394.19 224.5C397.74 231.77 406.59 240.75 407.37 246.71C407.616 248.174 407.385 249.678 406.709 251C406.034 252.322 404.951 253.392 403.62 254.05C403.62 254.05 409.62 256.95 409.44 262.48C409.35 265.32 404.72 267.68 404.72 267.68C404.72 267.68 409.42 270.21 408.96 275.12C408.59 279.03 404.01 280.8 404.01 280.8C404.01 280.8 407.38 285.34 405.73 289.2C402.38 297.03 368.67 297.42 363.32 285.07C360.82 279.31 369.06 279.66 369.06 279.66C369.06 279.66 357.34 276.29 357.06 269.34C356.78 262.39 367.48 263.5 367.48 263.5C367.48 263.5 356.14 260.14 356.6 252.91C357.08 245.38 367.6 248.31 367.6 248.31C367.6 248.31 360.05 243.31 361.67 237.86C364.34 228.86 378.67 239.98 386.05 238.13L390 225.87L394.19 224.5Z" fill="#EB9481"/>
<path d="M401.07 235C398.3 227.82 407.13 218.82 405.47 211.57C403.23 201.77 392.28 211.57 389.99 225.83L390.16 237.24L401.07 235Z" fill="#EB9481"/>
<path d="M403.33 281.19C403.348 281.196 403.363 281.208 403.374 281.223C403.385 281.238 403.39 281.256 403.39 281.275C403.39 281.294 403.385 281.312 403.374 281.327C403.363 281.342 403.348 281.354 403.33 281.36C392.27 284.19 379.26 283.91 368.58 279.69C368.23 279.55 368.3 278.92 368.72 279C380.58 281.25 391.27 282.3 403.33 281.19Z" fill="#263238"/>
<path d="M404.88 267.74C405.01 267.74 405.04 267.95 404.88 267.98C393.47 270.84 378.82 270.12 367.08 263.81C366.68 263.59 366.54 262.99 367.02 263.21C375.16 266.81 394 268.8 404.88 267.74Z" fill="#263238"/>
<path d="M366.88 247.58C378.37 253.2 390.5 254.58 403.16 254.19C403.33 254.19 403.32 254.41 403.16 254.46C397.02 256.33 388.92 255.74 382.66 254.74C376.828 253.923 371.311 251.593 366.66 247.98C366.5 247.84 366.63 247.46 366.88 247.58Z" fill="#263238"/>
<path d="M338.94 138.63H331.94V131.05H324.36V124.05H331.94V116.47H338.94V124H346.52V131H338.94V138.63ZM332.94 137.63H337.94V130.05H345.52V125.05H337.94V117.47H332.94V125H325.36V130H332.94V137.63Z" fill="#34D399"/>
<path d="M198.05 206.67H191.05V199.09H183.47V192.09H191V184.5H198V192.09H205.59V199.09H198L198.05 206.67ZM192.05 205.67H197.05V198.09H204.64V193.09H197.05V185.5H192.05V193.09H184.47V198.09H192L192.05 205.67Z" fill="#34D399"/>
<path d="M622.41 447.68H508.61V297.76H622.41V447.68Z" fill="#455A64"/>
<path d="M611.62 307.37H519.4V438.06H611.62V307.37Z" fill="white"/>
<path d="M553.95 307.37H519.4V438.06H553.95V307.37Z" fill="#EBEBEB"/>
<path d="M542.07 333.82C541.246 334.332 540.344 334.706 539.4 334.93C537.019 335.51 534.504 335.121 532.409 333.85C530.313 332.58 528.807 330.53 528.22 328.15C527.815 326.493 527.876 324.756 528.396 323.131C528.916 321.507 529.876 320.057 531.168 318.944C532.461 317.831 534.036 317.096 535.72 316.823C537.404 316.549 539.131 316.746 540.71 317.392C542.288 318.039 543.658 319.109 544.666 320.485C545.675 321.861 546.283 323.489 546.424 325.189C546.564 326.89 546.232 328.595 545.464 330.119C544.695 331.642 543.521 332.923 542.07 333.82Z" fill="#A6A6A6"/>
<path d="M540 324.89C540.002 325.448 539.838 325.994 539.529 326.46C539.221 326.925 538.781 327.288 538.266 327.503C537.751 327.718 537.184 327.775 536.636 327.667C536.088 327.559 535.585 327.292 535.189 326.898C534.794 326.504 534.524 326.001 534.415 325.454C534.305 324.907 534.36 324.339 534.574 323.823C534.787 323.307 535.148 322.866 535.612 322.556C536.076 322.246 536.622 322.08 537.18 322.08C537.926 322.08 538.642 322.376 539.17 322.903C539.699 323.429 539.997 324.144 540 324.89Z" fill="white"/>
<path d="M542.07 332.66V333.82C541.246 334.332 540.344 334.707 539.4 334.93C538.208 335.227 536.969 335.281 535.756 335.089C534.543 334.897 533.381 334.462 532.34 333.81V332.66C532.31 332.003 532.414 331.346 532.645 330.73C532.876 330.114 533.23 329.551 533.684 329.075C534.139 328.599 534.685 328.22 535.29 327.962C535.896 327.703 536.547 327.57 537.205 327.57C537.863 327.57 538.514 327.703 539.119 327.962C539.725 328.22 540.271 328.599 540.726 329.075C541.18 329.551 541.534 330.114 541.765 330.73C541.996 331.346 542.1 332.003 542.07 332.66Z" fill="white"/>
<path d="M584.94 318.42H560.05V320.14H584.94V318.42Z" fill="#EBEBEB"/>
<path d="M603.06 323.18H560.05V324.9H603.06V323.18Z" fill="#EBEBEB"/>
<path d="M593.47 327.93H560.05V329.65H593.47V327.93Z" fill="#EBEBEB"/>
<path d="M579.34 337.44H560.05V339.16H579.34V337.44Z" fill="#EBEBEB"/>
<path d="M593.47 342.2H560.05V343.92H593.47V342.2Z" fill="#EBEBEB"/>
<path d="M603.06 346.96H560.05V348.68H603.06V346.96Z" fill="#EBEBEB"/>
<path d="M584.94 351.71H560.05V353.43H584.94V351.71Z" fill="#EBEBEB"/>
<path d="M603.06 361.23H560.05V362.95H603.06V361.23Z" fill="#EBEBEB"/>
<path d="M591.25 365.98H560.05V367.7H591.25V365.98Z" fill="#EBEBEB"/>
<path d="M583.22 370.74H560.05V372.46H583.22V370.74Z" fill="#EBEBEB"/>
<path d="M598.79 375.5H560.05V377.22H598.79V375.5Z" fill="#EBEBEB"/>
<path d="M591.25 385.01H560.05V386.73H591.25V385.01Z" fill="#EBEBEB"/>
<path d="M603.06 389.77H560.05V391.49H603.06V389.77Z" fill="#EBEBEB"/>
<path d="M598.79 399.28H560.05V401H598.79V399.28Z" fill="#EBEBEB"/>
<path d="M583 404.04H560.05V405.76H583V404.04Z" fill="#EBEBEB"/>
<path d="M603.06 408.79H560.05V410.51H603.06V408.79Z" fill="#EBEBEB"/>
<path d="M591.25 418.31H560.05V420.03H591.25V418.31Z" fill="#EBEBEB"/>
<path d="M603.06 423.06H560.05V424.78H603.06V423.06Z" fill="#EBEBEB"/>
<path d="M598.79 427.82H560.05V429.54H598.79V427.82Z" fill="#EBEBEB"/>
<path d="M539.38 342.2H527.96V343.92H539.38V342.2Z" fill="#A6A6A6"/>
<path d="M546.97 346.96H527.96V348.68H546.97V346.96Z" fill="#A6A6A6"/>
<path d="M543.85 351.71H527.96V353.43H543.85V351.71Z" fill="#A6A6A6"/>
<path d="M546.97 361.23H527.96V362.95H546.97V361.23Z" fill="#A6A6A6"/>
<path d="M548.16 365.98H527.96V367.7H548.16V365.98Z" fill="#A6A6A6"/>
<path d="M542.13 370.74H527.96V372.46H542.13V370.74Z" fill="#A6A6A6"/>
<path d="M544.7 375.5H527.96V377.22H544.7V375.5Z" fill="#A6A6A6"/>
<path d="M594.35 289.05H536.67V309.49H594.35V289.05Z" fill="#A6A6A6"/>
<path d="M586.03 296.98H544.99V281.12H586.03V296.98Z" fill="#A6A6A6"/>
<path d="M181.49 340.93H114.69V441.13H181.49V340.93Z" fill="#34D399"/>
<path d="M189.56 314.03H106.63V340.93H189.56V314.03Z" fill="#455A64"/>
<path d="M170.33 369.77H125.86V414.24H170.33V369.77Z" fill="white"/>
<path opacity="0.1" d="M114.69 340.93V348.73L152.3 362.96V441.13H170.33V340.93H114.69Z" fill="black"/>
<path d="M94 438.84C94.0053 436.611 94.8951 434.476 96.4738 432.903C98.0526 431.329 100.191 430.447 102.42 430.45H119.08C121.307 430.45 123.443 431.333 125.02 432.906C126.596 434.479 127.485 436.613 127.49 438.84C127.485 441.069 126.597 443.205 125.021 444.781C123.445 446.357 121.309 447.245 119.08 447.25H102.43C100.198 447.25 98.0565 446.365 96.4762 444.788C94.8958 443.211 94.0053 441.072 94 438.84Z" fill="#455A64"/>
<path d="M94 438.84C94.0053 436.611 94.8951 434.476 96.4738 432.903C98.0526 431.329 100.191 430.447 102.42 430.45H110.76V447.28H102.42C101.313 447.279 100.217 447.059 99.1947 446.634C98.1725 446.21 97.2439 445.588 96.462 444.804C95.6801 444.02 95.0603 443.09 94.6379 442.067C94.2154 441.043 93.9987 439.947 94 438.84Z" fill="#34D399"/>
<path d="M208.3 438.83C208.295 441.059 207.405 443.194 205.826 444.767C204.247 446.34 202.109 447.223 199.88 447.22H183.22C182.117 447.221 181.024 447.005 180.005 446.584C178.985 446.163 178.058 445.546 177.277 444.767C176.496 443.988 175.877 443.062 175.453 442.044C175.03 441.025 174.811 439.933 174.81 438.83C174.813 436.6 175.7 434.463 177.276 432.886C178.853 431.309 180.99 430.423 183.22 430.42H199.88C202.111 430.423 204.249 431.309 205.827 432.885C207.406 434.462 208.295 436.599 208.3 438.83Z" fill="#455A64"/>
<path d="M208.3 438.83C208.295 441.059 207.405 443.194 205.826 444.767C204.247 446.34 202.109 447.223 199.88 447.22H191.54V430.42H199.88C202.111 430.423 204.249 431.309 205.827 432.885C207.406 434.462 208.295 436.599 208.3 438.83Z" fill="#34D399"/>
<path d="M227.2 442.26C226.42 443.04 225.494 443.659 224.475 444.081C223.455 444.503 222.363 444.721 221.26 444.721C220.157 444.721 219.064 444.503 218.045 444.081C217.026 443.659 216.1 443.04 215.32 442.26L203.54 430.48C202.76 429.7 202.141 428.774 201.719 427.755C201.297 426.736 201.079 425.643 201.079 424.54C201.079 423.437 201.297 422.344 201.719 421.325C202.141 420.306 202.76 419.38 203.54 418.6C205.12 417.026 207.26 416.142 209.49 416.142C211.72 416.142 213.86 417.026 215.44 418.6L227.22 430.38C228.785 431.962 229.662 434.099 229.658 436.324C229.654 438.55 228.771 440.683 227.2 442.26Z" fill="#455A64"/>
<path d="M227.2 442.26C226.42 443.04 225.494 443.659 224.475 444.081C223.456 444.503 222.363 444.721 221.26 444.721C220.157 444.721 219.064 444.503 218.045 444.081C217.026 443.659 216.1 443.04 215.32 442.26L209.42 436.36L221.32 424.46L227.22 430.36C228.792 431.943 229.672 434.084 229.668 436.314C229.664 438.545 228.777 440.683 227.2 442.26Z" fill="#34D399"/>
<path d="M151 455.66C151.005 453.431 151.895 451.296 153.474 449.723C155.053 448.15 157.191 447.267 159.42 447.27H176.08C177.183 447.269 178.276 447.485 179.295 447.906C180.315 448.327 181.242 448.944 182.023 449.723C182.804 450.502 183.423 451.428 183.847 452.446C184.27 453.465 184.489 454.557 184.49 455.66C184.49 457.891 183.604 460.032 182.027 461.61C180.45 463.189 178.311 464.077 176.08 464.08H159.42C157.188 464.077 155.048 463.189 153.469 461.611C151.891 460.032 151.003 457.892 151 455.66Z" fill="#455A64"/>
<path d="M151 455.66C151.005 453.431 151.895 451.296 153.474 449.723C155.053 448.15 157.191 447.267 159.42 447.27H167.76V464.1H159.42C158.313 464.099 157.217 463.879 156.195 463.455C155.172 463.03 154.244 462.408 153.462 461.624C152.68 460.84 152.06 459.91 151.638 458.887C151.215 457.864 150.999 456.767 151 455.66Z" fill="#34D399"/>
</svg>
